<svg id="Слой_1" data-name="Слой 1" xmlns="http://www.w3.org/2000/svg" viewBox="0 0 627.51 406.3"><defs><style>.cls-1{fill:#153e4e;}</style></defs><title>logo_basic dark blue</title><path class="cls-1" d="M109.56,369.87a22.77,22.77,0,0,0-6.68-6.26,16.5,16.5,0,0,0-8.81-2.43H38.6a18.14,18.14,0,0,0-9.36,2.43,24.08,24.08,0,0,0-7,6.26,28,28,0,0,0-4.44,8.56,30.26,30.26,0,0,0-1.52,9.23v20.66a5.82,5.82,0,0,0,5.84,5.83,5.8,5.8,0,0,0,5.83-5.83V387.66a23.81,23.81,0,0,1,.54-4.79,13.17,13.17,0,0,1,2.07-4.8,12.74,12.74,0,0,1,4.13-3.71,13.59,13.59,0,0,1,6.86-1.52H89.94a13.66,13.66,0,0,1,6.8,1.52,12.57,12.57,0,0,1,4.19,3.71,13.17,13.17,0,0,1,2.07,4.8,23.87,23.87,0,0,1,.55,4.79v20.66a5.83,5.83,0,1,0,11.66,0V387.66a31.4,31.4,0,0,0-1.46-9.23A29.54,29.54,0,0,0,109.56,369.87Z" transform="translate(-16.24 -7.85)"/><path class="cls-1" d="M219.85,369.87a22.77,22.77,0,0,0-6.68-6.26,16.5,16.5,0,0,0-8.81-2.43H149a18.12,18.12,0,0,0-9.36,2.43,24.08,24.08,0,0,0-7,6.26,28,28,0,0,0-4.44,8.56,30.26,30.26,0,0,0-1.52,9.23,31.42,31.42,0,0,0,1.46,9.24,29.72,29.72,0,0,0,4.19,8.57,23.16,23.16,0,0,0,6.62,6.25,16.38,16.38,0,0,0,8.87,2.43h55.4a18.12,18.12,0,0,0,9.36-2.43,24.35,24.35,0,0,0,7.05-6.25A28.75,28.75,0,0,0,224,397a30.07,30.07,0,0,0,1.52-9.3,31.4,31.4,0,0,0-1.46-9.23A29.54,29.54,0,0,0,219.85,369.87Zm-6.2,22.6a12.87,12.87,0,0,1-2.06,4.79A12.56,12.56,0,0,1,207.4,401a13.7,13.7,0,0,1-6.81,1.52H151.51a13.61,13.61,0,0,1-6.87-1.52,12.73,12.73,0,0,1-4.13-3.71,12.87,12.87,0,0,1-2.06-4.79,21.22,21.22,0,0,1,0-9.6,13,13,0,0,1,2.06-4.8,12.85,12.85,0,0,1,4.13-3.71,13.61,13.61,0,0,1,6.87-1.52h49.08a13.7,13.7,0,0,1,6.81,1.52,12.67,12.67,0,0,1,4.19,3.71,13,13,0,0,1,2.06,4.8,21.22,21.22,0,0,1,0,9.6Z" transform="translate(-16.24 -7.85)"/><path class="cls-1" d="M332.24,387.79a27.81,27.81,0,0,0-5.11-4,13.73,13.73,0,0,0-6.92-2c-12.31-.08-28.6-.1-40.71-.06-10.18,0-20.48.05-30.8.05v-9h71a5.83,5.83,0,1,0,0-11.66H242.87A5.8,5.8,0,0,0,237,367h0v41.31a5.8,5.8,0,0,0,5.83,5.83H319.6a15.88,15.88,0,0,0,6.38-1.28,17,17,0,0,0,5.22-3.45,16.23,16.23,0,0,0,3.53-5.11A15.75,15.75,0,0,0,336,398a15,15,0,0,0-1-5.52A17.53,17.53,0,0,0,332.24,387.79Zm-8.93,13.36a4.55,4.55,0,0,1-3.22,1.34H248.7v-9h71.39a4.65,4.65,0,0,1,3.22,1.27,4.36,4.36,0,0,1,0,6.38Z" transform="translate(-16.24 -7.85)"/><path class="cls-1" d="M439.75,372.84a5.83,5.83,0,1,0,0-11.66h-87.3a5.8,5.8,0,0,0-5.83,5.83h0v31.22a15.72,15.72,0,0,0,1.33,6.56,17.08,17.08,0,0,0,3.41,5A15,15,0,0,0,356.1,413a13.35,13.35,0,0,0,5.34,1.15h78.31a5.83,5.83,0,1,0,0-11.66h-77.7a4,4,0,0,1-2.73-.91,2.78,2.78,0,0,1-1-2.13V393.5h81.47a5.84,5.84,0,1,0,0-11.67H358.29v-9Z" transform="translate(-16.24 -7.85)"/><path class="cls-1" d="M544.46,402.49h-8.72L513.39,364.7a10.9,10.9,0,0,0-5.22-4.49,17.6,17.6,0,0,0-7.05-1.46,17.33,17.33,0,0,0-7.4,1.64,11.87,11.87,0,0,0-5.35,4.68l-22.21,37.42h-8.37a5.8,5.8,0,0,0-5.83,5.83,5.51,5.51,0,0,0,1.58,3.95,6,6,0,0,0,3.77,1.88h87.15a5.83,5.83,0,1,0,0-11.66Zm-48-28.43a7.79,7.79,0,0,1,1.94-2.19,4.21,4.21,0,0,1,2.67-1.09,4.47,4.47,0,0,1,2.74,1.09,7.51,7.51,0,0,1,2,2.19l16.65,28.43h-43Z" transform="translate(-16.24 -7.85)"/><path class="cls-1" d="M643.21,406.13c-.36-.65-.75-1.29-1.15-1.94L612.54,364.7a14.17,14.17,0,0,0-5.35-4.37,15.81,15.81,0,0,0-6.93-1.58,16.1,16.1,0,0,0-12.75,6.32L558,404.79a4.8,4.8,0,0,0-1.21,3.53,5.8,5.8,0,0,0,5.83,5.83,5.4,5.4,0,0,0,4.49-2.19l9.52-12.63h47.33l9.37,12.52a5.25,5.25,0,0,0,4.62,2.3,5.8,5.8,0,0,0,5.83-5.83A4.34,4.34,0,0,0,643.21,406.13ZM585.4,387.67l10.25-13.61a14.55,14.55,0,0,1,2-2.12,3.53,3.53,0,0,1,5.23,0,26.66,26.66,0,0,1,2.13,2.12l10.19,13.61Z" transform="translate(-16.24 -7.85)"/><path class="cls-1" d="M187.85,313.42a7.32,7.32,0,0,1,2.39-2.14,7.79,7.79,0,0,1,4-.88h39.46a3.37,3.37,0,1,0,0-6.74H192.73a10.53,10.53,0,0,0-5.41,1.4,14.08,14.08,0,0,0-4.07,3.62,16.17,16.17,0,0,0-2.56,4.95,17.3,17.3,0,0,0-.88,5.34,18,18,0,0,0,.84,5.37,17.19,17.19,0,0,0,2.43,4.91,13.29,13.29,0,0,0,3.82,3.62,9.45,9.45,0,0,0,5.13,1.4h41.64a3.37,3.37,0,0,0,0-6.74H194.21a7.79,7.79,0,0,1-4-.88,7.21,7.21,0,0,1-2.39-2.14,7.36,7.36,0,0,1-1.19-2.77,12.19,12.19,0,0,1,0-5.55A7.43,7.43,0,0,1,187.85,313.42Z" transform="translate(-16.24 -7.85)"/><path class="cls-1" d="M297.64,313.07a9.32,9.32,0,0,0-.74-3.69,9.22,9.22,0,0,0-2-3,9.82,9.82,0,0,0-3-2,9.15,9.15,0,0,0-3.69-.74H246.1a3.35,3.35,0,0,0-3.37,3.37V330.9a3.35,3.35,0,0,0,3.37,3.37h42.06a9.15,9.15,0,0,0,3.69-.74,9.82,9.82,0,0,0,3-2,9.27,9.27,0,0,0,2-2.94,9.1,9.1,0,0,0,.74-3.66,8.57,8.57,0,0,0-.6-3.19,9.78,9.78,0,0,0-1.58-2.7,10,10,0,0,0,1.58-2.71A8.71,8.71,0,0,0,297.64,313.07Zm-7.34,13.69a2.59,2.59,0,0,1-1.86.77h-39v-5.19h39a2.68,2.68,0,0,1,1.86.73,2.51,2.51,0,0,1,0,3.69Zm0-11.87a2.65,2.65,0,0,1-1.83.71h-39v-5.2h39a2.77,2.77,0,0,1,2.67,2.67A2.34,2.34,0,0,1,290.34,314.89Z" transform="translate(-16.24 -7.85)"/><path class="cls-1" d="M419.59,312.77a9,9,0,0,0-.74-3.65,9.44,9.44,0,0,0-2-2.95,9.1,9.1,0,0,0-3-2,9.57,9.57,0,0,0-3.68-.7H367.63a3.37,3.37,0,1,0,0,6.74h42.9a2.55,2.55,0,0,1,1.82.74,2.37,2.37,0,0,1,.78,1.79,2.54,2.54,0,0,1-.78,1.89,2.47,2.47,0,0,1-1.82.78h-34.9a3.37,3.37,0,1,0,0,6.74h34.9a2.46,2.46,0,0,1,1.82.77,2.57,2.57,0,0,1,.78,1.89,2.39,2.39,0,0,1-.78,1.8,2.54,2.54,0,0,1-1.82.73h-42.9a3.37,3.37,0,1,0,0,6.74h42.55a9.57,9.57,0,0,0,3.68-.7,9,9,0,0,0,3-2,9.51,9.51,0,0,0,2-2.94,9.28,9.28,0,0,0-1.51-9.69,9.15,9.15,0,0,0,1.65-2.74A9,9,0,0,0,419.59,312.77Z" transform="translate(-16.24 -7.85)"/><path class="cls-1" d="M479.45,321.28a9.42,9.42,0,0,0-2-2.95,10,10,0,0,0-3-2,9.31,9.31,0,0,0-3.69-.73H432V307a3.2,3.2,0,0,0-1-2.39,3.35,3.35,0,0,0-5.72,2.39V330.9a3.35,3.35,0,0,0,3.37,3.37h42.06a9.15,9.15,0,0,0,3.69-.74,9.82,9.82,0,0,0,3-2,9.27,9.27,0,0,0,2-2.94,9.4,9.4,0,0,0,0-7.31Zm-6.6,5.48a2.59,2.59,0,0,1-1.86.77H432v-5.19h39a2.68,2.68,0,0,1,1.86.73,2.51,2.51,0,0,1,0,3.69Z" transform="translate(-16.24 -7.85)"/><path class="cls-1" d="M357.79,309.07a9.67,9.67,0,0,0-2-2.88,8.53,8.53,0,0,0-2.74-1.86,7.66,7.66,0,0,0-3.09-.67H313.34a9.36,9.36,0,0,0-3.72.74,10,10,0,0,0-3.09,2,9.24,9.24,0,0,0-2.1,3c-.52,1.12-1.17,5.19-.13,7.75a13.14,13.14,0,0,0,9,7.77,29.78,29.78,0,0,0-3.4,4.14,3.57,3.57,0,0,0-.7,1.89,3.36,3.36,0,0,0,3.37,3.37,2.79,2.79,0,0,0,1.27-.28,5.06,5.06,0,0,0,1.05-.7,5.44,5.44,0,0,0,.63-.7,27.09,27.09,0,0,1,5.93-5.62,25.56,25.56,0,0,1,2.3-1.35h28.07v5.28a3.18,3.18,0,0,0,1,2.39,3.35,3.35,0,0,0,5.72-2.39v-18A9,9,0,0,0,357.79,309.07Zm-35.18,9.62h-4.27c-7.37-.33-7.9-4.84-7.93-5.74h0a2.32,2.32,0,0,1,.73-1.71,3,3,0,0,1,1.72-.84h36.79a2.26,2.26,0,0,1,1.48.46,1.89,1.89,0,0,1,.7,1.08v6.75Z" transform="translate(-16.24 -7.85)"/><path class="cls-1" d="M16.43,248.94c23.46,14.73,51,21.4,78.21,23.48a231.71,231.71,0,0,0,41.06-.35,199.74,199.74,0,0,0,40.16-7.87,142.85,142.85,0,0,0,36.83-17l17.13-11.6,9.05-5.47c3.06-1.72,6.3-3.1,9.45-4.66a185.37,185.37,0,0,1,40-12.38A255.27,255.27,0,0,1,330,209.24a253,253,0,0,1,41.65,3.88,185.45,185.45,0,0,1,40,12.38c3.14,1.56,6.38,2.94,9.45,4.66l9,5.47,17.13,11.6A120.54,120.54,0,0,0,465.07,257a154.14,154.14,0,0,0,19.07,7.22c26.1,8,53.91,10.33,81.22,8.22s54.73-8.8,78.21-23.49a137.05,137.05,0,0,1-37.28,17.87,207.14,207.14,0,0,1-40.69,8.33c-27.6,2.68-55.81.81-82.68-6.83-13.4-3.88-26.5-9.29-38.27-17.1l-17.22-11.5-8.69-5.18c-2.95-1.64-6.09-2.95-9.13-4.44a180.31,180.31,0,0,0-38.92-11.77,235.24,235.24,0,0,0-81.37,0,181,181,0,0,0-38.93,11.77c-3,1.49-6.18,2.8-9.13,4.44l-8.7,5.18-17.21,11.5a138,138,0,0,1-38.28,17.06A202.23,202.23,0,0,1,136,275.54a229.37,229.37,0,0,1-41.6-.43,205,205,0,0,1-40.7-8.29A137,137,0,0,1,16.43,248.94Z" transform="translate(-16.24 -7.85)"/><path class="cls-1" d="M16.43,217.17a132.53,132.53,0,0,0,34.74,30.11A119.87,119.87,0,0,0,94,262.77l2.81.49,2.83.31,5.67.61,5.69.2,2.85.1,2.84-.09a122.83,122.83,0,0,0,22.55-2.61c14.74-3.38,29-9.1,41.45-17.65a132,132,0,0,0,32.46-31.21l14-18.47a147.35,147.35,0,0,1,15.86-17.77,126.21,126.21,0,0,1,173.89,0,148.12,148.12,0,0,1,15.86,17.77l14.05,18.47a133.23,133.23,0,0,0,32.42,31.24A120.44,120.44,0,0,0,566,262.82a121.73,121.73,0,0,0,42.82-15.53,133.83,133.83,0,0,0,18.65-13.5,147.79,147.79,0,0,0,16.11-16.6,123.83,123.83,0,0,1-167.78,32.35,133.14,133.14,0,0,1-34.71-32.16L426.8,199.09a140.64,140.64,0,0,0-15.22-16.63,119.54,119.54,0,0,0-163.16,0,139,139,0,0,0-15.22,16.64l-14.28,18.29c-2.33,3-5,6.09-7.54,9.13-2.74,2.88-5.43,5.81-8.35,8.49s-5.87,5.36-9.11,7.66c-1.59,1.2-3.14,2.43-4.76,3.58l-5,3.26a123.86,123.86,0,0,1-67.43,19.57l-3,0-3-.17-5.89-.37-5.85-.77-2.93-.39-2.88-.61A125.16,125.16,0,0,1,16.43,217.17Z" transform="translate(-16.24 -7.85)"/><path class="cls-1" d="M16.43,151.86A291.82,291.82,0,0,0,30,178.7a199.42,199.42,0,0,0,16.57,24.87,139.17,139.17,0,0,0,20.51,21.28C74.63,231,83,236.37,92,239.5l3.4,1.17a19.48,19.48,0,0,0,3.42,1l7,1.46,7.07.53c2.36.12,4.71-.22,7.06-.3a69.09,69.09,0,0,0,26.71-8.72c8.27-4.71,15.57-11.07,22.4-17.83l4.8-5.44,2.4-2.73,2.18-2.91,4.38-5.83c1.42-2,2.67-4.08,4-6.11s2.71-4.06,3.91-6.19l3.56-6.42c2.49-4.21,4.48-8.72,6.63-13.13s4-9,5.92-13.5,3.74-9.2,5.56-13.87l10.95-28.06c1.76-4.65,3.81-9.43,5.75-14.16s4.25-9.35,6.45-14c9.24-18.39,20.79-36,36.1-50.72A104.72,104.72,0,0,1,298,15.4a71.57,71.57,0,0,1,64,0,105.19,105.19,0,0,1,26.36,18.37c15.31,14.73,26.83,32.35,36.1,50.73,2.19,4.65,4.45,9.28,6.44,14s4,9.51,5.75,14.16l10.95,28.06c1.82,4.67,3.63,9.4,5.53,13.89l2.84,6.81,3.09,6.68c1.95,4.53,4.39,8.77,6.58,13.16l3.66,6.35,1.84,3.18,2,3.06A145.65,145.65,0,0,0,491,216.8a101.39,101.39,0,0,0,22.34,17.89,65.93,65.93,0,0,0,26.7,8.73A62.74,62.74,0,0,0,568,239.55a86.6,86.6,0,0,0,24.93-14.7,133.31,133.31,0,0,0,20.5-21.28A194.94,194.94,0,0,0,630,178.72a287.89,287.89,0,0,0,13.59-26.81c-6.89,18.84-15.39,37.32-27.08,54a130.8,130.8,0,0,1-20.08,23,93,93,0,0,1-25.93,17,69.68,69.68,0,0,1-31,5.48,74.6,74.6,0,0,1-30.45-8.7,105.45,105.45,0,0,1-25.12-18.84,155.26,155.26,0,0,1-19.74-24l-2.2-3.19-2-3.28-4-6.59c-2.42-4.52-5.1-8.94-7.26-13.59l-3.37-6.92-3.07-7c-2.09-4.72-3.94-9.34-5.84-14l-11.4-27.88c-1.88-4.71-3.87-9.13-5.81-13.66s-4.21-8.86-6.36-13.25a230.52,230.52,0,0,0-15-25,150.37,150.37,0,0,0-18.65-21.81,91.31,91.31,0,0,0-22.92-15.83,59.19,59.19,0,0,0-52.32,0,91.18,91.18,0,0,0-22.93,15.83,150.2,150.2,0,0,0-18.65,21.8,231.64,231.64,0,0,0-15,25c-2.15,4.39-4.38,8.75-6.36,13.25s-3.93,8.94-5.81,13.65L223.67,145.2c-1.91,4.64-3.75,9.28-5.87,14s-4,9.44-6.45,13.95-4.57,9.19-7.31,13.57l-3.93,6.64c-1.32,2.21-2.87,4.29-4.3,6.44s-2.86,4.29-4.42,6.35l-4.84,6.09-2.41,3-2.66,2.87-5.32,5.7c-7.59,7.15-15.73,13.9-25.18,18.78a77.59,77.59,0,0,1-30.44,8.68c-2.67,0-5.34.26-8,0l-7.92-.9-7.7-1.91a69,69,0,0,1-7.4-2.72c-9.77-3.92-18.34-10.05-26-16.9a136.07,136.07,0,0,1-20.09-23.05C31.81,189.18,23.3,170.72,16.43,151.86Z" transform="translate(-16.24 -7.85)"/></svg>