<svg id="Слой_1" data-name="Слой 1" xmlns="http://www.w3.org/2000/svg" viewBox="0 0 79 79"><defs><style>.cls-1{fill:#153f53;}.cls-2{fill:#fff;}</style></defs><title>Иконка_01</title><circle class="cls-1" cx="39.5" cy="39.5" r="35.16"/><path class="cls-2" d="M28.84,25.29c-.44.11-.9.26-1.41.44a.7.7,0,0,0-.41.36.75.75,0,0,0,0,.55.73.73,0,0,0,.91.43c.47-.17.9-.3,1.3-.41a.71.71,0,0,0-.36-1.37Z"/><path class="cls-2" d="M24.1,27c-.51.2-.93.34-1.3.46a.72.72,0,0,0-.46.9.73.73,0,0,0,.9.46c.4-.13.83-.29,1.37-.5A.71.71,0,1,0,24.1,27Z"/><path class="cls-2" d="M34.19,25.56A5.82,5.82,0,0,0,32.67,25a.69.69,0,0,0-.83.56.7.7,0,0,0,.55.83,4.31,4.31,0,0,1,1.16.4.71.71,0,0,0,1-.32.7.7,0,0,0-.31-1Z"/><path class="cls-2" d="M37.17,37.53a.71.71,0,0,0-.82.57c-.09.48-.17.95-.24,1.42a.71.71,0,0,0,1.4.22q.1-.69.24-1.38a.74.74,0,0,0-.12-.54.71.71,0,0,0-.46-.29Z"/><path class="cls-2" d="M37.7,32.6a.72.72,0,0,0-.71.69,11.07,11.07,0,0,1-.09,1.36h0a.72.72,0,0,0,.63.78.72.72,0,0,0,.53-.15.74.74,0,0,0,.26-.48c0-.53.09-1,.09-1.48a.7.7,0,0,0-.69-.72Z"/><path class="cls-2" d="M36.46,30.1a.73.73,0,0,0,.93.39.69.69,0,0,0,.38-.39.64.64,0,0,0,0-.54A7.21,7.21,0,0,0,37,28.19a.74.74,0,0,0-.46-.31.72.72,0,0,0-.53.11.71.71,0,0,0-.19,1,6,6,0,0,1,.6,1.12Z"/><path class="cls-2" d="M39.57,48.22a5,5,0,0,1-.9-.88.71.71,0,0,0-1-.1.7.7,0,0,0-.1,1,6.54,6.54,0,0,0,1.13,1.1.71.71,0,0,0,1-.13.7.7,0,0,0-.12-1Z"/><path class="cls-2" d="M43.84,50.08c-.52-.15-.94-.27-1.32-.4h0a.7.7,0,0,0-.9.45.71.71,0,0,0,.45.9c.4.13.84.27,1.39.42a.71.71,0,0,0,.38-1.37Z"/><path class="cls-2" d="M37.41,44.45a9.73,9.73,0,0,1-.15-1.31.71.71,0,0,0-1.42.06A11.08,11.08,0,0,0,36,44.71a.72.72,0,0,0,.83.57.73.73,0,0,0,.57-.83Z"/><path class="cls-2" d="M49.6,39.06a1.78,1.78,0,1,0,0,3.56,1.78,1.78,0,0,0,1.25-3A1.77,1.77,0,0,0,49.6,39.06Z"/><path class="cls-2" d="M55.85,37.58h0a7.35,7.35,0,0,0-12.51,0,6.29,6.29,0,0,0,0,6.35L49,53.62a.72.72,0,0,0,.62.36.7.7,0,0,0,.61-.36l5.6-9.68a6.31,6.31,0,0,0,0-6.36Zm-4,5.52a3.21,3.21,0,1,1,.93-2.26A3.21,3.21,0,0,1,51.86,43.1Z"/></svg>