<svg id="Слой_1" data-name="Слой 1" xmlns="http://www.w3.org/2000/svg" viewBox="0 0 79 79"><defs><style>.cls-1{fill:#153f53;}.cls-2{fill:#fff;}</style></defs><title>Иконка_01</title><circle class="cls-1" cx="39.5" cy="39.5" r="35.16"/><path class="cls-2" d="M43.73,29.27l0-.05a10.85,10.85,0,0,0-5.94-.67l0,0a11.34,11.34,0,0,0-3.45,1.16,10.46,10.46,0,0,0-2.42,1.72v0a10.79,10.79,0,0,0-2.81,4.29s0,0,0,.05l-.15.44s0,0,0,.05-.1.32-.15.5c0,0,0,0,0,.07a1.7,1.7,0,0,1-.1.37,2.56,2.56,0,0,1-.05.27c0,.07,0,.12,0,.2s0,.22,0,.32a.25.25,0,0,1,0,.12,11.25,11.25,0,0,0,1.23,6.56,11.07,11.07,0,1,0,14-15.41ZM49,34.5a11,11,0,0,1,1.11,3.37l-.35-.32-.12.77-1,.12L47.6,37l.1-.69-.4-.5-.29-2-.2-1.14-.67-.49-.29-.35.59-.32-1-.71-.79-.15-.59-.81A10.73,10.73,0,0,1,49,34.5ZM34.48,30a10.73,10.73,0,0,1,3.65-1.16l.61.49-.22.59L39.61,31l.07.5.84.07L40,32l-1.46-.39-1.67,2-.69.89,0,1.06-.67-.89-1.75.52-.79,1.21.3.81L34.55,37l.77.83-.1.79.69.18,1-.55,1.75.45,1.65.66,1.38,0,.72,1.21,1.58.54,1.28,1-.72,1-.81,2-1,.2-.42,1.18-1.55,1.28-1,.2-.35,1,0,.64.55.3-1.16-.3-.4-.76.18-3.36-.32-1.06-1.16-.69-.89-1.43V39.7l-.74-.27L34.65,39l-.39-.64-.77-.44-.49.19-1.41-1.16L30.9,35.7l-.17-1.92.86-1.58v0A11.71,11.71,0,0,1,34.48,30Z"/></svg>