<?xml version="1.0" encoding="utf-8"?>
<!-- Generator: Adobe Illustrator 23.0.1, SVG Export Plug-In . SVG Version: 6.00 Build 0)  -->
<svg version="1.1" id="Слой_1" xmlns="http://www.w3.org/2000/svg" xmlns:xlink="http://www.w3.org/1999/xlink" x="0px" y="0px"
	 viewBox="28 32 23 15" style="enable-background:new 0 0 79 79;" xml:space="preserve">
<style type="text/css">
	.st0{fill:#153F53;}
</style>
<title>Иконки__</title>
<path class="st0" d="M31.72,38.24c-2.06,0.27-3.61,2.03-3.61,4.1c0,2.28,1.86,4.14,4.14,4.14h15.31c1.84,0,3.33-1.49,3.33-3.33
	c0-1.65-1.24-3.07-2.87-3.29c-0.22-0.03-0.38-0.22-0.38-0.44c0-0.02,0-0.04,0-0.04c0-1.84-1.49-3.33-3.33-3.33
	c-0.44,0-0.87,0.09-1.27,0.25c-0.11,0.05-0.24,0.04-0.35,0c-0.11-0.05-0.2-0.14-0.24-0.26c-0.75-2.12-2.77-3.54-5.02-3.54
	c-2.92,0-5.31,2.38-5.32,5.3C32.1,38.03,31.94,38.22,31.72,38.24L31.72,38.24z"/>
</svg>
