<svg id="Слой_1" data-name="Слой 1" xmlns="http://www.w3.org/2000/svg" viewBox="0 0 79 79"><defs><style>.cls-1{fill:#153f53;}.cls-2{fill:#fff;}</style></defs><title>Иконка_01</title><circle class="cls-1" cx="39.5" cy="39.5" r="35.16"/><path class="cls-2" d="M41,40.56c-1.08-.89-.85-1.43-.13-2h-3c-1.33,1.16-1.19,2.38-.55,2.86,1.12.85,2.89,1.84-1.12,3.77a9.32,9.32,0,0,0-4.25,4.87.41.41,0,0,0,.37.54l8.71,0a.42.42,0,0,0,.34-.62c-.55-.88-1.16-2.61,1-4.08,4.39-3,.44-3.94-1.4-5.4Z"/><path class="cls-2" d="M54.8,35.69H54l-5.17-5.81v-.41a1.13,1.13,0,0,0-1.12-1.12,1.11,1.11,0,0,0-1,.85,13.82,13.82,0,0,1-7.38,2,13.53,13.53,0,0,1-6.94-1.77,1.11,1.11,0,0,0-1.12-1.09,1.13,1.13,0,0,0-1.12,1.12v.41L25,35.69H24.2a.85.85,0,0,0,0,1.7h5.95v4a1.12,1.12,0,0,0,2.24,0v-4H46.64v4a1.13,1.13,0,0,0,2.25,0v-4H54.8a.85.85,0,0,0,0-1.7ZM43.51,31.78v3.91H41.44v-3.5a10.4,10.4,0,0,0,2.07-.41Zm-2.95.51v3.4H38.48v-3.4c.27,0,.55,0,.85,0A7.23,7.23,0,0,0,40.56,32.29Zm-3,3.4H35.49V31.88a19.89,19.89,0,0,0,2.07.38Zm-11.12,0,3.68-4.15v4.15Zm5.92-5a12.38,12.38,0,0,0,2.24.92v4H32.36Zm12,5V31.51a15.53,15.53,0,0,0,2.24-1v5.21H44.4Zm4.45-4.11,3.68,4.15H48.85Z"/></svg>