<svg id="Слой_1" data-name="Слой 1" xmlns="http://www.w3.org/2000/svg" viewBox="0 0 79 79"><defs><style>.cls-1{fill:#153f53;}.cls-2{fill:#fff;fill-rule:evenodd;}</style></defs><title>Иконка_01</title><circle class="cls-1" cx="39.5" cy="39.5" r="35.16"/><path class="cls-2" d="M52.4,33.81v9.86a.76.76,0,0,1-.76.76h-.86a2.68,2.68,0,0,0,.1-.76A3,3,0,0,0,46,41.3,3,3,0,0,0,41,43.67a3.1,3.1,0,0,0,.09.76H34.48a3.1,3.1,0,0,0,.09-.76,3,3,0,0,0-6.07,0,3.1,3.1,0,0,0,.1.76H27.36a.76.76,0,0,1-.75-.76V38a.85.85,0,0,1,.06-.31l1.9-4.17a.76.76,0,0,1,.69-.45H51.64a.76.76,0,0,1,.76.76Zm-22.65.76L28.2,38h3.16l1.69-.84V34.57Zm21.13,2.28V34.57H34.57v2.28ZM31.54,46a2.28,2.28,0,1,1,2.27-2.28A2.28,2.28,0,0,1,31.54,46Zm0-1.52a.76.76,0,0,0,.76-.76.76.76,0,0,0-1.52,0A.76.76,0,0,0,31.54,44.43Zm14.41-2a2.28,2.28,0,1,1,0,2.51,2.28,2.28,0,1,1,0-2.51Zm1.9,2a.75.75,0,0,0,.75-.76.74.74,0,0,0-.75-.75.75.75,0,0,0-.76.75A.76.76,0,0,0,47.85,44.43Zm-3.8,0a.76.76,0,0,0,.76-.76.76.76,0,0,0-1.52,0A.76.76,0,0,0,44.05,44.43Z"/></svg>