<svg id="Слой_1" data-name="Слой 1" xmlns="http://www.w3.org/2000/svg" viewBox="0 0 79 79"><defs><style>.cls-1{fill:#153f53;}.cls-2{fill:#fff;}</style></defs><title>Иконка_01</title><circle class="cls-1" cx="39.5" cy="39.5" r="35.16"/><path class="cls-2" d="M48.27,33.18c.16-.33.5-.58.41-1.08A14.91,14.91,0,0,0,48,30.27l-9.54,5.9-.17.08-.08.08,2,4.73c.33.58.75.5,1.16.08.66-.58,5-4.48,6.47-5.89.34-.33.42-.5.34-.91a2.49,2.49,0,0,1,.08-1.16ZM47.77,32l-8.13,5.14a.28.28,0,0,0-.17.08.44.44,0,0,1-.33-.16c-.08-.17-.08-.42.08-.5l8.14-5.23c.16-.08.41-.08.49.08A.51.51,0,0,1,47.77,32Z"/><path class="cls-2" d="M47.69,30l-9.46,6-.09-.17H29.6l1.07,4.9a.08.08,0,0,1-.08.08l-.41.25v.08l-.58.25c-.09.09-.17,0-.25-.08l-1.17-5.48a.67.67,0,0,1,.34-.74l12.11-5.56S45.53,29.19,47.69,30Z"/><path class="cls-2" d="M36.4,39.32a1.5,1.5,0,0,1-3,0,.71.71,0,0,1,.09-.42.93.93,0,0,0,1.57-.66,1.22,1.22,0,0,0-.16-.5H35A1.62,1.62,0,0,1,36.4,39.32Z"/><path class="cls-2" d="M39.89,41.31l-.5-1.08-1.66-3.9H30.26l1,4.23a.58.58,0,0,1-.34.67l.25,1.08a.18.18,0,0,0,.17.16H39.8c.09,0,.09,0,.17-.08l.66-.58A1,1,0,0,1,39.89,41.31Zm-2.24.17-5-.25a.18.18,0,0,1-.17-.17l-.41-3.73c0-.17.08-.25.24-.25l5.07.08c.08,0,.16.08.25.17l.41,3.81C37.81,41.39,37.73,41.48,37.65,41.48Z"/><path class="cls-2" d="M36.4,39.32a1.5,1.5,0,0,1-3,0,.71.71,0,0,1,.09-.42.93.93,0,0,0,1.57-.66,1.22,1.22,0,0,0-.16-.5H35A1.62,1.62,0,0,1,36.4,39.32Z"/><path class="cls-2" d="M36.4,39.32a1.5,1.5,0,0,1-3,0,.71.71,0,0,1,.09-.42.93.93,0,0,0,1.57-.66,1.22,1.22,0,0,0-.16-.5H35A1.62,1.62,0,0,1,36.4,39.32Z"/><path class="cls-2" d="M50.34,43.55l-3.23-.5a.42.42,0,0,0-.5.42v2h-.25a7.88,7.88,0,0,1-1.41.08,7.88,7.88,0,0,1-1.33-.08v-1a.22.22,0,0,0-.25-.25h-3.9a.22.22,0,0,0-.25.25v2a2,2,0,0,0,2,2h.58a2,2,0,0,0,1.83-1.25A8.88,8.88,0,0,1,45,47.12a9.24,9.24,0,0,1,1.49.08h.25v1.41a.39.39,0,0,0,.34.42l3.23.5a.42.42,0,0,0,.5-.42V43.8C50.67,43.72,50.51,43.55,50.34,43.55Z"/><path class="cls-2" d="M43.37,40.23v3.4h-4v-.24h.08a1.24,1.24,0,0,0,.5-.17s2.82-2.49,3.24-2.91C43.29,40.31,43.29,40.23,43.37,40.23Z"/></svg>