<svg id="Слой_1" data-name="Слой 1" xmlns="http://www.w3.org/2000/svg" viewBox="0 0 79 79"><defs><style>.cls-1{fill:#153f53;}.cls-2{fill:#fff;}</style></defs><title>Иконка_01</title><circle class="cls-1" cx="39.5" cy="39.5" r="35.16"/><path class="cls-2" d="M42.4,28.27a.79.79,0,0,0-.23,0,2.36,2.36,0,0,0-.44.11c-.3.09-.64.22-1,.35s-.65.26-.91.35a2.89,2.89,0,0,1-.35.1h0a2.89,2.89,0,0,1-.35-.1l-.91-.35c-.33-.13-.67-.25-1-.35a3.54,3.54,0,0,0-.44-.11.85.85,0,0,0-.55,0,1,1,0,0,0-.48.29l-.3.33c-.2.24-.42.53-.63.82s-.41.58-.57.79l-.24.27a3,3,0,0,1-.35.11l-1,.19c-.35.08-.7.15-1,.23a3.58,3.58,0,0,0-.43.15.9.9,0,0,0-.46.31.87.87,0,0,0-.24.49,3.25,3.25,0,0,0-.08.45c0,.31-.07.67-.09,1s0,.7-.05,1,0,.28-.06.36l-.23.28-.7.68c-.26.25-.51.5-.73.74a4.29,4.29,0,0,0-.28.35.9.9,0,0,0-.22.51.86.86,0,0,0,.07.55,3.56,3.56,0,0,0,.17.41c.14.29.32.61.49.92l.48.85a3.54,3.54,0,0,1,.14.33h0c0,.08,0,.23,0,.36s-.14.61-.22.95-.16.7-.21,1a2.38,2.38,0,0,0,0,.45.92.92,0,0,0,.08.55,1,1,0,0,0,.36.42,2.55,2.55,0,0,0,.38.26c.26.17.58.33.9.5l.86.46.3.2a3.47,3.47,0,0,1,.16.33l.33.92c.12.33.24.67.37,1a3.11,3.11,0,0,0,.2.41,1,1,0,0,0,.37.41,1,1,0,0,0,.53.17h.45c.32,0,.68,0,1-.06l1-.09a1.89,1.89,0,0,1,.35,0,2.37,2.37,0,0,1,.31.19l.78.6c.28.21.57.43.83.61l.39.23a1,1,0,0,0,.54.14,1,1,0,0,0,.53-.14l.39-.23c.26-.18.55-.4.83-.61l.78-.6a3.35,3.35,0,0,1,.3-.19h.37l1,.08c.35,0,.71.06,1,.07a3.31,3.31,0,0,0,.45,0,.94.94,0,0,0,.53-.16,1,1,0,0,0,.37-.42,3.73,3.73,0,0,0,.2-.4c.13-.29.25-.63.37-1s.23-.67.33-.92a2.58,2.58,0,0,1,.16-.33,2.21,2.21,0,0,1,.3-.2l.86-.46c.32-.17.63-.34.9-.5s.26-.17.37-.26a.92.92,0,0,0,.36-.42,1.06,1.06,0,0,0,.09-.56c0-.14,0-.29,0-.44-.05-.31-.13-.67-.21-1l-.22-.95a3.5,3.5,0,0,1-.05-.37l.15-.32c.13-.24.3-.55.48-.86s.35-.62.48-.91a3.12,3.12,0,0,0,.18-.42.91.91,0,0,0,.07-.54.9.9,0,0,0-.23-.51,4.39,4.39,0,0,0-.28-.36c-.21-.23-.47-.48-.72-.73l-.7-.68c-.1-.1-.19-.22-.24-.28s0-.22,0-.36,0-.62-.06-1,0-.72-.08-1c0-.16,0-.31-.08-.45a1,1,0,0,0-.24-.5,1,1,0,0,0-.46-.31,4.56,4.56,0,0,0-.44-.14c-.3-.08-.65-.16-1-.23l-1-.19a2.74,2.74,0,0,1-.34-.11h0a2.36,2.36,0,0,1-.24-.27c-.17-.21-.37-.5-.58-.79s-.42-.58-.63-.82a3.26,3.26,0,0,0-.31-.33,1,1,0,0,0-.47-.3,1.06,1.06,0,0,0-.32,0ZM36.16,35a2.26,2.26,0,1,1-2.25,2.26A2.27,2.27,0,0,1,36.16,35Zm5.15.14h0a.71.71,0,0,1,.69.6.65.65,0,0,1-.09.47l-3.57,6.19a.75.75,0,0,1-.43.35.76.76,0,0,1-.55-.07.77.77,0,0,1-.33-.44.68.68,0,0,1,.08-.54l3.57-6.19a.78.78,0,0,1,.27-.27.65.65,0,0,1,.36-.1Zm-5.15,1.28a.84.84,0,1,0,.84.84A.83.83,0,0,0,36.16,36.39Zm6.7,2.66a2.26,2.26,0,1,1-2.26,2.26A2.27,2.27,0,0,1,42.86,39.05Zm0,1.42a.84.84,0,1,0,.84.84A.83.83,0,0,0,42.86,40.47Z"/></svg>