<svg id="Слой_1" data-name="Слой 1" xmlns="http://www.w3.org/2000/svg" viewBox="0 0 79 79"><defs><style>.cls-1{fill:#153f53;}.cls-2{fill:#fff;fill-rule:evenodd;}</style></defs><title>Иконка_01</title><circle class="cls-1" cx="39.5" cy="39.5" r="35.16"/><path class="cls-2" d="M34.52,35.62l-.36-.5.36-.29.36-.07v5.89h1.44v.65c-1.37.64-1.51,1.94-1.73,3.38-1.44,10.85-11.28,1.51-3.3-2.38,1.15-.57,1.94-1,1.58-3.16l.36-.14c-.65-2.16-.44-1.65,1.29-3.38Zm3.23-2.87H39v2.44H37.75Zm1.8,0h1.22v2.44H39.55Zm1.87,0h1.22v2.44H41.42Zm1.8,0h1.22v2.44H43.22Zm1.86,0h1.23v2.44H45.08Zm-7.33,3H39v2.45H37.75Zm1.8,0h1.22v2.45H39.55Zm1.87,0h1.22v2.45H41.42Zm1.8,0h1.22v2.45H43.22Zm1.86,0h1.23v2.45H45.08Zm-8.69-5.39H47.67v1.87H36.39Zm-1.51,3.45a1.84,1.84,0,0,0-1.29.58L33.15,34c-2.8,2.51-2.37,1.58-1.36,5.46l.43-.14c.29,1.65-.36,2-1.22,2.44-9.13,4.46,2.59,15.24,4.24,3,.14-1.08.29-2.16,1.08-2.66v9H47.74V40.65h1.44V27.93H34.88v5.89Zm13.37-5H35.81V39.72H48.25Z"/></svg>