<svg id="Слой_1" data-name="Слой 1" xmlns="http://www.w3.org/2000/svg" viewBox="0 0 79 79"><defs><style>.cls-1{fill:#153f53;}.cls-2{fill:#fff;fill-rule:evenodd;}</style></defs><title>Иконка_01</title><circle class="cls-1" cx="39.5" cy="39.5" r="35.16"/><path class="cls-2" d="M33.47,40.53A2.65,2.65,0,0,1,31,36.34s.07.11.1.14l2.24,3.89a1.58,1.58,0,0,1,.1.16Zm-2.1,7.57,4.43-2.53c.91-.54,0-2.5,3.92-5.24a1.83,1.83,0,0,0-2.1-.44l-1.32.78A1.75,1.75,0,0,1,33.94,40l-2.23-3.89a1.73,1.73,0,0,1,.64-2.36l4.56-2.64,4.8,8.31a2,2,0,0,0,.81-.1c.41-.23.27-.17.71-.44,1.42-.81,2.54.88,1.59,1.46,1-.58,2,1.28,1,1.89.88-.51,1.86,1.25.71,1.92,1-.23,1.82,1.22.34,2l-5.37,3.11-.88.51-6.15,3.55L31.37,48.1Zm5.1-16c.44-.27.85.44.41.71L33,35.09a.41.41,0,0,1-.4-.71ZM39,31.58a.4.4,0,1,1-.41-.68,5.21,5.21,0,0,0,2-2.26,8,8,0,0,1,1.55-2.13.42.42,0,0,1,.58.61,6.33,6.33,0,0,0-1.42,1.93A5.84,5.84,0,0,1,39,31.58Zm-1.42-.81c2.7-1.59,3-3.92,4.39-4.93.58-.44.81-.11,1,.27,1.75,3,3.54,6.11,5.3,9.19.2.33.37.71-.27,1-1.55.71-3.75-.21-6.49,1.35l-3.95-6.86Z"/></svg>