<svg id="Слой_1" data-name="Слой 1" xmlns="http://www.w3.org/2000/svg" viewBox="0 0 79 79"><defs><style>.cls-1{fill:#153f53;}.cls-2{fill:#fff;}</style></defs><title>Иконка_01</title><circle class="cls-1" cx="39.5" cy="39.5" r="35.16"/><path class="cls-2" d="M38.79,43v4.71H34V43l0,0,0,0h4.69a.06.06,0,0,1,.06.06Z"/><path class="cls-2" d="M41.54,29.81a.47.47,0,0,0-.41-.08l-9.74,2.73a.46.46,0,0,0-.34.44V47.74h2.62V43a.38.38,0,0,1,.37-.37h4.69a.37.37,0,0,1,.37.37v4.71h2.62V30.18a.46.46,0,0,0-.18-.37ZM40.46,41.35h0a.39.39,0,0,1-.39.39H32.71a.39.39,0,0,1-.4-.39V40a.4.4,0,0,1,.4-.4h7.36a.44.44,0,0,1,.28.12.39.39,0,0,1,.11.28Zm0-3.07h0a.38.38,0,0,1-.39.39H32.71a.39.39,0,0,1-.4-.39V37h0a.4.4,0,0,1,.4-.4h7.36a.39.39,0,0,1,.39.4Zm0-3.07h0a.4.4,0,0,1-.39.39H32.71a.39.39,0,0,1-.4-.39V33.88a.4.4,0,0,1,.4-.39h7.36a.39.39,0,0,1,.28.12.39.39,0,0,1,.11.27Z"/><path class="cls-2" d="M48.2,33.71a.35.35,0,0,0-.3-.05L42,35.3V47.74h6.31V34a.35.35,0,0,0-.14-.28Zm-.85,12.75h0a.39.39,0,0,1-.11.28.43.43,0,0,1-.28.11H43.42a.38.38,0,0,1-.39-.39V45.14a.39.39,0,0,1,.39-.4H47a.39.39,0,0,1,.39.4Zm0-2.93h0a.4.4,0,0,1-.39.39H43.42a.39.39,0,0,1-.39-.39V42.2a.39.39,0,0,1,.39-.39H47a.39.39,0,0,1,.39.39Zm0-2.94h0a.39.39,0,0,1-.11.28A.44.44,0,0,1,47,41H43.42a.4.4,0,0,1-.39-.4V39.27a.38.38,0,0,1,.39-.39H47a.39.39,0,0,1,.39.39Zm0-2.93h0a.38.38,0,0,1-.39.39H43.42a.38.38,0,0,1-.39-.39V36.33a.39.39,0,0,1,.11-.27.36.36,0,0,1,.28-.12H47a.39.39,0,0,1,.28.12.39.39,0,0,1,.11.27Z"/><path class="cls-2" d="M49.09,48.67c0,.3-.08.62-.3.62H30.22c-.23,0-.31-.32-.31-.62s.08-.61.31-.61H48.79c.22,0,.3.32.3.61Z"/></svg>