<svg id="Слой_1" data-name="Слой 1" xmlns="http://www.w3.org/2000/svg" viewBox="0 0 79 79"><defs><style>.cls-1{fill:#153f53;}</style></defs><title>Иконки__</title><path class="cls-1" d="M39.5,22.66a16.85,16.85,0,1,0,11.38,4.43h0A16.77,16.77,0,0,0,39.5,22.66m0,2a3,3,0,0,1,2.09,1,9.57,9.57,0,0,1,2,3.08c.14.31.27.62.39,1a17.18,17.18,0,0,1-4.53.6A16.91,16.91,0,0,1,35,29.66q.2-.51.39-1a9.91,9.91,0,0,1,2.06-3.08,3,3,0,0,1,2.09-1m4.48.69a14.62,14.62,0,0,1,4.58,2.39A17.9,17.9,0,0,1,45.93,29c-.16-.4-.31-.77-.49-1.15A12.7,12.7,0,0,0,44,25.33m-9,0a13.53,13.53,0,0,0-1.47,2.55c-.16.38-.32.75-.47,1.15a17.42,17.42,0,0,1-2.63-1.31A14.36,14.36,0,0,1,35,25.33m15.09,3.75a14.83,14.83,0,0,1,4.21,9.43H47.61a31.85,31.85,0,0,0-1.08-7.59,19.24,19.24,0,0,0,3.58-1.84m-21.21,0a18.85,18.85,0,0,0,3.57,1.84,31.35,31.35,0,0,0-1.08,7.59H24.68a14.84,14.84,0,0,1,4.22-9.43m5.45,2.47a19.1,19.1,0,0,0,5.15.71,19.39,19.39,0,0,0,5.15-.7,30.55,30.55,0,0,1,1,7H33.37a29.56,29.56,0,0,1,1-7m-9.67,8.93h6.71a31.19,31.19,0,0,0,1.08,7.58,19.49,19.49,0,0,0-3.57,1.85,14.78,14.78,0,0,1-4.22-9.43m8.69,0H45.63a30.17,30.17,0,0,1-1,7,19.33,19.33,0,0,0-10.31,0,30.2,30.2,0,0,1-1-7m14.24,0h6.71a14.83,14.83,0,0,1-4.21,9.43,19.28,19.28,0,0,0-3.58-1.85,31.76,31.76,0,0,0,1.08-7.58M39.5,48.72a17.13,17.13,0,0,1,4.53.61,9.34,9.34,0,0,1-.39,1,9.91,9.91,0,0,1-2,3.08,2.74,2.74,0,0,1-4.18,0,10.28,10.28,0,0,1-2.06-3.08c-.13-.3-.26-.63-.39-1a17.31,17.31,0,0,1,4.54-.61M45.92,50a17.64,17.64,0,0,1,2.64,1.33A14.62,14.62,0,0,1,44,53.67a12.52,12.52,0,0,0,1.46-2.56c.18-.37.33-.76.48-1.16M33.08,50c.15.4.31.79.47,1.16A13.62,13.62,0,0,0,35,53.67a14.56,14.56,0,0,1-4.57-2.39A18.53,18.53,0,0,1,33.08,50"/></svg>