<?xml version="1.0" encoding="utf-8"?>
<!-- Generator: Adobe Illustrator 23.0.1, SVG Export Plug-In . SVG Version: 6.00 Build 0)  -->
<svg version="1.1" id="Слой_1" xmlns="http://www.w3.org/2000/svg" xmlns:xlink="http://www.w3.org/1999/xlink" x="0px" y="0px"
	 viewBox="0 0 1400 768" style="enable-background:new 0 0 1400 768;" xml:space="preserve">
<style type="text/css">
	.st0{fill:none;stroke:#153F53;stroke-miterlimit:10;}
</style>
<path class="st0" d="M177.46,521.89c29.16,23.62,67.99,38.38,109.23,44.28c68.74,9.84,144.2-4.92,192.8-44.29l25.16-20.38
	c77.76-62.98,224.27-62.99,302.03-0.01l25.2,20.41c38.88,31.49,94.94,47.23,151.01,47.23c56.07,0,112.13-15.74,151.01-47.23"/>
<path class="st0" d="M147.59,457.1c29.16,45.44,67.99,73.84,109.23,85.19c68.74,18.93,144.2-9.47,192.8-85.2l25.16-39.21
	c77.76-121.16,224.27-121.17,302.03-0.01l25.2,39.26C840.89,517.72,896.96,548,953.02,548s112.13-30.29,151.01-90.86"/>
<path class="st0" d="M297.37,439.08c29.16,87.67,67.99,142.47,109.23,164.39C475.34,640,550.8,585.2,599.4,439.08l25.16-75.65
	c77.76-233.79,224.27-233.81,302.03-0.02l25.2,75.76c38.88,116.89,94.94,175.33,151.01,175.33s112.13-58.44,151.01-175.33"/>
</svg>
