<svg id="Слой_1" data-name="Слой 1" xmlns="http://www.w3.org/2000/svg" viewBox="0 0 226.77 116.37"><defs><style>.cls-1{fill:#fff;}</style></defs><title>logo</title><path class="cls-1" d="M54.46,92.36c6.53,4.1,14.19,6,21.77,6.54a65.13,65.13,0,0,0,11.43-.1,55.62,55.62,0,0,0,11.17-2.19,39.62,39.62,0,0,0,10.25-4.72l4.77-3.23,2.52-1.52c.85-.48,1.75-.87,2.63-1.3a51.89,51.89,0,0,1,11.14-3.45,71.59,71.59,0,0,1,11.59-1.08,71.38,71.38,0,0,1,11.59,1.08,52,52,0,0,1,11.15,3.45c.87.44,1.77.82,2.63,1.3l2.51,1.52,4.77,3.23a34.82,34.82,0,0,0,4.94,2.72,42.94,42.94,0,0,0,5.31,2,61.55,61.55,0,0,0,22.61,2.29c7.58-.59,15.23-2.45,21.76-6.54a38.43,38.43,0,0,1-10.37,5,57.55,57.55,0,0,1-11.33,2.32,62.52,62.52,0,0,1-23-1.9A38.7,38.7,0,0,1,173.64,93l-4.79-3.2-2.42-1.44c-.82-.46-1.7-.82-2.54-1.24a50.14,50.14,0,0,0-10.83-3.27,65.6,65.6,0,0,0-22.65,0,50.42,50.42,0,0,0-10.84,3.28c-.84.41-1.71.78-2.54,1.23l-2.42,1.45L109.82,93a38.22,38.22,0,0,1-10.65,4.74,56.26,56.26,0,0,1-11.43,2,64.9,64.9,0,0,1-11.58-.12,57.29,57.29,0,0,1-11.32-2.31A37.79,37.79,0,0,1,54.46,92.36Z" transform="translate(-28.35 -25.27)"/><path class="cls-1" d="M54.46,83.52a36.7,36.7,0,0,0,9.67,8.38,33.26,33.26,0,0,0,11.92,4.31l.78.14.79.08,1.58.17,1.59.06.79,0,.79,0A32.83,32.83,0,0,0,100.18,91a36.72,36.72,0,0,0,9-8.69l3.91-5.14a41.37,41.37,0,0,1,4.42-5,35.13,35.13,0,0,1,48.39,0,40.44,40.44,0,0,1,4.41,5l3.91,5.14a37.3,37.3,0,0,0,9,8.7,33.52,33.52,0,0,0,24.13,5.19,33.94,33.94,0,0,0,11.92-4.33,36.59,36.59,0,0,0,5.19-3.75A42.51,42.51,0,0,0,229,83.53a34.47,34.47,0,0,1-46.69,9,37,37,0,0,1-9.66-9l-4-5.09a39.59,39.59,0,0,0-4.23-4.63,33.29,33.29,0,0,0-45.41,0,39.67,39.67,0,0,0-4.24,4.63l-4,5.09c-.65.85-1.41,1.7-2.1,2.55s-1.51,1.61-2.33,2.36-1.63,1.49-2.53,2.13c-.44.33-.88.68-1.32,1l-1.39.9a35.39,35.39,0,0,1-12.22,4.86,35.94,35.94,0,0,1-6.55.59h-.82l-.82,0-1.64-.1-1.63-.22-.81-.1-.81-.18A34.85,34.85,0,0,1,54.46,83.52Z" transform="translate(-28.35 -25.27)"/><path class="cls-1" d="M54.46,65.35a82.88,82.88,0,0,0,3.77,7.47,56.6,56.6,0,0,0,4.61,6.92,39,39,0,0,0,5.71,5.92,23.19,23.19,0,0,0,7,4.08l.94.32a5.57,5.57,0,0,0,1,.29l1.94.4,2,.15c.65,0,1.31-.06,2-.08a19.31,19.31,0,0,0,7.43-2.43,30.33,30.33,0,0,0,6.24-5l1.33-1.52.67-.76.61-.81,1.22-1.62c.39-.55.74-1.13,1.11-1.7s.76-1.13,1.09-1.72l1-1.79c.7-1.17,1.25-2.42,1.85-3.65s1.11-2.5,1.65-3.76,1-2.56,1.54-3.86l3-7.81c.49-1.3,1.06-2.62,1.6-3.94s1.18-2.6,1.8-3.9a51.3,51.3,0,0,1,10-14.11,28.9,28.9,0,0,1,7.34-5.11,19.93,19.93,0,0,1,17.81,0A29.42,29.42,0,0,1,158,32.48,51.6,51.6,0,0,1,168,46.6c.61,1.29,1.24,2.58,1.79,3.9s1.11,2.64,1.6,3.94l3.05,7.81c.5,1.3,1,2.61,1.54,3.86l.79,1.9.86,1.86c.54,1.26,1.22,2.44,1.83,3.66l1,1.77.51.88.56.85a40.15,40.15,0,0,0,5,6.39,28.26,28.26,0,0,0,6.22,5,18.45,18.45,0,0,0,7.43,2.43A17.53,17.53,0,0,0,208,89.75a24,24,0,0,0,6.94-4.09,38.11,38.11,0,0,0,5.71-5.92,54.75,54.75,0,0,0,4.61-6.92A79,79,0,0,0,229,65.36a64.46,64.46,0,0,1-7.54,15,36.11,36.11,0,0,1-5.58,6.41,25.89,25.89,0,0,1-7.22,4.72A19.4,19.4,0,0,1,200,93a20.73,20.73,0,0,1-8.48-2.42,29.61,29.61,0,0,1-7-5.24,43.8,43.8,0,0,1-5.5-6.68l-.61-.89-.56-.91-1.13-1.84c-.67-1.26-1.42-2.48-2-3.78l-.94-1.92-.85-2c-.58-1.32-1.1-2.6-1.63-3.9l-3.17-7.76c-.52-1.31-1.07-2.54-1.62-3.8s-1.17-2.46-1.76-3.69a64.06,64.06,0,0,0-4.19-7,42,42,0,0,0-5.19-6.07,25.38,25.38,0,0,0-6.37-4.4,16.5,16.5,0,0,0-14.57,0,25.61,25.61,0,0,0-6.38,4.4,42.62,42.62,0,0,0-5.19,6.07,64,64,0,0,0-4.18,7c-.6,1.22-1.22,2.44-1.77,3.69s-1.1,2.49-1.62,3.8l-3.17,7.76c-.53,1.29-1,2.58-1.64,3.89s-1.1,2.63-1.79,3.89-1.27,2.55-2,3.77l-1.1,1.85c-.37.61-.8,1.19-1.19,1.79s-.8,1.2-1.24,1.77l-1.34,1.69-.67.85-.74.8-1.48,1.59a31.59,31.59,0,0,1-7,5.22A21.63,21.63,0,0,1,83.44,93c-.75,0-1.49.07-2.23,0L79,92.78l-2.14-.53a20.22,20.22,0,0,1-2.06-.76,24.82,24.82,0,0,1-7.23-4.7A37.82,37.82,0,0,1,62,80.37,64.43,64.43,0,0,1,54.46,65.35Z" transform="translate(-28.35 -25.27)"/><path class="cls-1" d="M102.91,134.07a.79.79,0,0,1,.8.79.79.79,0,0,1-.23.57.81.81,0,0,1-.57.23H98v4.85a.79.79,0,0,1-.8.79.79.79,0,0,1-.79-.79v-4.85h-5a.84.84,0,0,1-.52-.26.8.8,0,0,1,0-1.1.75.75,0,0,1,.56-.23Z" transform="translate(-28.35 -25.27)"/><path class="cls-1" d="M105.37,134.86a.77.77,0,0,1,.23-.56.75.75,0,0,1,.57-.23h11.76a.79.79,0,0,1,.8.79.79.79,0,0,1-.23.57.81.81,0,0,1-.57.23H106.17a.79.79,0,0,1-.8-.8Zm2,6.44a2,2,0,0,1-.73-.15,2.21,2.21,0,0,1-.64-.44,2.36,2.36,0,0,1-.47-.68,2.19,2.19,0,0,1-.18-.9v-1.49a.62.62,0,0,1,.26-.6,1.64,1.64,0,0,1,.8-.15h11.14a.77.77,0,0,1,.56.23.81.81,0,0,1,0,1.13.77.77,0,0,1-.56.23H107v.81a.41.41,0,0,0,.14.3.58.58,0,0,0,.38.12h10.45a.79.79,0,0,1,.8.8.79.79,0,0,1-.8.79Z" transform="translate(-28.35 -25.27)"/><path class="cls-1" d="M127,136.16a2.32,2.32,0,0,0-.27-.29.49.49,0,0,0-.72,0,4,4,0,0,0-.29.29l-3.86,5.16a.73.73,0,0,1-.63.31.75.75,0,0,1-.57-.23.77.77,0,0,1-.23-.56.6.6,0,0,1,.07-.3l.16-.27,4-5.39a2.14,2.14,0,0,1,.73-.6,2.23,2.23,0,0,1,1-.21,2.14,2.14,0,0,1,1,.24,2.06,2.06,0,0,1,.74.62l4,5.41,0,0a.65.65,0,0,1,.16.48.77.77,0,0,1-.23.56.75.75,0,0,1-.56.23.7.7,0,0,1-.62-.29Z" transform="translate(-28.35 -25.27)"/><path class="cls-1" d="M133.93,134.86a.79.79,0,0,1,.8-.79H146.5a.75.75,0,0,1,.56.23.77.77,0,0,1,.23.56.79.79,0,0,1-.79.8H134.73a.81.81,0,0,1-.57-.23A.79.79,0,0,1,133.93,134.86Zm2,6.44a1.87,1.87,0,0,1-.73-.15,2.26,2.26,0,0,1-.65-.44,2.57,2.57,0,0,1-.47-.68,2.19,2.19,0,0,1-.18-.9v-1.49a.64.64,0,0,1,.26-.6,1.64,1.64,0,0,1,.8-.15h11.14a.77.77,0,0,1,.56.23.79.79,0,0,1,0,1.13.77.77,0,0,1-.56.23h-10.6v.81a.37.37,0,0,0,.14.3.53.53,0,0,0,.37.12H146.5a.79.79,0,0,1,.56.23.81.81,0,0,1,.23.57.77.77,0,0,1-.23.56.75.75,0,0,1-.56.23Z" transform="translate(-28.35 -25.27)"/><path class="cls-1" d="M150.54,136.89h3.84a6.44,6.44,0,0,0,1.69-.23,10.81,10.81,0,0,0,1.62-.58,13.79,13.79,0,0,0,1.51-.83c.48-.31.94-.63,1.39-.95a1.31,1.31,0,0,1,.28-.17.74.74,0,0,1,.28-.06.73.73,0,0,1,.56.23.74.74,0,0,1,.24.56.66.66,0,0,1-.14.41,1.3,1.3,0,0,1-.31.31l-.83.61c-.27.19-.53.37-.8.54s-.54.34-.82.49-.58.31-.9.46l.9.47c.28.15.56.32.82.49s.53.35.8.54l.83.61a1.3,1.3,0,0,1,.31.31.66.66,0,0,1,.14.41.74.74,0,0,1-.24.56.73.73,0,0,1-.56.23.74.74,0,0,1-.28-.06,1.31,1.31,0,0,1-.28-.17c-.46-.33-.93-.65-1.41-1a13.07,13.07,0,0,0-1.51-.83,9,9,0,0,0-1.6-.57,6.43,6.43,0,0,0-1.69-.22h-3.84v2a.73.73,0,0,1-.23.56.8.8,0,0,1-1.36-.56v-5.65a.74.74,0,0,1,.24-.56.73.73,0,0,1,.55-.23.77.77,0,0,1,.57.23.73.73,0,0,1,.23.56Z" transform="translate(-28.35 -25.27)"/><path class="cls-1" d="M177.1,137.68a4,4,0,0,1-.21,1.27,4,4,0,0,1-.6,1.17,3.44,3.44,0,0,1-1,.85,2.45,2.45,0,0,1-1.27.33h-7.57a2.22,2.22,0,0,1-1.21-.33,3.21,3.21,0,0,1-.91-.85,4,4,0,0,1-.57-1.17,4.42,4.42,0,0,1-.2-1.27,4.15,4.15,0,0,1,.21-1.26,3.82,3.82,0,0,1,.6-1.17,3.38,3.38,0,0,1,1-.85,2.52,2.52,0,0,1,1.28-.33h7.57a2.26,2.26,0,0,1,1.2.33,3.11,3.11,0,0,1,.92.85,4,4,0,0,1,.57,1.17A4.46,4.46,0,0,1,177.1,137.68Zm-3.4,2a1.88,1.88,0,0,0,.93-.21,1.65,1.65,0,0,0,.85-1.16,2.72,2.72,0,0,0,0-1.31,1.65,1.65,0,0,0-.85-1.16,1.88,1.88,0,0,0-.93-.21H167a1.84,1.84,0,0,0-.94.21,1.81,1.81,0,0,0-.56.5,1.76,1.76,0,0,0-.28.66,2.72,2.72,0,0,0,0,1.31,1.76,1.76,0,0,0,.28.66,1.81,1.81,0,0,0,.56.5,1.84,1.84,0,0,0,.94.21Z" transform="translate(-28.35 -25.27)"/><path class="cls-1" d="M192.77,140.51a.74.74,0,0,1-.24.56.73.73,0,0,1-.56.23.79.79,0,0,1-.8-.79v-3.62c0-.46,0-.68-.08-.68s-.2.15-.46.45L187,140.81a1.34,1.34,0,0,1-.53.37,1.87,1.87,0,0,1-.68.12,1.91,1.91,0,0,1-.68-.12,1.34,1.34,0,0,1-.53-.37l-3.65-4.15c-.26-.3-.41-.45-.47-.45s-.08.22-.08.68v3.62a.77.77,0,0,1-.23.56.81.81,0,0,1-1.13,0,.77.77,0,0,1-.23-.56v-4.85a1.75,1.75,0,0,1,.38-1.13,1.27,1.27,0,0,1,1.05-.46,1.25,1.25,0,0,1,.71.2,2.9,2.9,0,0,1,.58.48l3.82,4.35a1.39,1.39,0,0,0,.21.17.4.4,0,0,0,.25.09.43.43,0,0,0,.26-.09l.21-.17,3.8-4.35h0a1.81,1.81,0,0,1,.57-.5,1.49,1.49,0,0,1,.73-.18,1.26,1.26,0,0,1,1,.46,1.71,1.71,0,0,1,.39,1.13Z" transform="translate(-28.35 -25.27)"/><path class="cls-1" d="M47,115.42c.45-.29.91-.6,1.36-.92s.93-.67,1.42-1a2.47,2.47,0,0,0,.54-.53,1.12,1.12,0,0,0,.23-.69,1.37,1.37,0,0,0-1.36-1.37,1.14,1.14,0,0,0-.49.12,2.31,2.31,0,0,0-.48.28q-1.14.83-2.37,1.62a22.38,22.38,0,0,1-2.59,1.42,17.34,17.34,0,0,1-2.77,1,11.24,11.24,0,0,1-2.89.38H31.07v-3.46a1.3,1.3,0,0,0-.4-1,1.31,1.31,0,0,0-1-.4,1.37,1.37,0,0,0-1.35,1.37v9.65a1.3,1.3,0,0,0,.4,1,1.31,1.31,0,0,0,1,.4,1.37,1.37,0,0,0,1.35-1.37v-3.46h6.57a11.23,11.23,0,0,1,2.89.37,15.4,15.4,0,0,1,2.74,1,19.61,19.61,0,0,1,2.57,1.42c.84.54,1.64,1.09,2.42,1.66a2.31,2.31,0,0,0,.48.28,1.14,1.14,0,0,0,.49.12,1.37,1.37,0,0,0,1.36-1.37,1.12,1.12,0,0,0-.23-.69,2.47,2.47,0,0,0-.54-.53c-.49-.38-1-.73-1.42-1s-.91-.63-1.36-.92-.92-.57-1.41-.84-1-.53-1.55-.8c.55-.26,1.07-.53,1.55-.79S46.58,115.71,47,115.42Z" transform="translate(-28.35 -25.27)"/><path class="cls-1" d="M75.2,112.89a5.3,5.3,0,0,0-1.56-1.46,3.82,3.82,0,0,0-2.06-.57H58.63a4.23,4.23,0,0,0-2.19.57,5.9,5.9,0,0,0-1.65,1.46,6.6,6.6,0,0,0-1,2,6.87,6.87,0,0,0-.36,2.15,7.46,7.46,0,0,0,1.32,4.17,5.52,5.52,0,0,0,1.55,1.46,3.83,3.83,0,0,0,2.07.57h13a4.26,4.26,0,0,0,2.19-.57,5.73,5.73,0,0,0,1.64-1.46,6.63,6.63,0,0,0,1-2,7,7,0,0,0,.36-2.18,7.16,7.16,0,0,0-.35-2.15A6.71,6.71,0,0,0,75.2,112.89Zm-1.45,5.29a2.93,2.93,0,0,1-.48,1.12,3,3,0,0,1-1,.87,3.23,3.23,0,0,1-1.59.35H59.23a3.26,3.26,0,0,1-1.61-.35,3,3,0,0,1-1-.87,3.28,3.28,0,0,1-.48-1.12,4.93,4.93,0,0,1,0-2.25,3.28,3.28,0,0,1,.48-1.12,3,3,0,0,1,1-.87,3.26,3.26,0,0,1,1.61-.35H70.7a3.23,3.23,0,0,1,1.59.35,3,3,0,0,1,1,.87,2.93,2.93,0,0,1,.48,1.12,4.93,4.93,0,0,1,0,2.25Z" transform="translate(-28.35 -25.27)"/><path class="cls-1" d="M100.24,110.86a1.28,1.28,0,0,0-1,.4,1.3,1.3,0,0,0-.4,1v3.46H82.09v-3.46a1.3,1.3,0,0,0-.4-1,1.28,1.28,0,0,0-1-.4,1.31,1.31,0,0,0-1,.4,1.34,1.34,0,0,0-.4,1v9.65a1.34,1.34,0,0,0,.4,1,1.31,1.31,0,0,0,1,.4,1.28,1.28,0,0,0,1-.4,1.3,1.3,0,0,0,.4-1v-3.46H98.88v3.46a1.3,1.3,0,0,0,.4,1,1.28,1.28,0,0,0,1,.4,1.31,1.31,0,0,0,1-.4,1.3,1.3,0,0,0,.4-1v-9.65a1.3,1.3,0,0,0-.4-1A1.31,1.31,0,0,0,100.24,110.86Z" transform="translate(-28.35 -25.27)"/><path class="cls-1" d="M125.35,110.86H105.81a1.28,1.28,0,0,0-1,.4,1.3,1.3,0,0,0-.4,1,1.27,1.27,0,0,0,.37.92,1.43,1.43,0,0,0,.88.44h8.52v8.29a1.3,1.3,0,0,0,.4,1,1.28,1.28,0,0,0,1,.4,1.31,1.31,0,0,0,1-.4,1.34,1.34,0,0,0,.4-1v-8.29h8.4a1.3,1.3,0,0,0,1-.4,1.28,1.28,0,0,0,.4-1,1.37,1.37,0,0,0-1.37-1.37Z" transform="translate(-28.35 -25.27)"/><path class="cls-1" d="M151.06,110.86H130.92a1.28,1.28,0,0,0-1,.4,1.3,1.3,0,0,0-.4,1,1.37,1.37,0,0,0,1.36,1.36h20.14a1.37,1.37,0,0,0,1.37-1.36,1.34,1.34,0,0,0-.4-1A1.31,1.31,0,0,0,151.06,110.86Z" transform="translate(-28.35 -25.27)"/><path class="cls-1" d="M151.06,120.52H133.17a.93.93,0,0,1-.64-.21.65.65,0,0,1-.24-.5v-1.39h18.15a1.28,1.28,0,0,0,1-.4,1.36,1.36,0,0,0,0-1.93,1.28,1.28,0,0,0-1-.4H131.38A2.83,2.83,0,0,0,130,116a1.09,1.09,0,0,0-.44,1v2.56a3.61,3.61,0,0,0,.31,1.53,3.87,3.87,0,0,0,.8,1.16,3.38,3.38,0,0,0,1.11.76,3.08,3.08,0,0,0,1.24.27h18a1.31,1.31,0,0,0,1-.4,1.34,1.34,0,0,0,.4-1,1.37,1.37,0,0,0-1.37-1.36Z" transform="translate(-28.35 -25.27)"/><path class="cls-1" d="M176.15,110.86a1.31,1.31,0,0,0-1,.4,1.34,1.34,0,0,0-.4,1v3.46H158v-3.46a1.33,1.33,0,0,0-.39-1,1.38,1.38,0,0,0-1.94,0,1.33,1.33,0,0,0-.39,1v9.65a1.33,1.33,0,0,0,.39,1,1.38,1.38,0,0,0,1.94,0,1.33,1.33,0,0,0,.39-1v-3.46h16.79v3.46a1.34,1.34,0,0,0,.4,1,1.31,1.31,0,0,0,1,.4,1.37,1.37,0,0,0,1.36-1.37v-9.65a1.37,1.37,0,0,0-1.36-1.37Z" transform="translate(-28.35 -25.27)"/><path class="cls-1" d="M201.26,110.86H181.71a1.28,1.28,0,0,0-1,.4,1.3,1.3,0,0,0-.4,1,1.27,1.27,0,0,0,.37.92,1.46,1.46,0,0,0,.88.44h8.52v8.29a1.37,1.37,0,1,0,2.73,0v-8.29h8.41a1.37,1.37,0,0,0,1.36-1.36,1.3,1.3,0,0,0-.4-1A1.28,1.28,0,0,0,201.26,110.86Z" transform="translate(-28.35 -25.27)"/><path class="cls-1" d="M254.46,111.66a2.19,2.19,0,0,0-1.79-.8,2.66,2.66,0,0,0-1.25.31,3,3,0,0,0-1,.86h0l-6.5,7.44-.36.3a.72.72,0,0,1-.88,0l-.36-.3L235.8,112a5.19,5.19,0,0,0-1-.83,2.31,2.31,0,0,0-1.22-.34,2.19,2.19,0,0,0-1.79.8,2.92,2.92,0,0,0-.66,1.93v8.29a1.37,1.37,0,1,0,2.73,0v-6.19c0-.78,0-1.16.14-1.16s.36.25.8.76l6.25,7.11a2.3,2.3,0,0,0,.9.63,3,3,0,0,0,1.17.22,3,3,0,0,0,1.17-.22,2.3,2.3,0,0,0,.9-.63l6.25-7.11c.46-.51.72-.76.8-.76s.14.38.14,1.16v6.19a1.3,1.3,0,0,0,.4,1,1.28,1.28,0,0,0,1,.4,1.31,1.31,0,0,0,1-.4,1.34,1.34,0,0,0,.4-1v-8.29A2.92,2.92,0,0,0,254.46,111.66Z" transform="translate(-28.35 -25.27)"/><path class="cls-1" d="M226.48,111a1.3,1.3,0,0,0-1.3,1.3v3.61H210a.93.93,0,0,1-.61-.2.65.65,0,0,1-.23-.48v-2.93a1.24,1.24,0,0,0-.38-.92,1.26,1.26,0,0,0-.92-.38,1.3,1.3,0,0,0-1.3,1.3v2.6s0,0,0,.06h0a3.43,3.43,0,0,0,.3,1.46,3.58,3.58,0,0,0,.76,1.11,3.32,3.32,0,0,0,1.06.72,3,3,0,0,0,1.19.26h15.3v1.32a.61.61,0,0,1-.23.48.89.89,0,0,1-.6.2H207.85a1.24,1.24,0,0,0-.92.38,1.3,1.3,0,0,0,0,1.84,1.28,1.28,0,0,0,.92.38h16.61a3,3,0,0,0,1.19-.26,3.32,3.32,0,0,0,1.06-.72,3.56,3.56,0,0,0,.75-1.11,3.43,3.43,0,0,0,.3-1.46v-.5a1.64,1.64,0,0,0,0-.23v-6.53a1.24,1.24,0,0,0-.38-.92A1.26,1.26,0,0,0,226.48,111Z" transform="translate(-28.35 -25.27)"/><path class="cls-1" d="M252.57,141.63a.79.79,0,0,1-.8-.79.79.79,0,0,1,.8-.8h1.82a.79.79,0,0,1,.51.26.73.73,0,0,1,.22.54.79.79,0,0,1-.8.79Z" transform="translate(-28.35 -25.27)"/><path class="cls-1" d="M247.55,138.65a.78.78,0,0,1-.57-.24.8.8,0,0,1,0-1.12.78.78,0,0,1,.57-.24h1.82a.87.87,0,0,1,.51.26.77.77,0,0,1,.22.54.82.82,0,0,1-.8.8Z" transform="translate(-28.35 -25.27)"/><path class="cls-1" d="M242.52,135.66a.79.79,0,0,1-.56-.23.81.81,0,0,1-.23-.57.77.77,0,0,1,.23-.56.75.75,0,0,1,.56-.23h1.82a.83.83,0,0,1,.52.25.8.8,0,0,1-.58,1.34Z" transform="translate(-28.35 -25.27)"/><path class="cls-1" d="M237.5,138.65a.74.74,0,0,1-.56-.24.8.8,0,0,1,0-1.12.74.74,0,0,1,.56-.24h1.82a.89.89,0,0,1,.52.26.8.8,0,0,1-.58,1.34Z" transform="translate(-28.35 -25.27)"/><path class="cls-1" d="M232.48,141.63a.73.73,0,0,1-.56-.23.74.74,0,0,1-.24-.56.78.78,0,0,1,.24-.57.77.77,0,0,1,.56-.23h1.82a.79.79,0,0,1,.51.26.73.73,0,0,1,.22.54.79.79,0,0,1-.8.79Z" transform="translate(-28.35 -25.27)"/><path class="cls-1" d="M227.46,138.65a.78.78,0,0,1-.57-.24.8.8,0,0,1,0-1.12.78.78,0,0,1,.57-.24h1.82a.84.84,0,0,1,.51.26.73.73,0,0,1,.22.54.77.77,0,0,1-.23.56.78.78,0,0,1-.57.24Z" transform="translate(-28.35 -25.27)"/><path class="cls-1" d="M222.44,135.66a.79.79,0,0,1-.57-.23.81.81,0,0,1-.23-.57.77.77,0,0,1,.23-.56.75.75,0,0,1,.57-.23h1.82a.8.8,0,0,1,.51.25.8.8,0,0,1-.58,1.34Z" transform="translate(-28.35 -25.27)"/><path class="cls-1" d="M217.41,138.65a.76.76,0,0,1-.56-.24.8.8,0,0,1,0-1.12.76.76,0,0,1,.56-.24h1.82a.89.89,0,0,1,.52.26.76.76,0,0,1,.21.54.73.73,0,0,1-.23.56.74.74,0,0,1-.56.24Z" transform="translate(-28.35 -25.27)"/><path class="cls-1" d="M212.39,141.63a.79.79,0,0,1-.79-.79.79.79,0,0,1,.79-.8h1.82a.84.84,0,0,1,.52.26.8.8,0,0,1,0,1.1.75.75,0,0,1-.56.23Z" transform="translate(-28.35 -25.27)"/><path class="cls-1" d="M207.37,138.65a.8.8,0,0,1,0-1.6h1.82a.84.84,0,0,1,.51.26.73.73,0,0,1,.22.54.77.77,0,0,1-.23.56.78.78,0,0,1-.57.24Z" transform="translate(-28.35 -25.27)"/><path class="cls-1" d="M202.35,135.66a.79.79,0,0,1-.8-.8.79.79,0,0,1,.8-.79h1.82a.78.78,0,0,1,.51.25.73.73,0,0,1,.22.54.79.79,0,0,1-.8.8Z" transform="translate(-28.35 -25.27)"/><path class="cls-1" d="M197.33,138.65a.8.8,0,0,1,0-1.6h1.82a.87.87,0,0,1,.51.26.77.77,0,0,1,.22.54.82.82,0,0,1-.8.8Z" transform="translate(-28.35 -25.27)"/><path class="cls-1" d="M29.14,141.63a.79.79,0,0,1-.79-.79.76.76,0,0,1,.21-.54.84.84,0,0,1,.52-.26H30.9a.79.79,0,0,1,.56.23.77.77,0,0,1,.23.57.73.73,0,0,1-.23.56.75.75,0,0,1-.56.23Z" transform="translate(-28.35 -25.27)"/><path class="cls-1" d="M34.16,138.65a.76.76,0,0,1-.56-.24.8.8,0,0,1,0-1.1.89.89,0,0,1,.52-.26h1.82a.74.74,0,0,1,.56.24.8.8,0,0,1,0,1.12.74.74,0,0,1-.56.24Z" transform="translate(-28.35 -25.27)"/><path class="cls-1" d="M39.19,135.66a.79.79,0,0,1-.8-.8.73.73,0,0,1,.22-.54.78.78,0,0,1,.51-.25h1.82a.73.73,0,0,1,.56.23.74.74,0,0,1,.24.56.78.78,0,0,1-.24.57.77.77,0,0,1-.56.23Z" transform="translate(-28.35 -25.27)"/><path class="cls-1" d="M44.21,138.65a.78.78,0,0,1-.57-.24.77.77,0,0,1-.23-.56.73.73,0,0,1,.22-.54.84.84,0,0,1,.51-.26H46a.78.78,0,0,1,.57.24.8.8,0,0,1,0,1.12.78.78,0,0,1-.57.24Z" transform="translate(-28.35 -25.27)"/><path class="cls-1" d="M49.23,141.63a.73.73,0,0,1-.56-.23.74.74,0,0,1-.24-.56.77.77,0,0,1,.22-.54.81.81,0,0,1,.51-.26H51a.79.79,0,0,1,.57.23.81.81,0,0,1,.23.57.77.77,0,0,1-.23.56.75.75,0,0,1-.57.23Z" transform="translate(-28.35 -25.27)"/><path class="cls-1" d="M54.25,138.65a.74.74,0,0,1-.56-.24.73.73,0,0,1-.23-.56.76.76,0,0,1,.21-.54.89.89,0,0,1,.52-.26H56a.74.74,0,0,1,.56.24.8.8,0,0,1,0,1.12.74.74,0,0,1-.56.24Z" transform="translate(-28.35 -25.27)"/><path class="cls-1" d="M59.28,135.66a.79.79,0,0,1-.57-.23.81.81,0,0,1-.23-.57.76.76,0,0,1,.21-.54.83.83,0,0,1,.52-.25H61a.79.79,0,0,1,.79.79.79.79,0,0,1-.79.8Z" transform="translate(-28.35 -25.27)"/><path class="cls-1" d="M64.3,138.65a.78.78,0,0,1-.57-.24.77.77,0,0,1-.23-.56.73.73,0,0,1,.22-.54.84.84,0,0,1,.51-.26h1.82a.8.8,0,0,1,0,1.6Z" transform="translate(-28.35 -25.27)"/><path class="cls-1" d="M69.32,141.63a.73.73,0,0,1-.56-.23.74.74,0,0,1-.24-.56.73.73,0,0,1,.22-.54.79.79,0,0,1,.51-.26h1.82a.79.79,0,0,1,.8.8.79.79,0,0,1-.8.79Z" transform="translate(-28.35 -25.27)"/><path class="cls-1" d="M74.34,138.65a.74.74,0,0,1-.56-.24.73.73,0,0,1-.23-.56.76.76,0,0,1,.21-.54.86.86,0,0,1,.52-.26h1.81a.8.8,0,0,1,0,1.6Z" transform="translate(-28.35 -25.27)"/><path class="cls-1" d="M79.36,135.66a.8.8,0,0,1-.58-1.34.83.83,0,0,1,.52-.25h1.82a.79.79,0,0,1,.79.79.79.79,0,0,1-.79.8Z" transform="translate(-28.35 -25.27)"/><path class="cls-1" d="M84.39,138.65a.8.8,0,0,1-.8-.8.73.73,0,0,1,.22-.54.84.84,0,0,1,.51-.26h1.82a.74.74,0,0,1,.56.24.8.8,0,0,1,0,1.12.74.74,0,0,1-.56.24Z" transform="translate(-28.35 -25.27)"/></svg>