<svg id="Слой_1" data-name="Слой 1" xmlns="http://www.w3.org/2000/svg" viewBox="0 0 79 79"><defs><style>.cls-1{fill:#153f53;}.cls-2{fill:#fff;}</style></defs><title>Иконки__</title><circle class="cls-1" cx="39.5" cy="39.5" r="35.16"/><path class="cls-2" d="M12.46,46.39a12.88,12.88,0,0,0,6.74,2.52,15.66,15.66,0,0,0,3.62,0,14.46,14.46,0,0,0,3.5-.86c.28-.1.55-.24.83-.35s.54-.26.79-.42a10.8,10.8,0,0,0,1.48-1l1.4-1.17.75-.56a3.22,3.22,0,0,1,.39-.25l.4-.24a13.27,13.27,0,0,1,3.46-1.34,16,16,0,0,1,7.36,0A13,13,0,0,1,46.64,44l.4.24a2.59,2.59,0,0,1,.39.25l.75.56,1.41,1.17a10.7,10.7,0,0,0,1.47,1,10.91,10.91,0,0,0,1.62.77,15.56,15.56,0,0,0,7.13.9,12.88,12.88,0,0,0,6.73-2.52,10.87,10.87,0,0,1-3.15,1.86,15,15,0,0,1-3.56.9,15.84,15.84,0,0,1-7.28-.79,11.1,11.1,0,0,1-3.23-1.82l-1.41-1.16-.72-.53a3,3,0,0,0-.38-.24l-.39-.23a13.09,13.09,0,0,0-3.34-1.27,16.18,16.18,0,0,0-7.15,0,13.16,13.16,0,0,0-3.35,1.27l-.39.23a2.2,2.2,0,0,0-.38.24l-.72.53-1.41,1.16a11,11,0,0,1-3.23,1.82,14.81,14.81,0,0,1-3.6.82,16.18,16.18,0,0,1-3.68,0,14.52,14.52,0,0,1-3.56-.89A11,11,0,0,1,12.46,46.39Z"/><path class="cls-2" d="M12.46,43.84a11.9,11.9,0,0,0,3,2.73A10,10,0,0,0,19.15,48c.33.07.66.08,1,.12s.66,0,1,0a10.05,10.05,0,0,0,2-.27,9.9,9.9,0,0,0,3.54-1.65,10.69,10.69,0,0,0,1.48-1.29c.22-.25.44-.49.65-.75s.4-.51.59-.79l1.18-1.66a13.81,13.81,0,0,1,1.34-1.63,12.49,12.49,0,0,1,1.62-1.37,12,12,0,0,1,1.86-1,10.76,10.76,0,0,1,4.15-.88,10.54,10.54,0,0,1,4.15.88,10.92,10.92,0,0,1,1.86,1,11.67,11.67,0,0,1,1.62,1.36,12.89,12.89,0,0,1,1.34,1.63l1.18,1.66c.2.28.39.53.6.8s.42.5.65.73a9.57,9.57,0,0,0,1.47,1.3A9.81,9.81,0,0,0,59.85,48a10,10,0,0,0,3.71-1.42,12.82,12.82,0,0,0,1.6-1.23,13.05,13.05,0,0,0,1.38-1.5,10.73,10.73,0,0,1-6.6,4.62,10.05,10.05,0,0,1-4.16,0,10.19,10.19,0,0,1-2-.63,11,11,0,0,1-1.84-1,11.85,11.85,0,0,1-3-2.95l-1.21-1.65a12.24,12.24,0,0,0-1.28-1.49A12,12,0,0,0,45,39.49a11.22,11.22,0,0,0-1.7-.93,9.65,9.65,0,0,0-3.78-.78,9.43,9.43,0,0,0-3.77.78,10.1,10.1,0,0,0-1.71.93,11.84,11.84,0,0,0-1.5,1.25,12.24,12.24,0,0,0-1.28,1.49L30,43.87c-.2.28-.43.55-.64.83s-.47.53-.71.78a10.88,10.88,0,0,1-1.62,1.34,10.56,10.56,0,0,1-3.85,1.66,10.4,10.4,0,0,1-2.08.2c-.35,0-.7,0-1.05,0l-.52-.08-.25,0-.26-.06A10.74,10.74,0,0,1,12.46,43.84Z"/><path class="cls-2" d="M12.46,38.4a25.35,25.35,0,0,0,1.19,2.32,17.45,17.45,0,0,0,1.43,2.15,11.89,11.89,0,0,0,1.77,1.84A7.14,7.14,0,0,0,19,46l.29.1a1.57,1.57,0,0,0,.29.08l.6.13.61,0c.2,0,.4,0,.6,0a5.62,5.62,0,0,0,2.27-.77l.52-.33a5.71,5.71,0,0,0,.48-.38l.24-.19.23-.21c.14-.15.3-.29.44-.44l.41-.47c.07-.08.14-.15.2-.23l.19-.26.37-.5c.12-.17.23-.36.34-.53s.23-.35.33-.54l.31-.56c.21-.36.38-.75.56-1.13s.34-.78.51-1.17.31-.8.47-1.21L30.2,35c.15-.41.32-.82.49-1.24s.37-.81.55-1.22A16.39,16.39,0,0,1,34.37,28a9.08,9.08,0,0,1,2.31-1.63,6.29,6.29,0,0,1,5.65,0A9.53,9.53,0,0,1,44.64,28a16.35,16.35,0,0,1,3.12,4.45c.19.41.39.81.56,1.23s.34.83.49,1.23l.94,2.44c.15.4.31.81.47,1.2l.24.59.26.58c.17.39.37.76.56,1.14.1.19.21.37.31.55s.21.37.33.54a12.32,12.32,0,0,0,1.52,2,8.59,8.59,0,0,0,1.9,1.56,5.62,5.62,0,0,0,2.27.77A5.3,5.3,0,0,0,60,46a7.35,7.35,0,0,0,2.15-1.27,11.44,11.44,0,0,0,1.77-1.84,16.72,16.72,0,0,0,1.43-2.15,24.13,24.13,0,0,0,1.19-2.32,20,20,0,0,1-2.3,4.71,11.49,11.49,0,0,1-1.72,2,8.19,8.19,0,0,1-2.25,1.5,6,6,0,0,1-2.72.5,6.54,6.54,0,0,1-2.67-.77,9,9,0,0,1-2.19-1.66A13.83,13.83,0,0,1,51,42.61a6.65,6.65,0,0,1-.36-.56c-.12-.2-.24-.38-.35-.58-.22-.39-.45-.78-.63-1.18l-.3-.61-.26-.61c-.18-.41-.34-.81-.51-1.22l-1-2.41c-.16-.41-.33-.79-.5-1.19s-.36-.76-.55-1.14A19.47,19.47,0,0,0,45.25,31a12.54,12.54,0,0,0-1.59-1.88,7.61,7.61,0,0,0-1.95-1.36,5.2,5.2,0,0,0-2.21-.53,5.13,5.13,0,0,0-2.21.53,7.49,7.49,0,0,0-1.94,1.36A12.61,12.61,0,0,0,33.75,31l-.34.52c-.12.17-.22.36-.33.53-.22.36-.41.74-.61,1.11s-.38.75-.55,1.14-.34.77-.5,1.18l-1,2.42c-.17.4-.32.81-.51,1.22s-.34.82-.56,1.21a13.35,13.35,0,0,1-.63,1.18L28.4,42c-.11.2-.25.38-.37.57s-.25.37-.39.55l-.42.53L27,44a2.73,2.73,0,0,1-.23.25l-.46.5a9.39,9.39,0,0,1-2.2,1.65,6.69,6.69,0,0,1-2.67.77c-.23,0-.47,0-.7,0l-.69-.08-.68-.17a5,5,0,0,1-.64-.25,7.72,7.72,0,0,1-2.26-1.49,12.33,12.33,0,0,1-1.72-2A20.15,20.15,0,0,1,12.46,38.4Z"/></svg>