<svg id="Слой_1" data-name="Слой 1" xmlns="http://www.w3.org/2000/svg" viewBox="0 0 226.77 116.37"><defs><style>.cls-1{fill:#005a6c;}</style></defs><title>logo1</title><path class="cls-1" d="M54.46,150.64c6.53,4.11,14.19,6,21.77,6.54a64.18,64.18,0,0,0,11.43-.1,54.93,54.93,0,0,0,11.17-2.19,39.62,39.62,0,0,0,10.25-4.72l4.77-3.23,2.52-1.52c.85-.48,1.75-.86,2.63-1.3a51.31,51.31,0,0,1,11.14-3.44,70.48,70.48,0,0,1,11.59-1.08,69.21,69.21,0,0,1,11.59,1.08,51.4,51.4,0,0,1,11.15,3.44c.87.44,1.77.82,2.63,1.3l2.51,1.52,4.77,3.23a32.94,32.94,0,0,0,4.94,2.72,42.94,42.94,0,0,0,5.31,2,61.55,61.55,0,0,0,22.61,2.29c7.58-.59,15.23-2.45,21.76-6.54a37.84,37.84,0,0,1-10.37,5,57.55,57.55,0,0,1-11.33,2.32,62.1,62.1,0,0,1-23-1.9,38.7,38.7,0,0,1-10.65-4.76l-4.79-3.2-2.42-1.44c-.82-.46-1.7-.82-2.54-1.24a50.14,50.14,0,0,0-10.83-3.27,69.34,69.34,0,0,0-11.33-1,70.43,70.43,0,0,0-11.32,1,51,51,0,0,0-10.84,3.28c-.84.42-1.71.78-2.54,1.23l-2.42,1.45-4.79,3.2A38.54,38.54,0,0,1,99.17,156a56.25,56.25,0,0,1-11.43,2,64,64,0,0,1-11.58-.12,57.29,57.29,0,0,1-11.32-2.31A37.79,37.79,0,0,1,54.46,150.64Z" transform="translate(-28.35 -83.55)"/><path class="cls-1" d="M54.46,141.8a36.7,36.7,0,0,0,9.67,8.38,33.47,33.47,0,0,0,11.92,4.32l.78.13.79.09,1.58.17,1.59.05.79,0,.79,0a34,34,0,0,0,6.28-.72,33.52,33.52,0,0,0,11.53-4.91,36.72,36.72,0,0,0,9-8.69l3.91-5.14a41.37,41.37,0,0,1,4.42-4.95,35.12,35.12,0,0,1,48.39,0,40.35,40.35,0,0,1,4.41,4.94l3.91,5.14a37.3,37.3,0,0,0,9,8.7,33.52,33.52,0,0,0,24.13,5.19,33.93,33.93,0,0,0,11.92-4.32,37.46,37.46,0,0,0,5.19-3.76,40.77,40.77,0,0,0,4.48-4.62,34.44,34.44,0,0,1-46.69,9,36.78,36.78,0,0,1-9.66-8.95l-4-5.09a39.59,39.59,0,0,0-4.23-4.63,33.27,33.27,0,0,0-45.41,0,38.12,38.12,0,0,0-4.24,4.63l-4,5.09c-.65.85-1.41,1.69-2.1,2.54s-1.51,1.61-2.33,2.36a32,32,0,0,1-2.53,2.13c-.44.34-.88.68-1.32,1l-1.39.91a35.37,35.37,0,0,1-12.22,4.85,35.94,35.94,0,0,1-6.55.59h-.82l-.82-.05-1.64-.1-1.63-.21-.81-.11-.81-.17A34.91,34.91,0,0,1,54.46,141.8Z" transform="translate(-28.35 -83.55)"/><path class="cls-1" d="M54.46,123.63a81.58,81.58,0,0,0,3.77,7.47A56.6,56.6,0,0,0,62.84,138a39,39,0,0,0,5.71,5.92,23.19,23.19,0,0,0,7,4.08l.94.32a5.57,5.57,0,0,0,1,.29l1.94.41,2,.14c.65,0,1.31-.06,2-.08a19.14,19.14,0,0,0,7.43-2.43,30.33,30.33,0,0,0,6.24-5l1.33-1.52.67-.75.61-.81,1.22-1.63c.39-.55.74-1.13,1.11-1.7s.76-1.13,1.09-1.72l1-1.79c.7-1.17,1.25-2.42,1.85-3.65s1.11-2.5,1.65-3.76,1-2.56,1.54-3.86l3-7.81c.49-1.29,1.06-2.62,1.6-3.94s1.18-2.6,1.8-3.9a51.3,51.3,0,0,1,10-14.11,28.9,28.9,0,0,1,7.34-5.11,19.93,19.93,0,0,1,17.81,0A29.19,29.19,0,0,1,158,90.77,51.55,51.55,0,0,1,168,104.88c.61,1.3,1.24,2.58,1.79,3.9s1.11,2.65,1.6,3.94l3.05,7.81c.5,1.3,1,2.61,1.54,3.86l.79,1.9.86,1.86c.54,1.26,1.22,2.44,1.83,3.66l1,1.77.51.88.56.86a40.07,40.07,0,0,0,5,6.38,28.26,28.26,0,0,0,6.22,5,18.3,18.3,0,0,0,7.43,2.43A17.53,17.53,0,0,0,208,148a24,24,0,0,0,6.94-4.09,37.68,37.68,0,0,0,5.71-5.92,54.75,54.75,0,0,0,4.61-6.92,77.84,77.84,0,0,0,3.78-7.46,64.27,64.27,0,0,1-7.54,15,35.77,35.77,0,0,1-5.58,6.41,25.92,25.92,0,0,1-7.22,4.73,19.54,19.54,0,0,1-8.63,1.52,20.73,20.73,0,0,1-8.48-2.42,29.07,29.07,0,0,1-7-5.24,43.8,43.8,0,0,1-5.5-6.68l-.61-.89-.56-.91-1.13-1.83c-.67-1.26-1.42-2.49-2-3.79l-.94-1.92-.85-2c-.58-1.31-1.1-2.6-1.63-3.9L168.15,114c-.52-1.31-1.07-2.54-1.62-3.8s-1.17-2.46-1.76-3.68a63.25,63.25,0,0,0-4.19-7,42,42,0,0,0-5.19-6.07,25.38,25.38,0,0,0-6.37-4.4,16.5,16.5,0,0,0-14.57,0,25.39,25.39,0,0,0-6.38,4.41,42,42,0,0,0-5.19,6.06,64,64,0,0,0-4.18,7c-.6,1.23-1.22,2.44-1.77,3.69s-1.1,2.49-1.62,3.8l-3.17,7.76c-.53,1.3-1,2.59-1.64,3.9s-1.1,2.62-1.79,3.88-1.27,2.55-2,3.77l-1.1,1.85c-.37.62-.8,1.2-1.19,1.79s-.8,1.2-1.24,1.77l-1.34,1.7-.67.84-.74.8-1.48,1.59a31.28,31.28,0,0,1-7,5.22,21.63,21.63,0,0,1-8.47,2.42c-.75,0-1.49.07-2.23,0l-2.2-.25-2.14-.53a18.09,18.09,0,0,1-2.06-.76,24.62,24.62,0,0,1-7.23-4.7A37.44,37.44,0,0,1,62,138.65,64.23,64.23,0,0,1,54.46,123.63Z" transform="translate(-28.35 -83.55)"/><path class="cls-1" d="M102.91,192.35a.81.81,0,0,1,.57.23.79.79,0,0,1,.23.57.79.79,0,0,1-.8.79H98v4.85a.77.77,0,0,1-.23.56.78.78,0,0,1-.57.24.74.74,0,0,1-.56-.24.73.73,0,0,1-.23-.56v-4.85h-5a.88.88,0,0,1-.52-.25.76.76,0,0,1-.21-.54.79.79,0,0,1,.79-.8Z" transform="translate(-28.35 -83.55)"/><path class="cls-1" d="M105.37,193.15a.79.79,0,0,1,.8-.8h11.76a.81.81,0,0,1,.57.23.79.79,0,0,1,.23.57.79.79,0,0,1-.8.79H106.17a.75.75,0,0,1-.57-.23A.77.77,0,0,1,105.37,193.15Zm2,6.44a2,2,0,0,1-.73-.16A2,2,0,0,1,106,199a2.36,2.36,0,0,1-.47-.68,2.19,2.19,0,0,1-.18-.9v-1.49a.62.62,0,0,1,.26-.6,1.64,1.64,0,0,1,.8-.15h11.14a.79.79,0,0,1,.79.8.79.79,0,0,1-.79.79H107v.82a.4.4,0,0,0,.14.29.58.58,0,0,0,.38.12h10.45a.79.79,0,0,1,.8.8.77.77,0,0,1-.23.56.78.78,0,0,1-.57.24Z" transform="translate(-28.35 -83.55)"/><path class="cls-1" d="M127,194.44a3.33,3.33,0,0,0-.27-.29.48.48,0,0,0-.72,0c-.11.11-.21.2-.29.29l-3.86,5.16a.73.73,0,0,1-.63.32.8.8,0,0,1-.8-.8.6.6,0,0,1,.07-.3l.16-.26,4-5.4a2.14,2.14,0,0,1,.73-.6,2.23,2.23,0,0,1,1-.21,2.14,2.14,0,0,1,1,.24,2.06,2.06,0,0,1,.74.62l4,5.41,0,0a.65.65,0,0,1,.16.48.77.77,0,0,1-.23.56.76.76,0,0,1-.56.24.71.71,0,0,1-.62-.3Z" transform="translate(-28.35 -83.55)"/><path class="cls-1" d="M133.93,193.15a.79.79,0,0,1,.23-.57.81.81,0,0,1,.57-.23H146.5a.79.79,0,0,1,.79.8.77.77,0,0,1-.23.56.75.75,0,0,1-.56.23H134.73a.79.79,0,0,1-.8-.79Zm2,6.44a1.88,1.88,0,0,1-.73-.16,2.07,2.07,0,0,1-.65-.44,2.57,2.57,0,0,1-.47-.68,2.19,2.19,0,0,1-.18-.9v-1.49a.64.64,0,0,1,.26-.6,1.64,1.64,0,0,1,.8-.15h11.14a.77.77,0,0,1,.56.23.78.78,0,0,1,.24.57.74.74,0,0,1-.24.56.73.73,0,0,1-.56.23h-10.6v.82a.37.37,0,0,0,.14.29.53.53,0,0,0,.37.12H146.5a.79.79,0,0,1,.56.23.81.81,0,0,1,.23.57.77.77,0,0,1-.23.56.76.76,0,0,1-.56.24Z" transform="translate(-28.35 -83.55)"/><path class="cls-1" d="M150.54,195.17h3.84a6.43,6.43,0,0,0,1.69-.22,10.86,10.86,0,0,0,1.62-.59,13.79,13.79,0,0,0,1.51-.83c.48-.31.94-.63,1.39-.95a1.28,1.28,0,0,1,.28-.16.61.61,0,0,1,.28-.07.8.8,0,0,1,.8.8.63.63,0,0,1-.14.4,1.3,1.3,0,0,1-.31.31c-.29.22-.57.43-.83.61s-.53.37-.8.54-.54.34-.82.49-.58.31-.9.47c.32.15.62.31.9.46s.56.32.82.49.53.35.8.54l.83.61a1.52,1.52,0,0,1,.31.31.66.66,0,0,1,.14.41.82.82,0,0,1-.8.8.77.77,0,0,1-.28-.07,1.31,1.31,0,0,1-.28-.17c-.46-.33-.93-.65-1.41-1a13.07,13.07,0,0,0-1.51-.83,9,9,0,0,0-1.6-.57,6.87,6.87,0,0,0-1.69-.22h-3.84v2a.73.73,0,0,1-.23.56.77.77,0,0,1-1.12,0,.74.74,0,0,1-.24-.56v-5.64a.8.8,0,0,1,.79-.8.81.81,0,0,1,.57.23.75.75,0,0,1,.23.57Z" transform="translate(-28.35 -83.55)"/><path class="cls-1" d="M177.1,196a4.07,4.07,0,0,1-.21,1.27,4.12,4.12,0,0,1-.6,1.16,3.29,3.29,0,0,1-1,.85,2.46,2.46,0,0,1-1.27.34h-7.57a2.22,2.22,0,0,1-1.21-.34,3.07,3.07,0,0,1-.91-.85,4,4,0,0,1-.57-1.17,4.35,4.35,0,0,1-.2-1.26,4.06,4.06,0,0,1,.21-1.26,3.6,3.6,0,0,1,.6-1.17,3.42,3.42,0,0,1,1-.86,2.52,2.52,0,0,1,1.28-.33h7.57a2.26,2.26,0,0,1,1.2.33,3.14,3.14,0,0,1,.92.86,3.75,3.75,0,0,1,.57,1.17A4.35,4.35,0,0,1,177.1,196Zm-3.4,2a1.88,1.88,0,0,0,.93-.21,1.64,1.64,0,0,0,.57-.5,1.76,1.76,0,0,0,.28-.66,3.11,3.11,0,0,0,.08-.65,3.29,3.29,0,0,0-.08-.66,1.71,1.71,0,0,0-.28-.65,1.77,1.77,0,0,0-.57-.51,1.88,1.88,0,0,0-.93-.21H167a1.68,1.68,0,0,0-1.5.72,1.71,1.71,0,0,0-.28.65,3.29,3.29,0,0,0-.08.66,3.11,3.11,0,0,0,.08.65,1.76,1.76,0,0,0,.28.66,1.7,1.7,0,0,0,.56.5,1.84,1.84,0,0,0,.94.21Z" transform="translate(-28.35 -83.55)"/><path class="cls-1" d="M192.77,198.79a.82.82,0,0,1-.8.8.78.78,0,0,1-.57-.24.77.77,0,0,1-.23-.56v-3.62c0-.45,0-.68-.08-.68s-.2.15-.46.45L187,199.09a1.34,1.34,0,0,1-.53.37,1.87,1.87,0,0,1-.68.13,1.91,1.91,0,0,1-.68-.13,1.34,1.34,0,0,1-.53-.37l-3.65-4.15c-.26-.3-.41-.45-.47-.45s-.08.23-.08.68v3.62a.8.8,0,0,1-.8.8.76.76,0,0,1-.56-.24.77.77,0,0,1-.23-.56v-4.85a1.75,1.75,0,0,1,.38-1.13,1.27,1.27,0,0,1,1.05-.46,1.33,1.33,0,0,1,.71.2,2.9,2.9,0,0,1,.58.48l3.82,4.35a1.39,1.39,0,0,0,.21.17.4.4,0,0,0,.25.09.43.43,0,0,0,.26-.09l.21-.17L190,193h0a1.81,1.81,0,0,1,.57-.5,1.49,1.49,0,0,1,.73-.18,1.26,1.26,0,0,1,1,.46,1.71,1.71,0,0,1,.39,1.13Z" transform="translate(-28.35 -83.55)"/><path class="cls-1" d="M47,173.7c.45-.29.91-.6,1.36-.92s.93-.67,1.42-1.05a2.47,2.47,0,0,0,.54-.53,1.12,1.12,0,0,0,.23-.69,1.31,1.31,0,0,0-.4-1,1.33,1.33,0,0,0-1-.4,1.14,1.14,0,0,0-.49.12,2.31,2.31,0,0,0-.48.28q-1.14.83-2.37,1.62a22.38,22.38,0,0,1-2.59,1.42,17.34,17.34,0,0,1-2.77,1,10.82,10.82,0,0,1-2.89.38H31.07v-3.46a1.31,1.31,0,0,0-.4-1,1.35,1.35,0,0,0-1-.4,1.37,1.37,0,0,0-1.35,1.37v9.66a1.28,1.28,0,0,0,.4,1,1.31,1.31,0,0,0,1,.4,1.37,1.37,0,0,0,1.35-1.36V176.7h6.57a11.23,11.23,0,0,1,2.89.37,16.23,16.23,0,0,1,2.74,1,20.85,20.85,0,0,1,2.57,1.42c.84.54,1.64,1.09,2.42,1.66a2.36,2.36,0,0,0,.48.29,1.35,1.35,0,0,0,1.85-1.25,1.13,1.13,0,0,0-.23-.7,2.72,2.72,0,0,0-.54-.53c-.49-.37-1-.72-1.42-1.05s-.91-.63-1.36-.92-.92-.57-1.41-.84-1-.53-1.55-.79c.55-.27,1.07-.53,1.55-.8S46.58,174,47,173.7Z" transform="translate(-28.35 -83.55)"/><path class="cls-1" d="M75.2,171.18a5.21,5.21,0,0,0-1.56-1.47,3.82,3.82,0,0,0-2.06-.57H58.63a4.23,4.23,0,0,0-2.19.57,5.78,5.78,0,0,0-1.65,1.47,6.43,6.43,0,0,0-1,2,7,7,0,0,0-.36,2.16,7.4,7.4,0,0,0,1.32,4.16A5.52,5.52,0,0,0,56.27,181a3.83,3.83,0,0,0,2.07.57h13a4.26,4.26,0,0,0,2.19-.57,5.73,5.73,0,0,0,1.64-1.46,6.63,6.63,0,0,0,1-2,6.9,6.9,0,0,0,.36-2.17,7.27,7.27,0,0,0-.35-2.16A6.54,6.54,0,0,0,75.2,171.18Zm-1.45,5.28a2.87,2.87,0,0,1-.48,1.12,3,3,0,0,1-1,.87,3.23,3.23,0,0,1-1.59.35H59.23a3.26,3.26,0,0,1-1.61-.35,3,3,0,0,1-1-.87,3.2,3.2,0,0,1-.48-1.12,5.93,5.93,0,0,1-.13-1.12,5.84,5.84,0,0,1,.13-1.12,3.25,3.25,0,0,1,.48-1.13,2.91,2.91,0,0,1,1-.86,3.15,3.15,0,0,1,1.61-.36H70.7a3.12,3.12,0,0,1,1.59.36,2.85,2.85,0,0,1,1,.86,2.91,2.91,0,0,1,.48,1.13,5.14,5.14,0,0,1,.13,1.12A5.21,5.21,0,0,1,73.75,176.46Z" transform="translate(-28.35 -83.55)"/><path class="cls-1" d="M100.24,169.14a1.37,1.37,0,0,0-1.36,1.37V174H82.09v-3.46a1.37,1.37,0,0,0-1.36-1.37,1.37,1.37,0,0,0-1.37,1.37v9.66a1.37,1.37,0,0,0,1.37,1.36,1.37,1.37,0,0,0,1.36-1.36V176.7H98.88v3.47a1.37,1.37,0,0,0,1.36,1.36,1.31,1.31,0,0,0,1-.4,1.28,1.28,0,0,0,.4-1v-9.66a1.31,1.31,0,0,0-.4-1A1.35,1.35,0,0,0,100.24,169.14Z" transform="translate(-28.35 -83.55)"/><path class="cls-1" d="M125.35,169.14H105.81a1.37,1.37,0,0,0-1.36,1.37,1.25,1.25,0,0,0,.37.92,1.38,1.38,0,0,0,.88.44h8.52v8.3a1.37,1.37,0,0,0,1.36,1.36,1.37,1.37,0,0,0,1.37-1.36v-8.3h8.4a1.3,1.3,0,0,0,1-.4,1.28,1.28,0,0,0,.4-1,1.31,1.31,0,0,0-.4-1A1.34,1.34,0,0,0,125.35,169.14Z" transform="translate(-28.35 -83.55)"/><path class="cls-1" d="M151.06,169.14H130.92a1.37,1.37,0,0,0-1.36,1.37,1.37,1.37,0,0,0,1.36,1.36h20.14a1.37,1.37,0,0,0,1.37-1.36,1.37,1.37,0,0,0-1.37-1.37Z" transform="translate(-28.35 -83.55)"/><path class="cls-1" d="M151.06,178.8H133.17a.93.93,0,0,1-.64-.21.65.65,0,0,1-.24-.5V176.7h18.15a1.37,1.37,0,0,0,1.36-1.36,1.37,1.37,0,0,0-1.36-1.37H131.38a2.83,2.83,0,0,0-1.38.26,1.09,1.09,0,0,0-.44,1v2.56a3.58,3.58,0,0,0,.31,1.53,3.91,3.91,0,0,0,.8,1.17,3.51,3.51,0,0,0,1.11.75,3.08,3.08,0,0,0,1.24.27h18a1.37,1.37,0,0,0,1.37-1.36,1.37,1.37,0,0,0-1.37-1.37Z" transform="translate(-28.35 -83.55)"/><path class="cls-1" d="M176.15,169.14a1.37,1.37,0,0,0-1.37,1.37V174H158v-3.46a1.36,1.36,0,1,0-2.72,0v9.66a1.36,1.36,0,1,0,2.72,0V176.7h16.79v3.47a1.37,1.37,0,0,0,1.37,1.36,1.29,1.29,0,0,0,1-.4,1.28,1.28,0,0,0,.4-1v-9.66a1.31,1.31,0,0,0-.4-1A1.33,1.33,0,0,0,176.15,169.14Z" transform="translate(-28.35 -83.55)"/><path class="cls-1" d="M201.26,169.14H181.71a1.37,1.37,0,0,0-1.36,1.37,1.25,1.25,0,0,0,.37.92,1.41,1.41,0,0,0,.88.44h8.52v8.3a1.28,1.28,0,0,0,.4,1,1.36,1.36,0,0,0,1.93,0,1.28,1.28,0,0,0,.4-1v-8.3h8.41a1.37,1.37,0,0,0,1.36-1.36,1.37,1.37,0,0,0-1.36-1.37Z" transform="translate(-28.35 -83.55)"/><path class="cls-1" d="M254.46,169.94a2.19,2.19,0,0,0-1.79-.8,2.55,2.55,0,0,0-1.25.32,3,3,0,0,0-1,.85h0l-6.5,7.44a2.86,2.86,0,0,1-.36.3.68.68,0,0,1-.88,0,2.86,2.86,0,0,1-.36-.3l-6.53-7.44a4.8,4.8,0,0,0-1-.82,2.23,2.23,0,0,0-1.22-.35,2.19,2.19,0,0,0-1.79.8,2.92,2.92,0,0,0-.66,1.93v8.3a1.28,1.28,0,0,0,.4,1,1.36,1.36,0,0,0,1.93,0,1.28,1.28,0,0,0,.4-1V174c0-.77,0-1.16.14-1.16s.36.25.8.77l6.25,7.1a2.43,2.43,0,0,0,.9.64,3.2,3.2,0,0,0,1.17.21,3.24,3.24,0,0,0,1.17-.21,2.43,2.43,0,0,0,.9-.64l6.25-7.1c.46-.52.72-.77.8-.77s.14.39.14,1.16v6.2a1.37,1.37,0,0,0,1.36,1.36,1.37,1.37,0,0,0,1.37-1.36v-8.3A2.92,2.92,0,0,0,254.46,169.94Z" transform="translate(-28.35 -83.55)"/><path class="cls-1" d="M226.48,169.3a1.28,1.28,0,0,0-1.3,1.29v3.61H210a.93.93,0,0,1-.61-.2.63.63,0,0,1-.23-.48v-2.93a1.24,1.24,0,0,0-.38-.92,1.25,1.25,0,0,0-.92-.37,1.28,1.28,0,0,0-1.3,1.29v2.6s0,0,0,.06h0a3.48,3.48,0,0,0,.3,1.47,3.65,3.65,0,0,0,.76,1.1,3.32,3.32,0,0,0,1.06.72,3,3,0,0,0,1.19.26h15.3v1.32a.6.6,0,0,1-.23.48.89.89,0,0,1-.6.2H207.85a1.28,1.28,0,0,0-.92.38,1.3,1.3,0,0,0,0,1.84,1.28,1.28,0,0,0,.92.38h16.61a3,3,0,0,0,1.19-.26,3.32,3.32,0,0,0,1.06-.72,3.56,3.56,0,0,0,.75-1.11,3.43,3.43,0,0,0,.3-1.46v-.5a1.64,1.64,0,0,0,0-.23v-6.53a1.24,1.24,0,0,0-.38-.92A1.25,1.25,0,0,0,226.48,169.3Z" transform="translate(-28.35 -83.55)"/><path class="cls-1" d="M252.57,199.92a.78.78,0,0,1-.57-.24.8.8,0,0,1,0-1.12.78.78,0,0,1,.57-.24h1.82a.84.84,0,0,1,.51.26.73.73,0,0,1,.22.54.77.77,0,0,1-.23.56.78.78,0,0,1-.57.24Z" transform="translate(-28.35 -83.55)"/><path class="cls-1" d="M247.55,196.93a.79.79,0,0,1-.8-.8.79.79,0,0,1,.8-.79h1.82a.8.8,0,0,1,.51.25.8.8,0,0,1-.58,1.34Z" transform="translate(-28.35 -83.55)"/><path class="cls-1" d="M242.52,193.94a.79.79,0,0,1-.56-.23.77.77,0,0,1-.23-.56.79.79,0,0,1,.79-.8h1.82a.84.84,0,0,1,.52.26.76.76,0,0,1,.21.54.73.73,0,0,1-.23.56.77.77,0,0,1-.56.23Z" transform="translate(-28.35 -83.55)"/><path class="cls-1" d="M237.5,196.93a.79.79,0,0,1-.79-.8.79.79,0,0,1,.79-.79h1.82a.83.83,0,0,1,.52.25.76.76,0,0,1,.21.54.81.81,0,0,1-.23.57.79.79,0,0,1-.56.23Z" transform="translate(-28.35 -83.55)"/><path class="cls-1" d="M232.48,199.92a.8.8,0,0,1,0-1.6h1.82a.84.84,0,0,1,.51.26.73.73,0,0,1,.22.54.77.77,0,0,1-.23.56.78.78,0,0,1-.57.24Z" transform="translate(-28.35 -83.55)"/><path class="cls-1" d="M227.46,196.93a.79.79,0,0,1-.8-.8.79.79,0,0,1,.8-.79h1.82a.78.78,0,0,1,.51.25.73.73,0,0,1,.22.54.79.79,0,0,1-.8.8Z" transform="translate(-28.35 -83.55)"/><path class="cls-1" d="M222.44,193.94a.79.79,0,0,1-.57-.23.77.77,0,0,1-.23-.56.79.79,0,0,1,.8-.8h1.82a.81.81,0,0,1,.51.26.77.77,0,0,1,.22.54.74.74,0,0,1-.24.56.77.77,0,0,1-.56.23Z" transform="translate(-28.35 -83.55)"/><path class="cls-1" d="M217.41,196.93a.79.79,0,0,1-.56-.23.77.77,0,0,1-.23-.57.73.73,0,0,1,.23-.56.75.75,0,0,1,.56-.23h1.82a.83.83,0,0,1,.52.25.8.8,0,0,1-.58,1.34Z" transform="translate(-28.35 -83.55)"/><path class="cls-1" d="M212.39,199.92a.74.74,0,0,1-.56-.24.8.8,0,0,1,0-1.12.74.74,0,0,1,.56-.24h1.82a.89.89,0,0,1,.52.26.8.8,0,0,1-.58,1.34Z" transform="translate(-28.35 -83.55)"/><path class="cls-1" d="M207.37,196.93a.77.77,0,0,1-.56-.23.78.78,0,0,1-.24-.57.74.74,0,0,1,.24-.56.73.73,0,0,1,.56-.23h1.82a.78.78,0,0,1,.51.25.73.73,0,0,1,.22.54.79.79,0,0,1-.8.8Z" transform="translate(-28.35 -83.55)"/><path class="cls-1" d="M202.35,193.94a.81.81,0,0,1-.57-.23.77.77,0,0,1-.23-.56.79.79,0,0,1,.23-.57.81.81,0,0,1,.57-.23h1.82a.79.79,0,0,1,.51.26.73.73,0,0,1,.22.54.77.77,0,0,1-.23.56.81.81,0,0,1-.57.23Z" transform="translate(-28.35 -83.55)"/><path class="cls-1" d="M197.33,196.93a.79.79,0,0,1-.57-.23.81.81,0,0,1-.23-.57.77.77,0,0,1,.23-.56.75.75,0,0,1,.57-.23h1.82a.8.8,0,0,1,.51.25.8.8,0,0,1-.58,1.34Z" transform="translate(-28.35 -83.55)"/><path class="cls-1" d="M29.14,199.92a.74.74,0,0,1-.56-.24.73.73,0,0,1-.23-.56.76.76,0,0,1,.21-.54.89.89,0,0,1,.52-.26H30.9a.76.76,0,0,1,.56.24.8.8,0,0,1,0,1.12.76.76,0,0,1-.56.24Z" transform="translate(-28.35 -83.55)"/><path class="cls-1" d="M34.16,196.93a.79.79,0,0,1-.56-.23.81.81,0,0,1-.23-.57.76.76,0,0,1,.21-.54.83.83,0,0,1,.52-.25h1.82a.79.79,0,0,1,.79.79.79.79,0,0,1-.79.8Z" transform="translate(-28.35 -83.55)"/><path class="cls-1" d="M39.19,193.94a.81.81,0,0,1-.57-.23.77.77,0,0,1-.23-.56.73.73,0,0,1,.22-.54.79.79,0,0,1,.51-.26h1.82a.8.8,0,0,1,.8.8.74.74,0,0,1-.24.56.77.77,0,0,1-.56.23Z" transform="translate(-28.35 -83.55)"/><path class="cls-1" d="M44.21,196.93a.79.79,0,0,1-.8-.8.73.73,0,0,1,.22-.54.78.78,0,0,1,.51-.25H46a.79.79,0,0,1,.8.79.79.79,0,0,1-.8.8Z" transform="translate(-28.35 -83.55)"/><path class="cls-1" d="M49.23,199.92a.82.82,0,0,1-.8-.8.77.77,0,0,1,.22-.54.87.87,0,0,1,.51-.26H51a.8.8,0,0,1,0,1.6Z" transform="translate(-28.35 -83.55)"/><path class="cls-1" d="M54.25,196.93a.8.8,0,0,1-.58-1.34.83.83,0,0,1,.52-.25H56a.79.79,0,0,1,.79.79.79.79,0,0,1-.79.8Z" transform="translate(-28.35 -83.55)"/><path class="cls-1" d="M59.28,193.94a.79.79,0,0,1-.57-.23.8.8,0,0,1,0-1.1.84.84,0,0,1,.52-.26H61a.77.77,0,0,1,.56.23.75.75,0,0,1,.23.57.73.73,0,0,1-.23.56.77.77,0,0,1-.56.23Z" transform="translate(-28.35 -83.55)"/><path class="cls-1" d="M64.3,196.93a.79.79,0,0,1-.8-.8.73.73,0,0,1,.22-.54.78.78,0,0,1,.51-.25h1.82a.73.73,0,0,1,.56.23.74.74,0,0,1,.24.56.78.78,0,0,1-.24.57.77.77,0,0,1-.56.23Z" transform="translate(-28.35 -83.55)"/><path class="cls-1" d="M69.32,199.92a.82.82,0,0,1-.8-.8.73.73,0,0,1,.22-.54.84.84,0,0,1,.51-.26h1.82a.78.78,0,0,1,.57.24.8.8,0,0,1,0,1.12.78.78,0,0,1-.57.24Z" transform="translate(-28.35 -83.55)"/><path class="cls-1" d="M74.34,196.93a.8.8,0,0,1-.58-1.34.8.8,0,0,1,.52-.25h1.81a.75.75,0,0,1,.57.23.77.77,0,0,1,.23.56.81.81,0,0,1-.23.57.79.79,0,0,1-.57.23Z" transform="translate(-28.35 -83.55)"/><path class="cls-1" d="M79.36,193.94a.77.77,0,0,1-.56-.23.73.73,0,0,1-.23-.56.76.76,0,0,1,.21-.54.84.84,0,0,1,.52-.26h1.82a.77.77,0,0,1,.56.23.75.75,0,0,1,.23.57.73.73,0,0,1-.23.56.77.77,0,0,1-.56.23Z" transform="translate(-28.35 -83.55)"/><path class="cls-1" d="M84.39,196.93a.79.79,0,0,1-.57-.23.81.81,0,0,1-.23-.57.73.73,0,0,1,.22-.54.78.78,0,0,1,.51-.25h1.82a.79.79,0,0,1,.79.79.79.79,0,0,1-.79.8Z" transform="translate(-28.35 -83.55)"/></svg>