<?xml version="1.0" encoding="utf-8"?>
<!-- Generator: Adobe Illustrator 23.0.1, SVG Export Plug-In . SVG Version: 6.00 Build 0)  -->
<svg version="1.1" id="Слой_1" xmlns="http://www.w3.org/2000/svg" xmlns:xlink="http://www.w3.org/1999/xlink" x="0px" y="0px"
	 viewBox="100 200 700 500" style="enable-background:new 0 0 900 900;" xml:space="preserve">
<style type="text/css">
	.st0{fill:#153E4E;}
	.st1{fill:#FFFFFF;}
</style>
<rect y="0" class="st0" width="900" height="900.01"/>
<g>
	<g>
		<path class="st1" d="M229.56,581.87c-1.82-2.55-4.05-4.64-6.68-6.25c-2.63-1.62-5.57-2.44-8.81-2.44H158.6
			c-3.48,0-6.6,0.81-9.36,2.44c-2.75,1.62-5.1,3.7-7.05,6.25c-1.94,2.55-3.42,5.41-4.44,8.57c-1.01,3.16-1.52,6.24-1.52,9.23v20.66
			c0,1.62,0.57,3,1.7,4.13c1.13,1.14,2.51,1.7,4.13,1.7c1.62,0,2.99-0.57,4.13-1.7c1.13-1.13,1.7-2.51,1.7-4.13v-20.66
			c0-1.46,0.18-3.06,0.55-4.8c0.36-1.74,1.05-3.34,2.07-4.8c1.01-1.46,2.39-2.7,4.13-3.71c1.74-1.01,4.03-1.52,6.86-1.52h48.42
			c2.75,0,5.02,0.51,6.8,1.52c1.78,1.01,3.18,2.24,4.19,3.71c1.01,1.46,1.7,3.06,2.07,4.8c0.36,1.74,0.55,3.34,0.55,4.8v20.66
			c0,1.62,0.56,3,1.7,4.13c1.13,1.14,2.51,1.7,4.13,1.7c1.62,0,3-0.57,4.13-1.7c1.13-1.13,1.7-2.51,1.7-4.13v-20.66
			c0-2.99-0.49-6.07-1.46-9.23C232.78,587.27,231.38,584.42,229.56,581.87z"/>
		<path class="st1" d="M339.85,581.87c-1.82-2.55-4.05-4.64-6.68-6.25c-2.63-1.62-5.57-2.44-8.81-2.44h-55.4
			c-3.48,0-6.6,0.81-9.36,2.44c-2.75,1.62-5.1,3.7-7.05,6.25c-1.94,2.55-3.42,5.41-4.44,8.57c-1.01,3.16-1.52,6.24-1.52,9.23
			c0,3,0.49,6.08,1.46,9.24c0.97,3.16,2.37,6.01,4.19,8.57c1.82,2.55,4.03,4.64,6.62,6.25c2.59,1.62,5.55,2.43,8.87,2.43h55.4
			c3.48,0,6.6-0.81,9.36-2.43c2.75-1.62,5.1-3.71,7.05-6.25c1.94-2.55,3.42-5.39,4.43-8.51c1.01-3.11,1.52-6.22,1.52-9.29
			c0-2.99-0.49-6.07-1.46-9.23C343.07,587.27,341.67,584.42,339.85,581.87z M333.65,604.47c-0.36,1.74-1.05,3.34-2.07,4.8
			c-1.01,1.46-2.41,2.7-4.19,3.71c-1.78,1.01-4.05,1.52-6.81,1.52h-49.08c-2.84,0-5.12-0.51-6.86-1.52
			c-1.74-1.01-3.12-2.25-4.13-3.71c-1.01-1.46-1.7-3.06-2.07-4.8c-0.36-1.74-0.55-3.34-0.55-4.8c0-1.46,0.18-3.06,0.55-4.8
			c0.36-1.74,1.05-3.34,2.07-4.8c1.01-1.46,2.39-2.7,4.13-3.71c1.74-1.01,4.03-1.52,6.86-1.52h49.08c2.75,0,5.02,0.51,6.81,1.52
			c1.78,1.01,3.18,2.24,4.19,3.71c1.01,1.46,1.7,3.06,2.07,4.8c0.36,1.74,0.55,3.34,0.55,4.8
			C334.2,601.12,334.02,602.73,333.65,604.47z"/>
		<path class="st1" d="M452.24,599.79c-1.38-1.38-3.08-2.7-5.1-3.95c-2.03-1.25-4.33-1.92-6.92-2.01
			c-12.31-0.08-28.6-0.1-40.71-0.06c-10.18,0.04-20.48,0.05-30.8,0.05v-8.98h71.02c1.62,0,2.99-0.57,4.13-1.7
			c1.14-1.14,1.7-2.51,1.7-4.13c0-1.62-0.56-3-1.7-4.13c-1.13-1.14-2.51-1.71-4.13-1.71h-76.85c-1.62,0-3,0.57-4.13,1.71
			c-1.13,1.13-1.7,2.51-1.7,4.13h0v20.65v20.66c0,1.62,0.57,3,1.7,4.13c1.13,1.14,2.51,1.7,4.13,1.7h76.73
			c2.27,0,4.39-0.42,6.37-1.28c1.99-0.85,3.73-2,5.23-3.46c1.5-1.46,2.67-3.16,3.53-5.11c0.85-1.94,1.28-4.04,1.28-6.32
			c0-1.94-0.35-3.79-1.03-5.53C454.28,602.73,453.37,601.17,452.24,599.79z M443.31,613.15c-0.93,0.89-2,1.34-3.22,1.34H368.7v-8.99
			h71.39c1.21,0,2.29,0.42,3.22,1.27c0.93,0.85,1.4,1.93,1.4,3.22C444.7,611.21,444.24,612.26,443.31,613.15z"/>
		<path class="st1" d="M559.75,584.84c1.62,0,3-0.57,4.14-1.7c1.13-1.14,1.7-2.51,1.7-4.13c0-1.62-0.57-3-1.7-4.13
			c-1.14-1.14-2.51-1.71-4.14-1.71h-87.3c-1.62,0-2.99,0.57-4.13,1.71c-1.13,1.13-1.7,2.51-1.7,4.13h0v20.29v0.36v10.57
			c0,2.43,0.45,4.62,1.33,6.56c0.89,1.94,2.03,3.6,3.41,4.98c1.37,1.38,2.95,2.45,4.73,3.22c1.78,0.77,3.57,1.15,5.34,1.15h78.31
			c1.62,0,3-0.57,4.14-1.7c1.13-1.13,1.7-2.51,1.7-4.13s-0.57-2.99-1.7-4.13c-1.14-1.14-2.51-1.7-4.14-1.7h-77.7
			c-1.14,0-2.05-0.3-2.73-0.91c-0.69-0.61-1.03-1.32-1.03-2.13v-5.95h81.47c1.62,0,3-0.57,4.14-1.71c1.13-1.13,1.7-2.51,1.7-4.13
			c0-1.62-0.57-2.99-1.7-4.13c-1.14-1.13-2.51-1.7-4.14-1.7h-81.47v-8.99H559.75z"/>
		<path class="st1" d="M664.46,614.49h-8.71l-22.35-37.79c-1.21-2.02-2.95-3.52-5.22-4.5c-2.27-0.97-4.62-1.46-7.05-1.46
			c-2.59,0-5.06,0.55-7.41,1.64c-2.35,1.09-4.13,2.65-5.35,4.68l-22.2,37.42h-8.37c-1.62,0-2.99,0.57-4.13,1.7
			c-1.14,1.14-1.7,2.51-1.7,4.13c0,1.54,0.53,2.85,1.58,3.95c1.05,1.09,2.31,1.72,3.76,1.88h87.15c1.62,0,2.99-0.57,4.13-1.7
			c1.13-1.13,1.7-2.51,1.7-4.13s-0.57-2.99-1.7-4.13C667.45,615.05,666.07,614.49,664.46,614.49z M616.51,586.06
			c0.41-0.73,1.05-1.46,1.94-2.19c0.89-0.73,1.78-1.1,2.67-1.1c0.89,0,1.8,0.37,2.73,1.1c0.93,0.73,1.6,1.46,2.01,2.19l16.65,28.43
			h-42.96L616.51,586.06z"/>
		<path class="st1" d="M763.21,618.13c-0.37-0.65-0.75-1.29-1.16-1.94l-29.52-39.49c-1.38-1.86-3.16-3.32-5.34-4.37
			c-2.19-1.05-4.5-1.58-6.93-1.58c-2.59,0-5.02,0.59-7.29,1.76c-2.27,1.17-4.09,2.7-5.47,4.56l-29.53,39.72
			c-0.81,0.81-1.21,1.99-1.21,3.52c0,1.62,0.57,3,1.71,4.13c1.13,1.14,2.51,1.7,4.13,1.7c1.86,0,3.36-0.73,4.49-2.19l9.52-12.63
			h47.32l9.37,12.51c1.05,1.54,2.59,2.3,4.62,2.3c1.62,0,2.99-0.57,4.13-1.7c1.14-1.13,1.7-2.51,1.7-4.13
			C763.76,619.51,763.58,618.78,763.21,618.13z M705.4,599.67l10.25-13.61c0.49-0.65,1.15-1.36,2.01-2.12
			c0.85-0.77,1.72-1.16,2.61-1.16c0.89,0,1.76,0.38,2.61,1.16c0.85,0.77,1.56,1.47,2.13,2.12l10.2,13.61H705.4z"/>
	</g>
	<g>
		<path class="st1" d="M307.85,525.42c0.58-0.84,1.38-1.56,2.39-2.14c1.01-0.58,2.33-0.88,3.97-0.88h39.46
			c0.94,0,1.73-0.33,2.39-0.98c0.65-0.66,0.98-1.45,0.98-2.39c0-0.94-0.33-1.73-0.98-2.39c-0.66-0.66-1.45-0.98-2.39-0.98h-40.94
			c-2.01,0-3.82,0.47-5.41,1.4c-1.59,0.94-2.95,2.14-4.07,3.62c-1.12,1.47-1.98,3.12-2.56,4.95c-0.59,1.83-0.88,3.61-0.88,5.34
			c0,1.78,0.28,3.57,0.84,5.37c0.56,1.8,1.37,3.44,2.42,4.92c1.05,1.47,2.33,2.68,3.83,3.62c1.5,0.94,3.21,1.4,5.13,1.4h41.64
			c0.94,0,1.73-0.33,2.39-0.98c0.65-0.65,0.98-1.45,0.98-2.39c0-0.94-0.33-1.73-0.98-2.39c-0.66-0.66-1.45-0.98-2.39-0.98h-39.46
			c-1.64,0-2.96-0.29-3.97-0.88c-1.01-0.58-1.8-1.3-2.39-2.14c-0.59-0.84-0.98-1.77-1.19-2.77c-0.21-1.01-0.32-1.93-0.32-2.77
			c0-0.84,0.1-1.77,0.32-2.77C306.87,527.19,307.26,526.26,307.85,525.42z"/>
		<path class="st1" d="M417.64,525.07c0-1.31-0.25-2.54-0.74-3.69c-0.49-1.15-1.17-2.14-2.04-2.98c-0.87-0.84-1.87-1.51-3.02-2
			c-1.15-0.49-2.38-0.74-3.69-0.74H366.1c-0.94,0-1.73,0.33-2.39,0.98c-0.66,0.66-0.98,1.45-0.98,2.39v23.87
			c0,0.94,0.33,1.73,0.98,2.39c0.66,0.66,1.45,0.98,2.39,0.98h42.06c1.31,0,2.54-0.25,3.69-0.74c1.15-0.49,2.15-1.16,3.02-2
			c0.87-0.84,1.54-1.82,2.04-2.95c0.49-1.12,0.74-2.34,0.74-3.65c0-1.12-0.2-2.19-0.6-3.19c-0.4-1.01-0.92-1.91-1.58-2.7
			c0.66-0.8,1.18-1.7,1.58-2.7C417.44,527.33,417.64,526.24,417.64,525.07z M410.3,538.76c-0.54,0.52-1.16,0.77-1.86,0.77h-38.97
			v-5.2h38.97c0.7,0,1.32,0.25,1.86,0.74c0.54,0.49,0.81,1.11,0.81,1.86C411.11,537.64,410.84,538.24,410.3,538.76z M410.34,526.89
			c-0.52,0.47-1.12,0.7-1.83,0.7h-39.04v-5.2h38.97c0.7,0,1.32,0.27,1.86,0.81c0.54,0.54,0.81,1.16,0.81,1.86
			C411.11,525.82,410.85,526.43,410.34,526.89z"/>
		<path class="st1" d="M539.59,524.77c0-1.31-0.25-2.53-0.74-3.65c-0.49-1.12-1.16-2.11-2-2.95c-0.84-0.84-1.84-1.5-2.98-1.97
			c-1.15-0.47-2.38-0.7-3.69-0.7h-42.55c-0.94,0-1.73,0.33-2.39,0.98c-0.66,0.66-0.98,1.45-0.98,2.39s0.33,1.73,0.98,2.39
			c0.66,0.66,1.45,0.98,2.39,0.98h42.9c0.7,0,1.31,0.25,1.83,0.74c0.51,0.49,0.77,1.09,0.77,1.79c0,0.75-0.26,1.38-0.77,1.9
			c-0.52,0.51-1.12,0.77-1.83,0.77h-34.9c-0.94,0-1.73,0.33-2.39,0.98c-0.66,0.66-0.98,1.45-0.98,2.39c0,0.94,0.33,1.73,0.98,2.39
			c0.66,0.66,1.45,0.98,2.39,0.98h34.9c0.7,0,1.31,0.26,1.83,0.77c0.51,0.52,0.77,1.15,0.77,1.9c0,0.7-0.26,1.3-0.77,1.79
			c-0.52,0.49-1.12,0.74-1.83,0.74h-42.9c-0.94,0-1.73,0.33-2.39,0.98c-0.66,0.66-0.98,1.45-0.98,2.39s0.33,1.73,0.98,2.39
			c0.66,0.66,1.45,0.98,2.39,0.98h42.55c1.31,0,2.54-0.23,3.69-0.7c1.15-0.47,2.14-1.12,2.98-1.97c0.84-0.84,1.51-1.82,2-2.95
			c0.49-1.12,0.74-2.34,0.74-3.65c0-2.25-0.75-4.26-2.25-6.04c0.7-0.8,1.25-1.71,1.65-2.74
			C539.39,527.04,539.59,525.94,539.59,524.77z"/>
		<path class="st1" d="M599.45,533.28c-0.49-1.12-1.17-2.11-2.04-2.95c-0.87-0.84-1.87-1.51-3.02-2c-1.15-0.49-2.38-0.74-3.69-0.74
			h-38.69v-8.57c0-0.94-0.34-1.73-1.02-2.39c-0.68-0.66-1.46-0.98-2.35-0.98c-0.94,0-1.73,0.33-2.39,0.98
			c-0.66,0.66-0.98,1.45-0.98,2.39v23.87c0,0.94,0.33,1.73,0.98,2.39c0.66,0.66,1.45,0.98,2.39,0.98h42.06
			c1.31,0,2.54-0.25,3.69-0.74c1.15-0.49,2.15-1.16,3.02-2c0.87-0.84,1.54-1.82,2.04-2.95c0.49-1.12,0.74-2.34,0.74-3.65
			S599.94,534.41,599.45,533.28z M592.85,538.76c-0.54,0.52-1.16,0.77-1.86,0.77h-38.97v-5.2h38.97c0.7,0,1.32,0.25,1.86,0.74
			c0.54,0.49,0.81,1.11,0.81,1.86C593.66,537.64,593.39,538.24,592.85,538.76z"/>
		<path class="st1" d="M477.79,521.07c-0.52-1.12-1.17-2.08-1.97-2.88c-0.8-0.8-1.71-1.42-2.74-1.86c-1.03-0.44-2.06-0.67-3.09-0.67
			h-36.65c-1.31,0-2.55,0.25-3.72,0.74c-1.17,0.49-2.2,1.16-3.09,2c-0.89,0.84-1.59,1.83-2.11,2.95c-0.52,1.12-1.16,5.2-0.12,7.75
			c1.23,3.04,3.88,6.32,8.99,7.77c-1.21,1.24-2.35,2.61-3.39,4.14c-0.47,0.7-0.7,1.33-0.7,1.9c0,0.94,0.33,1.73,0.98,2.39
			c0.66,0.66,1.45,0.98,2.39,0.98c0.47,0,0.89-0.09,1.26-0.28c0.37-0.19,0.72-0.42,1.05-0.7c0.33-0.33,0.54-0.56,0.63-0.7
			c1.92-2.39,3.9-4.26,5.93-5.62c0.75-0.5,1.52-0.94,2.3-1.35l28.07,0v5.28c0,0.94,0.34,1.73,1.02,2.39
			c0.68,0.66,1.46,0.98,2.35,0.98c0.94,0,1.73-0.33,2.39-0.98c0.66-0.65,0.98-1.45,0.98-2.39v-5.28v-6.94v-5.83
			C478.56,523.45,478.3,522.19,477.79,521.07z M442.61,530.69h-4.27c-7.37-0.33-7.9-4.84-7.93-5.74h-0.01
			c0.01-0.68,0.25-1.25,0.73-1.71c0.49-0.47,1.06-0.75,1.72-0.84h36.79c0.61,0,1.1,0.15,1.47,0.46c0.37,0.3,0.61,0.67,0.7,1.09v6.74
			H442.61z"/>
	</g>
	<g>
		<path class="st1" d="M136.43,460.94c23.45,14.74,50.96,21.41,78.21,23.48c13.67,1.14,27.43,0.95,41.06-0.35
			c13.63-1.29,27.13-3.83,40.16-7.87c13.04-3.96,25.56-9.56,36.84-16.97l17.13-11.6l9.04-5.47c3.07-1.72,6.3-3.1,9.45-4.66
			c12.82-5.72,26.32-9.7,40.03-12.38c13.76-2.46,27.69-3.7,41.65-3.88c13.96,0.17,27.89,1.42,41.65,3.88
			c13.71,2.68,27.21,6.66,40.03,12.38c3.15,1.56,6.38,2.94,9.45,4.67l9.04,5.47l17.13,11.6c5.58,3.79,11.6,6.95,17.76,9.77
			c6.18,2.8,12.54,5.25,19.06,7.23c26.1,7.97,53.91,10.32,81.22,8.22c27.25-2.12,54.73-8.8,78.21-23.5
			c-11.33,7.9-24.07,13.72-37.28,17.87c-13.21,4.2-26.89,6.85-40.69,8.34c-27.6,2.67-55.81,0.81-82.68-6.84
			c-13.4-3.87-26.49-9.29-38.27-17.09l-17.21-11.5l-8.7-5.18c-2.95-1.64-6.09-2.94-9.13-4.43c-12.41-5.44-25.55-9.24-38.93-11.77
			c-13.43-2.32-27.05-3.44-40.68-3.55c-13.64,0.1-27.26,1.23-40.69,3.54c-13.38,2.53-26.52,6.33-38.93,11.77
			c-3.03,1.49-6.17,2.8-9.13,4.43l-8.7,5.19l-17.21,11.5c-11.81,7.73-24.85,13.27-38.28,17.06c-13.41,3.89-27.21,6.22-41.07,7.27
			c-13.86,1.05-27.8,1.03-41.6-0.43c-13.8-1.42-27.48-4.12-40.69-8.29C160.51,474.64,147.75,468.86,136.43,460.94z"/>
		<path class="st1" d="M136.43,429.17c9.78,11.99,21.56,22.27,34.74,30.12c13.19,7.8,27.78,13.21,42.83,15.49l2.81,0.48l2.84,0.31
			l5.67,0.61l5.69,0.21l2.84,0.1l2.84-0.1c7.6,0,15.13-1.21,22.55-2.61c14.74-3.38,29-9.1,41.45-17.65
			c12.54-8.43,23.42-18.99,32.45-31.22l14.05-18.47c4.83-6.22,10.03-12.34,15.86-17.77c23.13-22.03,54.93-34.66,86.94-34.72
			c32.01,0.05,63.81,12.7,86.95,34.72c5.83,5.42,11.03,11.55,15.86,17.77l14.05,18.47c9.07,12.19,19.88,22.81,32.42,31.24
			c25.01,16.89,56.68,23.75,86.71,18.65c15.02-2.4,29.64-7.7,42.82-15.53c6.57-3.94,12.82-8.46,18.64-13.5
			c5.79-5.08,11.16-10.65,16.11-16.6c-18,25.24-45.97,43.46-76.85,49.65c-30.89,6.11-64.16-0.18-90.93-17.29
			c-13.4-8.46-25.21-19.61-34.71-32.16l-14.28-18.29c-4.73-5.93-9.64-11.58-15.22-16.63c-21.92-20.54-51.65-32.24-81.58-32.17
			c-29.93-0.09-59.66,11.63-81.59,32.15c-5.57,5.06-10.49,10.7-15.22,16.63l-14.28,18.29c-2.32,3.05-5.04,6.09-7.54,9.13
			c-2.73,2.88-5.42,5.81-8.35,8.49c-3,2.6-5.87,5.36-9.11,7.66c-1.59,1.19-3.14,2.43-4.76,3.58l-4.98,3.25
			c-13.32,8.66-28.43,14.3-43.88,17.44c-7.79,1.28-15.65,2.32-23.54,2.14l-2.95,0.03l-2.95-0.17l-5.89-0.36l-5.85-0.77l-2.92-0.39
			l-2.89-0.61C182.37,472.72,154.44,454.36,136.43,429.17z"/>
		<path class="st1" d="M136.43,363.86c4.09,9.18,8.56,18.17,13.55,26.84c4.95,8.68,10.41,17.07,16.56,24.87
			c6.16,7.78,12.94,15.05,20.52,21.28c7.57,6.19,15.89,11.52,24.96,14.65l3.39,1.17c1.13,0.39,2.24,0.84,3.42,1.02l6.97,1.46
			l7.07,0.53c2.35,0.12,4.71-0.23,7.06-0.3c9.38-0.93,18.43-4.1,26.71-8.72c8.28-4.71,15.57-11.07,22.4-17.83l4.8-5.44l2.4-2.72
			l2.19-2.92l4.38-5.82c1.41-1.98,2.67-4.08,4.01-6.12c1.29-2.07,2.7-4.05,3.9-6.19l3.56-6.42c2.49-4.21,4.49-8.71,6.63-13.12
			c2.22-4.37,3.99-8.98,5.93-13.5c1.94-4.47,3.73-9.2,5.56-13.88l10.94-28.06c1.76-4.65,3.81-9.43,5.75-14.15
			c1.99-4.72,4.25-9.35,6.45-14c9.25-18.38,20.79-35.99,36.1-50.72c7.74-7.24,16.5-13.68,26.37-18.36c9.83-4.69,20.84-7.51,32-7.55
			c11.16,0.04,22.17,2.87,32,7.56c9.87,4.69,18.62,11.13,26.36,18.37c15.31,14.73,26.83,32.35,36.1,50.72
			c2.19,4.65,4.46,9.28,6.45,14.01c1.94,4.73,3.99,9.5,5.75,14.15l10.94,28.06c1.83,4.67,3.63,9.4,5.53,13.89l2.84,6.81l3.1,6.68
			c1.95,4.52,4.39,8.76,6.58,13.16l3.66,6.35l1.84,3.17l2,3.06c5.18,8.27,11.2,15.95,17.85,22.94c6.66,6.97,14.11,13.14,22.34,17.89
			c8.23,4.73,17.32,7.87,26.7,8.74c9.37,0.91,18.95-0.52,27.91-3.87c9-3.31,17.37-8.49,24.93-14.7c7.56-6.24,14.42-13.43,20.5-21.28
			c6.11-7.82,11.7-16.12,16.58-24.85c5.1-8.61,9.4-17.68,13.59-26.82c-6.89,18.84-15.39,37.32-27.08,53.96
			c-5.71,8.4-12.48,16.13-20.07,23.06c-7.61,6.89-16.25,12.87-25.94,16.97c-9.66,4.09-20.37,6.1-31.02,5.48
			c-10.66-0.58-21.1-3.77-30.46-8.7c-9.4-4.9-17.71-11.52-25.11-18.84c-7.39-7.35-14.03-15.4-19.74-23.99l-2.2-3.19l-2.03-3.29
			l-4.04-6.59c-2.42-4.52-5.1-8.94-7.26-13.59l-3.37-6.92l-3.07-7.04c-2.09-4.72-3.94-9.35-5.84-14l-11.4-27.88
			c-1.88-4.71-3.87-9.13-5.81-13.66c-1.98-4.49-4.21-8.86-6.36-13.25c-4.63-8.6-9.4-17.12-15.02-24.98
			c-5.61-7.85-11.76-15.28-18.65-21.8c-6.95-6.42-14.61-11.95-22.92-15.84c-8.29-3.9-17.2-6.08-26.16-6.11
			c-8.95,0-17.87,2.19-26.16,6.08c-8.31,3.89-15.98,9.41-22.93,15.83c-6.89,6.52-13.04,13.94-18.65,21.8
			c-5.61,7.87-10.42,16.37-15.04,24.98c-2.16,4.39-4.38,8.76-6.36,13.25c-1.94,4.53-3.93,8.95-5.81,13.66l-11.4,27.88
			c-1.9,4.65-3.75,9.28-5.87,13.99c-2.1,4.67-3.98,9.43-6.45,13.95c-2.36,4.56-4.57,9.18-7.31,13.56l-3.93,6.64
			c-1.32,2.21-2.87,4.29-4.3,6.44c-1.48,2.12-2.86,4.29-4.42,6.36l-4.83,6.09l-2.42,3.04l-2.65,2.86l-5.33,5.7
			c-7.59,7.15-15.73,13.9-25.18,18.78c-9.42,4.82-19.79,8.04-30.45,8.69c-2.67,0.01-5.33,0.26-7.98,0.04l-7.92-0.9l-7.7-1.91
			c-2.57-0.62-4.94-1.82-7.4-2.72c-9.76-3.92-18.34-10.05-25.96-16.9c-7.62-6.91-14.29-14.71-20.09-23.05
			C151.81,401.18,143.3,382.72,136.43,363.86z"/>
	</g>
</g>
</svg>
