<svg id="Слой_1" data-name="Слой 1" xmlns="http://www.w3.org/2000/svg" viewBox="0 0 79 79"><defs><style>.cls-1{fill:#153f53;}.cls-2{fill:#fff;}</style></defs><title>Иконка_01</title><circle class="cls-1" cx="39.5" cy="39.5" r="35.16"/><path class="cls-2" d="M43.54,32.21H35.46s-5.65,4.85-5.65,10.5a4.55,4.55,0,0,0,4,4.85H45.16a4.55,4.55,0,0,0,4-4.85c0-5.65-5.65-10.5-5.65-10.5Z"/><path class="cls-2" d="M43.54,27.37H41.31a2.42,2.42,0,0,0-3.61,0H35.46a.8.8,0,0,0-.66.35.83.83,0,0,0-.09.75l.75,2.13h8.08l.75-2.13a.8.8,0,0,0-.75-1.1Z"/><path class="cls-1" d="M40,40.65H38.74v.57H41v.91h-2.3v1H37.32v-1h-.78v-.91h.78v-.57h-.78V39.4h.78V35.92H40a2.35,2.35,0,0,1,1.73.7,2.33,2.33,0,0,1,.71,1.7,2.18,2.18,0,0,1-.7,1.66A2.38,2.38,0,0,1,40,40.65Zm0-3.4H38.74V39.4H40a1,1,0,0,0,.73-.32,1.14,1.14,0,0,0,0-1.52A1,1,0,0,0,40,37.25Z"/></svg>