<svg id="Слой_1" data-name="Слой 1" xmlns="http://www.w3.org/2000/svg" viewBox="0 0 79 79"><defs><style>.cls-1{fill:#153f53;}.cls-2{fill:#fff;}</style></defs><title>Иконка_01</title><circle class="cls-1" cx="39.5" cy="39.5" r="35.16"/><path class="cls-2" d="M51.75,49.07h-.61a.44.44,0,0,1-.46-.43V43.86a.45.45,0,0,0-.47-.43H50a.27.27,0,0,1-.29-.29V35.92s0,0,0-.08l.54-1.33a.5.5,0,0,0-.33-.64L37.85,29.59a.51.51,0,0,1-.36-.57L37.85,27a.43.43,0,0,0-.32-.5L36.05,26a.55.55,0,0,0-.61.18L33.36,29.2s0,.1-.07.14l-.65,3.59a.44.44,0,0,0,.32.51l1.47.5a.56.56,0,0,0,.62-.18L36.27,32a.57.57,0,0,1,.64-.22l2.12.76c0,.07,0,.11,0,.18L37.74,48.6a.44.44,0,0,1-.47.4H27.21a.44.44,0,0,0-.46.43v1.51a.44.44,0,0,0,.46.43H51.79a.45.45,0,0,0,.47-.43V49.43a.52.52,0,0,0-.51-.36ZM40.58,36h0v0l2.33-1.91c.11-.07.22,0,.26.18l.32,4.24c0,.18-.14.33-.25.22Zm2.12,3.74h0s0,0,0,0l-3.16,2c-.11.08-.21-.07-.21-.21l.36-4.42c0-.18.14-.25.25-.15Zm.83,1c.1-.07.21,0,.21.18l.33,3.74c0,.18-.11.29-.22.22l-3.31-2.27Zm-1.91-7.29h0L40.08,34.8c-.11.11-.26,0-.26-.21l.11-1.26c0-.11.07-.22.15-.22h.46Zm-2.91,15,.36-5c0-.14.14-.25.22-.18L43,45.87a.24.24,0,0,1,0,.4l-4.06,2.47c-.11.08-.22,0-.22-.21Zm5.18.54H41.48c-.18,0-.25-.22-.11-.29L44,47.16c.11-.07.21,0,.21.18l.11,1.26a.47.47,0,0,1-.46.47Zm3.23-4.92v4.49a.45.45,0,0,1-.47.43h-.82a.44.44,0,0,1-.47-.4l-1.12-13.8a.3.3,0,0,1,.4-.28l3.23,1.15a.51.51,0,0,1,.33.43v7a.32.32,0,0,1-.29.29.76.76,0,0,0-.79.72Z"/></svg>