<svg id="Слой_1" data-name="Слой 1" xmlns="http://www.w3.org/2000/svg" viewBox="0 0 79 79"><defs><style>.cls-1{fill:#153f53;}.cls-2{fill:#fff;fill-rule:evenodd;}</style></defs><title>Иконка_01</title><circle class="cls-1" cx="39.5" cy="39.5" r="35.16"/><path class="cls-2" d="M37.31,40.93H41.7a3.59,3.59,0,0,1,3.58,3.58v5.63H33.72V44.51a3.59,3.59,0,0,1,3.59-3.58ZM33.14,28.86a3.25,3.25,0,0,1,3.22,3.22,3.19,3.19,0,0,1-3.22,3.14A3.12,3.12,0,0,1,30,32.08,3.18,3.18,0,0,1,33.14,28.86Zm10.53,7.83h4.39a3.58,3.58,0,0,1,3.58,3.58V45.9H46.23V44.37a4.21,4.21,0,0,0-4.17-4.17H40.74a4.22,4.22,0,0,0,2.86-3.51Zm2.2-7.83A3.18,3.18,0,0,1,49,32.08a3.12,3.12,0,0,1-3.14,3.14,3.18,3.18,0,0,1-3.22-3.14A3.24,3.24,0,0,1,45.87,28.86ZM30.94,36.69h4.47a4.09,4.09,0,0,0,2.85,3.51H36.94a4.21,4.21,0,0,0-4.17,4.17V45.9H27.36V40.27a3.58,3.58,0,0,1,3.58-3.58ZM39.5,33.1a3.24,3.24,0,0,1,3.22,3.22,3.22,3.22,0,0,1-6.44,0A3.25,3.25,0,0,1,39.5,33.1Z"/></svg>