<svg id="Слой_1" data-name="Слой 1" xmlns="http://www.w3.org/2000/svg" viewBox="0 0 79 79"><defs><style>.cls-1{fill:#153f53;}.cls-2{fill:#fff;}</style></defs><title>Иконка_01</title><circle class="cls-1" cx="39.5" cy="39.5" r="35.16"/><path class="cls-2" d="M47.85,32.94c-5.6-2.24-7.68-4.06-7.71-4.08a1,1,0,0,0-1.3,0s-2.09,1.81-7.71,4.08a1,1,0,0,0-.62.92c0,11.56,8.14,16.23,8.51,16.42a.89.89,0,0,0,.48.11,1.2,1.2,0,0,0,.48-.11c.35-.19,8.51-4.86,8.51-16.42a1.1,1.1,0,0,0-.64-.92ZM43.38,37.6l-4.13,4.12a1.08,1.08,0,0,1-.76.33,1.06,1.06,0,0,1-.75-.33l-2.16-2.15a1.08,1.08,0,0,1,0-1.51,1.06,1.06,0,0,1,1.51,0l1.4,1.39,3.37-3.37a1.07,1.07,0,0,1,1.52,1.52Z"/></svg>