<?xml version="1.0" encoding="utf-8"?>
<!-- Generator: Adobe Illustrator 23.0.1, SVG Export Plug-In . SVG Version: 6.00 Build 0)  -->
<svg version="1.1" id="Слой_1" xmlns="http://www.w3.org/2000/svg" xmlns:xlink="http://www.w3.org/1999/xlink" x="0px" y="0px"
	 viewBox="0 0 136.06 136.06" style="enable-background:new 0 0 136.06 136.06;" xml:space="preserve">
<style type="text/css">
	.st0{fill:#FFFFFF;}
	.st1{fill:#153F53;}
</style>
<g>
	<path class="st0" d="M124.61,136.06H11.46C5.13,136.06,0,130.93,0,124.61V11.46C0,5.13,5.13,0,11.46,0h113.15
		c6.33,0,11.46,5.13,11.46,11.46v113.15C136.06,130.93,130.93,136.06,124.61,136.06z"/>
	<g>
		<g transform="translate(360,48) scale(4.12)">
			<rect x="-70.33" y="-8.9" class="st1" width="1.13" height="1.13"/>
		</g>
		<g transform="translate(432,48) scale(4.12)">
			<rect x="-84.51" y="-8.9" class="st1" width="1.13" height="1.13"/>
		</g>
		<g transform="translate(360,72) scale(4.12)">
			<rect x="-70.33" y="-13.62" class="st1" width="1.13" height="1.13"/>
		</g>
		<g transform="translate(384,72) scale(4.12)">
			<rect x="-75.06" y="-13.62" class="st1" width="1.13" height="1.13"/>
		</g>
		<g transform="translate(408,72) scale(4.12)">
			<rect x="-79.78" y="-13.62" class="st1" width="1.13" height="1.13"/>
		</g>
		<g transform="translate(432,72) scale(4.12)">
			<rect x="-84.51" y="-13.62" class="st1" width="1.13" height="1.13"/>
		</g>
		<g transform="translate(240,96) scale(4.12)">
			<rect x="-46.7" y="-18.35" class="st1" width="1.13" height="1.13"/>
		</g>
		<g transform="translate(264,96) scale(4.12)">
			<rect x="-51.43" y="-18.35" class="st1" width="1.13" height="1.13"/>
		</g>
		<g transform="translate(288,96) scale(4.12)">
			<rect x="-56.16" y="-18.35" class="st1" width="1.13" height="1.13"/>
		</g>
		<g transform="translate(408,96) scale(4.12)">
			<rect x="-79.78" y="-18.35" class="st1" width="1.13" height="1.13"/>
		</g>
		<g transform="translate(240,120) scale(4.12)">
			<rect x="-46.7" y="-23.08" class="st1" width="1.13" height="1.13"/>
		</g>
		<g transform="translate(264,120) scale(4.12)">
			<rect x="-51.43" y="-23.08" class="st1" width="1.13" height="1.13"/>
		</g>
		<g transform="translate(336,120) scale(4.12)">
			<rect x="-65.61" y="-23.08" class="st1" width="1.13" height="1.13"/>
		</g>
		<g transform="translate(360,120) scale(4.12)">
			<rect x="-70.33" y="-23.08" class="st1" width="1.13" height="1.13"/>
		</g>
		<g transform="translate(384,120) scale(4.12)">
			<rect x="-75.06" y="-23.08" class="st1" width="1.13" height="1.13"/>
		</g>
		<g transform="translate(240,144) scale(4.12)">
			<rect x="-46.7" y="-27.8" class="st1" width="1.13" height="1.13"/>
		</g>
		<g transform="translate(312,144) scale(4.12)">
			<rect x="-60.88" y="-27.8" class="st1" width="1.13" height="1.13"/>
		</g>
		<g transform="translate(360,144) scale(4.12)">
			<rect x="-70.33" y="-27.8" class="st1" width="1.13" height="1.13"/>
		</g>
		<g transform="translate(432,144) scale(4.12)">
			<rect x="-84.51" y="-27.8" class="st1" width="1.13" height="1.13"/>
		</g>
		<g transform="translate(240,168) scale(4.12)">
			<rect x="-46.7" y="-32.53" class="st1" width="1.13" height="1.13"/>
		</g>
		<g transform="translate(264,168) scale(4.12)">
			<rect x="-51.43" y="-32.53" class="st1" width="1.13" height="1.13"/>
		</g>
		<g transform="translate(288,168) scale(4.12)">
			<rect x="-56.16" y="-32.53" class="st1" width="1.13" height="1.13"/>
		</g>
		<g transform="translate(312,168) scale(4.12)">
			<rect x="-60.88" y="-32.53" class="st1" width="1.13" height="1.13"/>
		</g>
		<g transform="translate(360,168) scale(4.12)">
			<rect x="-70.33" y="-32.53" class="st1" width="1.13" height="1.13"/>
		</g>
		<g transform="translate(408,168) scale(4.12)">
			<rect x="-79.78" y="-32.53" class="st1" width="1.13" height="1.13"/>
		</g>
		<g transform="translate(240,192) scale(4.12)">
			<rect x="-46.7" y="-37.25" class="st1" width="1.13" height="1.13"/>
		</g>
		<g transform="translate(288,192) scale(4.12)">
			<rect x="-56.16" y="-37.25" class="st1" width="1.13" height="1.13"/>
		</g>
		<g transform="translate(336,192) scale(4.12)">
			<rect x="-65.61" y="-37.25" class="st1" width="1.13" height="1.13"/>
		</g>
		<g transform="translate(384,192) scale(4.12)">
			<rect x="-75.06" y="-37.25" class="st1" width="1.13" height="1.13"/>
		</g>
		<g transform="translate(432,192) scale(4.12)">
			<rect x="-84.51" y="-37.25" class="st1" width="1.13" height="1.13"/>
		</g>
		<g transform="translate(240,216) scale(4.12)">
			<rect x="-46.7" y="-41.98" class="st1" width="1.13" height="1.13"/>
		</g>
		<g transform="translate(264,216) scale(4.12)">
			<rect x="-51.43" y="-41.98" class="st1" width="1.13" height="1.13"/>
		</g>
		<g transform="translate(312,216) scale(4.12)">
			<rect x="-60.88" y="-41.98" class="st1" width="1.13" height="1.13"/>
		</g>
		<g transform="translate(384,216) scale(4.12)">
			<rect x="-75.06" y="-41.98" class="st1" width="1.13" height="1.13"/>
		</g>
		<g transform="translate(408,216) scale(4.12)">
			<rect x="-79.78" y="-41.98" class="st1" width="1.13" height="1.13"/>
		</g>
		<g transform="translate(432,216) scale(4.12)">
			<rect x="-84.51" y="-41.98" class="st1" width="1.13" height="1.13"/>
		</g>
		<g transform="translate(48,240) scale(4.12)">
			<rect x="-8.9" y="-46.7" class="st1" width="1.13" height="1.13"/>
		</g>
		<g transform="translate(96,240) scale(4.12)">
			<rect x="-18.35" y="-46.7" class="st1" width="1.13" height="1.13"/>
		</g>
		<g transform="translate(120,240) scale(4.12)">
			<rect x="-23.08" y="-46.7" class="st1" width="1.13" height="1.13"/>
		</g>
		<g transform="translate(144,240) scale(4.12)">
			<rect x="-27.8" y="-46.7" class="st1" width="1.13" height="1.13"/>
		</g>
		<g transform="translate(168,240) scale(4.12)">
			<rect x="-32.53" y="-46.7" class="st1" width="1.13" height="1.13"/>
		</g>
		<g transform="translate(192,240) scale(4.12)">
			<rect x="-37.25" y="-46.7" class="st1" width="1.13" height="1.13"/>
		</g>
		<g transform="translate(264,240) scale(4.12)">
			<rect x="-51.43" y="-46.7" class="st1" width="1.13" height="1.13"/>
		</g>
		<g transform="translate(288,240) scale(4.12)">
			<rect x="-56.16" y="-46.7" class="st1" width="1.13" height="1.13"/>
		</g>
		<g transform="translate(312,240) scale(4.12)">
			<rect x="-60.88" y="-46.7" class="st1" width="1.13" height="1.13"/>
		</g>
		<g transform="translate(480,240) scale(4.12)">
			<rect x="-93.96" y="-46.7" class="st1" width="1.13" height="1.13"/>
		</g>
		<g transform="translate(504,240) scale(4.12)">
			<rect x="-98.69" y="-46.7" class="st1" width="1.13" height="1.13"/>
		</g>
		<g transform="translate(528,240) scale(4.12)">
			<rect x="-103.41" y="-46.7" class="st1" width="1.13" height="1.13"/>
		</g>
		<g transform="translate(552,240) scale(4.12)">
			<rect x="-108.14" y="-46.7" class="st1" width="1.13" height="1.13"/>
		</g>
		<g transform="translate(576,240) scale(4.12)">
			<rect x="-112.86" y="-46.7" class="st1" width="1.13" height="1.13"/>
		</g>
		<g transform="translate(72,264) scale(4.12)">
			<rect x="-13.62" y="-51.43" class="st1" width="1.13" height="1.13"/>
		</g>
		<g transform="translate(96,264) scale(4.12)">
			<rect x="-18.35" y="-51.43" class="st1" width="1.13" height="1.13"/>
		</g>
		<g transform="translate(168,264) scale(4.12)">
			<rect x="-32.53" y="-51.43" class="st1" width="1.13" height="1.13"/>
		</g>
		<g transform="translate(288,264) scale(4.12)">
			<rect x="-56.16" y="-51.43" class="st1" width="1.13" height="1.13"/>
		</g>
		<g transform="translate(312,264) scale(4.12)">
			<rect x="-60.88" y="-51.43" class="st1" width="1.13" height="1.13"/>
		</g>
		<g transform="translate(336,264) scale(4.12)">
			<rect x="-65.61" y="-51.43" class="st1" width="1.13" height="1.13"/>
		</g>
		<g transform="translate(360,264) scale(4.12)">
			<rect x="-70.33" y="-51.43" class="st1" width="1.13" height="1.13"/>
		</g>
		<g transform="translate(432,264) scale(4.12)">
			<rect x="-84.51" y="-51.43" class="st1" width="1.13" height="1.13"/>
		</g>
		<g transform="translate(504,264) scale(4.12)">
			<rect x="-98.69" y="-51.43" class="st1" width="1.13" height="1.13"/>
		</g>
		<g transform="translate(600,264) scale(4.12)">
			<rect x="-117.59" y="-51.43" class="st1" width="1.13" height="1.13"/>
		</g>
		<g transform="translate(72,288) scale(4.12)">
			<rect x="-13.62" y="-56.16" class="st1" width="1.13" height="1.13"/>
		</g>
		<g transform="translate(96,288) scale(4.12)">
			<rect x="-18.35" y="-56.16" class="st1" width="1.13" height="1.13"/>
		</g>
		<g transform="translate(192,288) scale(4.12)">
			<rect x="-37.25" y="-56.16" class="st1" width="1.13" height="1.13"/>
		</g>
		<g transform="translate(240,288) scale(4.12)">
			<rect x="-46.7" y="-56.16" class="st1" width="1.13" height="1.13"/>
		</g>
		<g transform="translate(288,288) scale(4.12)">
			<rect x="-56.16" y="-56.16" class="st1" width="1.13" height="1.13"/>
		</g>
		<g transform="translate(312,288) scale(4.12)">
			<rect x="-60.88" y="-56.16" class="st1" width="1.13" height="1.13"/>
		</g>
		<g transform="translate(360,288) scale(4.12)">
			<rect x="-70.33" y="-56.16" class="st1" width="1.13" height="1.13"/>
		</g>
		<g transform="translate(384,288) scale(4.12)">
			<rect x="-75.06" y="-56.16" class="st1" width="1.13" height="1.13"/>
		</g>
		<g transform="translate(408,288) scale(4.12)">
			<rect x="-79.78" y="-56.16" class="st1" width="1.13" height="1.13"/>
		</g>
		<g transform="translate(456,288) scale(4.12)">
			<rect x="-89.24" y="-56.16" class="st1" width="1.13" height="1.13"/>
		</g>
		<g transform="translate(552,288) scale(4.12)">
			<rect x="-108.14" y="-56.16" class="st1" width="1.13" height="1.13"/>
		</g>
		<g transform="translate(600,288) scale(4.12)">
			<rect x="-117.59" y="-56.16" class="st1" width="1.13" height="1.13"/>
		</g>
		<g transform="translate(624,288) scale(4.12)">
			<rect x="-122.32" y="-56.16" class="st1" width="1.13" height="1.13"/>
		</g>
		<g transform="translate(48,312) scale(4.12)">
			<rect x="-8.9" y="-60.88" class="st1" width="1.13" height="1.13"/>
		</g>
		<g transform="translate(96,312) scale(4.12)">
			<rect x="-18.35" y="-60.88" class="st1" width="1.13" height="1.13"/>
		</g>
		<g transform="translate(216,312) scale(4.12)">
			<rect x="-41.98" y="-60.88" class="st1" width="1.13" height="1.13"/>
		</g>
		<g transform="translate(240,312) scale(4.12)">
			<rect x="-46.7" y="-60.88" class="st1" width="1.13" height="1.13"/>
		</g>
		<g transform="translate(288,312) scale(4.12)">
			<rect x="-56.16" y="-60.88" class="st1" width="1.13" height="1.13"/>
		</g>
		<g transform="translate(360,312) scale(4.12)">
			<rect x="-70.33" y="-60.88" class="st1" width="1.13" height="1.13"/>
		</g>
		<g transform="translate(432,312) scale(4.12)">
			<rect x="-84.51" y="-60.88" class="st1" width="1.13" height="1.13"/>
		</g>
		<g transform="translate(456,312) scale(4.12)">
			<rect x="-89.24" y="-60.88" class="st1" width="1.13" height="1.13"/>
		</g>
		<g transform="translate(624,312) scale(4.12)">
			<rect x="-122.32" y="-60.88" class="st1" width="1.13" height="1.13"/>
		</g>
		<g transform="translate(72,336) scale(4.12)">
			<rect x="-13.62" y="-65.61" class="st1" width="1.13" height="1.13"/>
		</g>
		<g transform="translate(96,336) scale(4.12)">
			<rect x="-18.35" y="-65.61" class="st1" width="1.13" height="1.13"/>
		</g>
		<g transform="translate(120,336) scale(4.12)">
			<rect x="-23.08" y="-65.61" class="st1" width="1.13" height="1.13"/>
		</g>
		<g transform="translate(144,336) scale(4.12)">
			<rect x="-27.8" y="-65.61" class="st1" width="1.13" height="1.13"/>
		</g>
		<g transform="translate(168,336) scale(4.12)">
			<rect x="-32.53" y="-65.61" class="st1" width="1.13" height="1.13"/>
		</g>
		<g transform="translate(192,336) scale(4.12)">
			<rect x="-37.25" y="-65.61" class="st1" width="1.13" height="1.13"/>
		</g>
		<g transform="translate(216,336) scale(4.12)">
			<rect x="-41.98" y="-65.61" class="st1" width="1.13" height="1.13"/>
		</g>
		<g transform="translate(240,336) scale(4.12)">
			<rect x="-46.7" y="-65.61" class="st1" width="1.13" height="1.13"/>
		</g>
		<g transform="translate(288,336) scale(4.12)">
			<rect x="-56.16" y="-65.61" class="st1" width="1.13" height="1.13"/>
		</g>
		<g transform="translate(312,336) scale(4.12)">
			<rect x="-60.88" y="-65.61" class="st1" width="1.13" height="1.13"/>
		</g>
		<g transform="translate(336,336) scale(4.12)">
			<rect x="-65.61" y="-65.61" class="st1" width="1.13" height="1.13"/>
		</g>
		<g transform="translate(384,336) scale(4.12)">
			<rect x="-75.06" y="-65.61" class="st1" width="1.13" height="1.13"/>
		</g>
		<g transform="translate(456,336) scale(4.12)">
			<rect x="-89.24" y="-65.61" class="st1" width="1.13" height="1.13"/>
		</g>
		<g transform="translate(480,336) scale(4.12)">
			<rect x="-93.96" y="-65.61" class="st1" width="1.13" height="1.13"/>
		</g>
		<g transform="translate(504,336) scale(4.12)">
			<rect x="-98.69" y="-65.61" class="st1" width="1.13" height="1.13"/>
		</g>
		<g transform="translate(528,336) scale(4.12)">
			<rect x="-103.41" y="-65.61" class="st1" width="1.13" height="1.13"/>
		</g>
		<g transform="translate(576,336) scale(4.12)">
			<rect x="-112.86" y="-65.61" class="st1" width="1.13" height="1.13"/>
		</g>
		<g transform="translate(600,336) scale(4.12)">
			<rect x="-117.59" y="-65.61" class="st1" width="1.13" height="1.13"/>
		</g>
		<g transform="translate(624,336) scale(4.12)">
			<rect x="-122.32" y="-65.61" class="st1" width="1.13" height="1.13"/>
		</g>
		<g transform="translate(48,360) scale(4.12)">
			<rect x="-8.9" y="-70.33" class="st1" width="1.13" height="1.13"/>
		</g>
		<g transform="translate(72,360) scale(4.12)">
			<rect x="-13.62" y="-70.33" class="st1" width="1.13" height="1.13"/>
		</g>
		<g transform="translate(96,360) scale(4.12)">
			<rect x="-18.35" y="-70.33" class="st1" width="1.13" height="1.13"/>
		</g>
		<g transform="translate(144,360) scale(4.12)">
			<rect x="-27.8" y="-70.33" class="st1" width="1.13" height="1.13"/>
		</g>
		<g transform="translate(168,360) scale(4.12)">
			<rect x="-32.53" y="-70.33" class="st1" width="1.13" height="1.13"/>
		</g>
		<g transform="translate(240,360) scale(4.12)">
			<rect x="-46.7" y="-70.33" class="st1" width="1.13" height="1.13"/>
		</g>
		<g transform="translate(264,360) scale(4.12)">
			<rect x="-51.43" y="-70.33" class="st1" width="1.13" height="1.13"/>
		</g>
		<g transform="translate(504,360) scale(4.12)">
			<rect x="-98.69" y="-70.33" class="st1" width="1.13" height="1.13"/>
		</g>
		<g transform="translate(552,360) scale(4.12)">
			<rect x="-108.14" y="-70.33" class="st1" width="1.13" height="1.13"/>
		</g>
		<g transform="translate(600,360) scale(4.12)">
			<rect x="-117.59" y="-70.33" class="st1" width="1.13" height="1.13"/>
		</g>
		<g transform="translate(48,384) scale(4.12)">
			<rect x="-8.9" y="-75.06" class="st1" width="1.13" height="1.13"/>
		</g>
		<g transform="translate(96,384) scale(4.12)">
			<rect x="-18.35" y="-75.06" class="st1" width="1.13" height="1.13"/>
		</g>
		<g transform="translate(144,384) scale(4.12)">
			<rect x="-27.8" y="-75.06" class="st1" width="1.13" height="1.13"/>
		</g>
		<g transform="translate(192,384) scale(4.12)">
			<rect x="-37.25" y="-75.06" class="st1" width="1.13" height="1.13"/>
		</g>
		<g transform="translate(264,384) scale(4.12)">
			<rect x="-51.43" y="-75.06" class="st1" width="1.13" height="1.13"/>
		</g>
		<g transform="translate(288,384) scale(4.12)">
			<rect x="-56.16" y="-75.06" class="st1" width="1.13" height="1.13"/>
		</g>
		<g transform="translate(312,384) scale(4.12)">
			<rect x="-60.88" y="-75.06" class="st1" width="1.13" height="1.13"/>
		</g>
		<g transform="translate(336,384) scale(4.12)">
			<rect x="-65.61" y="-75.06" class="st1" width="1.13" height="1.13"/>
		</g>
		<g transform="translate(408,384) scale(4.12)">
			<rect x="-79.78" y="-75.06" class="st1" width="1.13" height="1.13"/>
		</g>
		<g transform="translate(432,384) scale(4.12)">
			<rect x="-84.51" y="-75.06" class="st1" width="1.13" height="1.13"/>
		</g>
		<g transform="translate(480,384) scale(4.12)">
			<rect x="-93.96" y="-75.06" class="st1" width="1.13" height="1.13"/>
		</g>
		<g transform="translate(504,384) scale(4.12)">
			<rect x="-98.69" y="-75.06" class="st1" width="1.13" height="1.13"/>
		</g>
		<g transform="translate(528,384) scale(4.12)">
			<rect x="-103.41" y="-75.06" class="st1" width="1.13" height="1.13"/>
		</g>
		<g transform="translate(552,384) scale(4.12)">
			<rect x="-108.14" y="-75.06" class="st1" width="1.13" height="1.13"/>
		</g>
		<g transform="translate(600,384) scale(4.12)">
			<rect x="-117.59" y="-75.06" class="st1" width="1.13" height="1.13"/>
		</g>
		<g transform="translate(624,384) scale(4.12)">
			<rect x="-122.32" y="-75.06" class="st1" width="1.13" height="1.13"/>
		</g>
		<g transform="translate(48,408) scale(4.12)">
			<rect x="-8.9" y="-79.78" class="st1" width="1.13" height="1.13"/>
		</g>
		<g transform="translate(96,408) scale(4.12)">
			<rect x="-18.35" y="-79.78" class="st1" width="1.13" height="1.13"/>
		</g>
		<g transform="translate(120,408) scale(4.12)">
			<rect x="-23.08" y="-79.78" class="st1" width="1.13" height="1.13"/>
		</g>
		<g transform="translate(144,408) scale(4.12)">
			<rect x="-27.8" y="-79.78" class="st1" width="1.13" height="1.13"/>
		</g>
		<g transform="translate(168,408) scale(4.12)">
			<rect x="-32.53" y="-79.78" class="st1" width="1.13" height="1.13"/>
		</g>
		<g transform="translate(264,408) scale(4.12)">
			<rect x="-51.43" y="-79.78" class="st1" width="1.13" height="1.13"/>
		</g>
		<g transform="translate(312,408) scale(4.12)">
			<rect x="-60.88" y="-79.78" class="st1" width="1.13" height="1.13"/>
		</g>
		<g transform="translate(384,408) scale(4.12)">
			<rect x="-75.06" y="-79.78" class="st1" width="1.13" height="1.13"/>
		</g>
		<g transform="translate(408,408) scale(4.12)">
			<rect x="-79.78" y="-79.78" class="st1" width="1.13" height="1.13"/>
		</g>
		<g transform="translate(504,408) scale(4.12)">
			<rect x="-98.69" y="-79.78" class="st1" width="1.13" height="1.13"/>
		</g>
		<g transform="translate(528,408) scale(4.12)">
			<rect x="-103.41" y="-79.78" class="st1" width="1.13" height="1.13"/>
		</g>
		<g transform="translate(624,408) scale(4.12)">
			<rect x="-122.32" y="-79.78" class="st1" width="1.13" height="1.13"/>
		</g>
		<g transform="translate(48,432) scale(4.12)">
			<rect x="-8.9" y="-84.51" class="st1" width="1.13" height="1.13"/>
		</g>
		<g transform="translate(120,432) scale(4.12)">
			<rect x="-23.08" y="-84.51" class="st1" width="1.13" height="1.13"/>
		</g>
		<g transform="translate(168,432) scale(4.12)">
			<rect x="-32.53" y="-84.51" class="st1" width="1.13" height="1.13"/>
		</g>
		<g transform="translate(192,432) scale(4.12)">
			<rect x="-37.25" y="-84.51" class="st1" width="1.13" height="1.13"/>
		</g>
		<g transform="translate(240,432) scale(4.12)">
			<rect x="-46.7" y="-84.51" class="st1" width="1.13" height="1.13"/>
		</g>
		<g transform="translate(312,432) scale(4.12)">
			<rect x="-60.88" y="-84.51" class="st1" width="1.13" height="1.13"/>
		</g>
		<g transform="translate(408,432) scale(4.12)">
			<rect x="-79.78" y="-84.51" class="st1" width="1.13" height="1.13"/>
		</g>
		<g transform="translate(432,432) scale(4.12)">
			<rect x="-84.51" y="-84.51" class="st1" width="1.13" height="1.13"/>
		</g>
		<g transform="translate(456,432) scale(4.12)">
			<rect x="-89.24" y="-84.51" class="st1" width="1.13" height="1.13"/>
		</g>
		<g transform="translate(480,432) scale(4.12)">
			<rect x="-93.96" y="-84.51" class="st1" width="1.13" height="1.13"/>
		</g>
		<g transform="translate(504,432) scale(4.12)">
			<rect x="-98.69" y="-84.51" class="st1" width="1.13" height="1.13"/>
		</g>
		<g transform="translate(528,432) scale(4.12)">
			<rect x="-103.41" y="-84.51" class="st1" width="1.13" height="1.13"/>
		</g>
		<g transform="translate(576,432) scale(4.12)">
			<rect x="-112.86" y="-84.51" class="st1" width="1.13" height="1.13"/>
		</g>
		<g transform="translate(240,456) scale(4.12)">
			<rect x="-46.7" y="-89.24" class="st1" width="1.13" height="1.13"/>
		</g>
		<g transform="translate(264,456) scale(4.12)">
			<rect x="-51.43" y="-89.24" class="st1" width="1.13" height="1.13"/>
		</g>
		<g transform="translate(288,456) scale(4.12)">
			<rect x="-56.16" y="-89.24" class="st1" width="1.13" height="1.13"/>
		</g>
		<g transform="translate(336,456) scale(4.12)">
			<rect x="-65.61" y="-89.24" class="st1" width="1.13" height="1.13"/>
		</g>
		<g transform="translate(360,456) scale(4.12)">
			<rect x="-70.33" y="-89.24" class="st1" width="1.13" height="1.13"/>
		</g>
		<g transform="translate(384,456) scale(4.12)">
			<rect x="-75.06" y="-89.24" class="st1" width="1.13" height="1.13"/>
		</g>
		<g transform="translate(408,456) scale(4.12)">
			<rect x="-79.78" y="-89.24" class="st1" width="1.13" height="1.13"/>
		</g>
		<g transform="translate(432,456) scale(4.12)">
			<rect x="-84.51" y="-89.24" class="st1" width="1.13" height="1.13"/>
		</g>
		<g transform="translate(528,456) scale(4.12)">
			<rect x="-103.41" y="-89.24" class="st1" width="1.13" height="1.13"/>
		</g>
		<g transform="translate(552,456) scale(4.12)">
			<rect x="-108.14" y="-89.24" class="st1" width="1.13" height="1.13"/>
		</g>
		<g transform="translate(288,480) scale(4.12)">
			<rect x="-56.16" y="-93.96" class="st1" width="1.13" height="1.13"/>
		</g>
		<g transform="translate(360,480) scale(4.12)">
			<rect x="-70.33" y="-93.96" class="st1" width="1.13" height="1.13"/>
		</g>
		<g transform="translate(384,480) scale(4.12)">
			<rect x="-75.06" y="-93.96" class="st1" width="1.13" height="1.13"/>
		</g>
		<g transform="translate(432,480) scale(4.12)">
			<rect x="-84.51" y="-93.96" class="st1" width="1.13" height="1.13"/>
		</g>
		<g transform="translate(480,480) scale(4.12)">
			<rect x="-93.96" y="-93.96" class="st1" width="1.13" height="1.13"/>
		</g>
		<g transform="translate(528,480) scale(4.12)">
			<rect x="-103.41" y="-93.96" class="st1" width="1.13" height="1.13"/>
		</g>
		<g transform="translate(576,480) scale(4.12)">
			<rect x="-112.86" y="-93.96" class="st1" width="1.13" height="1.13"/>
		</g>
		<g transform="translate(600,480) scale(4.12)">
			<rect x="-117.59" y="-93.96" class="st1" width="1.13" height="1.13"/>
		</g>
		<g transform="translate(624,480) scale(4.12)">
			<rect x="-122.32" y="-93.96" class="st1" width="1.13" height="1.13"/>
		</g>
		<g transform="translate(240,504) scale(4.12)">
			<rect x="-46.7" y="-98.69" class="st1" width="1.13" height="1.13"/>
		</g>
		<g transform="translate(288,504) scale(4.12)">
			<rect x="-56.16" y="-98.69" class="st1" width="1.13" height="1.13"/>
		</g>
		<g transform="translate(336,504) scale(4.12)">
			<rect x="-65.61" y="-98.69" class="st1" width="1.13" height="1.13"/>
		</g>
		<g transform="translate(360,504) scale(4.12)">
			<rect x="-70.33" y="-98.69" class="st1" width="1.13" height="1.13"/>
		</g>
		<g transform="translate(432,504) scale(4.12)">
			<rect x="-84.51" y="-98.69" class="st1" width="1.13" height="1.13"/>
		</g>
		<g transform="translate(528,504) scale(4.12)">
			<rect x="-103.41" y="-98.69" class="st1" width="1.13" height="1.13"/>
		</g>
		<g transform="translate(552,504) scale(4.12)">
			<rect x="-108.14" y="-98.69" class="st1" width="1.13" height="1.13"/>
		</g>
		<g transform="translate(600,504) scale(4.12)">
			<rect x="-117.59" y="-98.69" class="st1" width="1.13" height="1.13"/>
		</g>
		<g transform="translate(240,528) scale(4.12)">
			<rect x="-46.7" y="-103.41" class="st1" width="1.13" height="1.13"/>
		</g>
		<g transform="translate(264,528) scale(4.12)">
			<rect x="-51.43" y="-103.41" class="st1" width="1.13" height="1.13"/>
		</g>
		<g transform="translate(336,528) scale(4.12)">
			<rect x="-65.61" y="-103.41" class="st1" width="1.13" height="1.13"/>
		</g>
		<g transform="translate(384,528) scale(4.12)">
			<rect x="-75.06" y="-103.41" class="st1" width="1.13" height="1.13"/>
		</g>
		<g transform="translate(408,528) scale(4.12)">
			<rect x="-79.78" y="-103.41" class="st1" width="1.13" height="1.13"/>
		</g>
		<g transform="translate(432,528) scale(4.12)">
			<rect x="-84.51" y="-103.41" class="st1" width="1.13" height="1.13"/>
		</g>
		<g transform="translate(456,528) scale(4.12)">
			<rect x="-89.24" y="-103.41" class="st1" width="1.13" height="1.13"/>
		</g>
		<g transform="translate(480,528) scale(4.12)">
			<rect x="-93.96" y="-103.41" class="st1" width="1.13" height="1.13"/>
		</g>
		<g transform="translate(504,528) scale(4.12)">
			<rect x="-98.69" y="-103.41" class="st1" width="1.13" height="1.13"/>
		</g>
		<g transform="translate(528,528) scale(4.12)">
			<rect x="-103.41" y="-103.41" class="st1" width="1.13" height="1.13"/>
		</g>
		<g transform="translate(576,528) scale(4.12)">
			<rect x="-112.86" y="-103.41" class="st1" width="1.13" height="1.13"/>
		</g>
		<g transform="translate(624,528) scale(4.12)">
			<rect x="-122.32" y="-103.41" class="st1" width="1.13" height="1.13"/>
		</g>
		<g transform="translate(240,552) scale(4.12)">
			<rect x="-46.7" y="-108.14" class="st1" width="1.13" height="1.13"/>
		</g>
		<g transform="translate(288,552) scale(4.12)">
			<rect x="-56.16" y="-108.14" class="st1" width="1.13" height="1.13"/>
		</g>
		<g transform="translate(408,552) scale(4.12)">
			<rect x="-79.78" y="-108.14" class="st1" width="1.13" height="1.13"/>
		</g>
		<g transform="translate(456,552) scale(4.12)">
			<rect x="-89.24" y="-108.14" class="st1" width="1.13" height="1.13"/>
		</g>
		<g transform="translate(480,552) scale(4.12)">
			<rect x="-93.96" y="-108.14" class="st1" width="1.13" height="1.13"/>
		</g>
		<g transform="translate(528,552) scale(4.12)">
			<rect x="-103.41" y="-108.14" class="st1" width="1.13" height="1.13"/>
		</g>
		<g transform="translate(552,552) scale(4.12)">
			<rect x="-108.14" y="-108.14" class="st1" width="1.13" height="1.13"/>
		</g>
		<g transform="translate(576,552) scale(4.12)">
			<rect x="-112.86" y="-108.14" class="st1" width="1.13" height="1.13"/>
		</g>
		<g transform="translate(600,552) scale(4.12)">
			<rect x="-117.59" y="-108.14" class="st1" width="1.13" height="1.13"/>
		</g>
		<g transform="translate(624,552) scale(4.12)">
			<rect x="-122.32" y="-108.14" class="st1" width="1.13" height="1.13"/>
		</g>
		<g transform="translate(240,576) scale(4.12)">
			<rect x="-46.7" y="-112.86" class="st1" width="1.13" height="1.13"/>
		</g>
		<g transform="translate(288,576) scale(4.12)">
			<rect x="-56.16" y="-112.86" class="st1" width="1.13" height="1.13"/>
		</g>
		<g transform="translate(312,576) scale(4.12)">
			<rect x="-60.88" y="-112.86" class="st1" width="1.13" height="1.13"/>
		</g>
		<g transform="translate(336,576) scale(4.12)">
			<rect x="-65.61" y="-112.86" class="st1" width="1.13" height="1.13"/>
		</g>
		<g transform="translate(552,576) scale(4.12)">
			<rect x="-108.14" y="-112.86" class="st1" width="1.13" height="1.13"/>
		</g>
		<g transform="translate(576,576) scale(4.12)">
			<rect x="-112.86" y="-112.86" class="st1" width="1.13" height="1.13"/>
		</g>
		<g transform="translate(624,576) scale(4.12)">
			<rect x="-122.32" y="-112.86" class="st1" width="1.13" height="1.13"/>
		</g>
		<g transform="translate(312,600) scale(4.12)">
			<rect x="-60.88" y="-117.59" class="st1" width="1.13" height="1.13"/>
		</g>
		<g transform="translate(384,600) scale(4.12)">
			<rect x="-75.06" y="-117.59" class="st1" width="1.13" height="1.13"/>
		</g>
		<g transform="translate(408,600) scale(4.12)">
			<rect x="-79.78" y="-117.59" class="st1" width="1.13" height="1.13"/>
		</g>
		<g transform="translate(432,600) scale(4.12)">
			<rect x="-84.51" y="-117.59" class="st1" width="1.13" height="1.13"/>
		</g>
		<g transform="translate(456,600) scale(4.12)">
			<rect x="-89.24" y="-117.59" class="st1" width="1.13" height="1.13"/>
		</g>
		<g transform="translate(480,600) scale(4.12)">
			<rect x="-93.96" y="-117.59" class="st1" width="1.13" height="1.13"/>
		</g>
		<g transform="translate(504,600) scale(4.12)">
			<rect x="-98.69" y="-117.59" class="st1" width="1.13" height="1.13"/>
		</g>
		<g transform="translate(528,600) scale(4.12)">
			<rect x="-103.41" y="-117.59" class="st1" width="1.13" height="1.13"/>
		</g>
		<g transform="translate(552,600) scale(4.12)">
			<rect x="-108.14" y="-117.59" class="st1" width="1.13" height="1.13"/>
		</g>
		<g transform="translate(624,600) scale(4.12)">
			<rect x="-122.32" y="-117.59" class="st1" width="1.13" height="1.13"/>
		</g>
		<g transform="translate(240,624) scale(4.12)">
			<rect x="-46.7" y="-122.32" class="st1" width="1.13" height="1.13"/>
		</g>
		<g transform="translate(288,624) scale(4.12)">
			<rect x="-56.16" y="-122.32" class="st1" width="1.13" height="1.13"/>
		</g>
		<g transform="translate(312,624) scale(4.12)">
			<rect x="-60.88" y="-122.32" class="st1" width="1.13" height="1.13"/>
		</g>
		<g transform="translate(456,624) scale(4.12)">
			<rect x="-89.24" y="-122.32" class="st1" width="1.13" height="1.13"/>
		</g>
		<g transform="translate(480,624) scale(4.12)">
			<rect x="-93.96" y="-122.32" class="st1" width="1.13" height="1.13"/>
		</g>
		<g transform="translate(504,624) scale(4.12)">
			<rect x="-98.69" y="-122.32" class="st1" width="1.13" height="1.13"/>
		</g>
		<g transform="translate(528,624) scale(4.12)">
			<rect x="-103.41" y="-122.32" class="st1" width="1.13" height="1.13"/>
		</g>
		<g transform="translate(552,624) scale(4.12)">
			<rect x="-108.14" y="-122.32" class="st1" width="1.13" height="1.13"/>
		</g>
		<g transform="translate(576,624) scale(4.12)">
			<rect x="-112.86" y="-122.32" class="st1" width="1.13" height="1.13"/>
		</g>
		<g transform="translate(600,624) scale(4.12)">
			<rect x="-117.59" y="-122.32" class="st1" width="1.13" height="1.13"/>
		</g>
		<g transform="translate(624,624) scale(4.12)">
			<rect x="-122.32" y="-122.32" class="st1" width="1.13" height="1.13"/>
		</g>
		<g transform="translate(48,48)">
			<g transform="scale(12)">
				<path class="st1" d="M-3.06-3.06v2.64h2.64v-2.64H-3.06z M-0.79-0.79h-1.89v-1.89h1.89V-0.79z"/>
			</g>
		</g>
		<g transform="translate(480,48)">
			<g transform="scale(12)">
				<path class="st1" d="M-32.26-3.06v2.64h2.64v-2.64H-32.26z M-30-0.79h-1.89v-1.89H-30V-0.79z"/>
			</g>
		</g>
		<g transform="translate(48,480)">
			<g transform="scale(12)">
				<path class="st1" d="M-3.06-32.26v2.64h2.64v-2.64H-3.06z M-0.79-30h-1.89v-1.89h1.89V-30z"/>
			</g>
		</g>
		<g transform="translate(96,96)">
			<g transform="scale(12)">
				<rect x="-6.3" y="-6.3" class="st1" width="1.13" height="1.13"/>
			</g>
		</g>
		<g transform="translate(528,96)">
			<g transform="scale(12)">
				<rect x="-35.51" y="-6.3" class="st1" width="1.13" height="1.13"/>
			</g>
		</g>
		<g transform="translate(96,528)">
			<g transform="scale(12)">
				<rect x="-6.3" y="-35.51" class="st1" width="1.13" height="1.13"/>
			</g>
		</g>
	</g>
</g>
</svg>
