<svg id="Слой_1" data-name="Слой 1" xmlns="http://www.w3.org/2000/svg" viewBox="0 0 79 79"><defs><style>.cls-1{fill:#153f53;}.cls-2{fill:#fff;}</style></defs><title>Иконка_01</title><circle class="cls-1" cx="39.5" cy="39.5" r="35.16"/><path class="cls-2" d="M40.19,46.07l6.21,6.22,4.47-4.47L44.66,41.6Zm2.88-1.59a.45.45,0,0,1,.61,0l.67.67a.47.47,0,0,1,0,.61.46.46,0,0,1-.62,0l-.66-.66A.46.46,0,0,1,43.07,44.48Zm.15,2.36a.46.46,0,0,1-.62,0L42,46.17a.43.43,0,0,1,.61-.61l.67.67A.55.55,0,0,1,43.22,46.84Zm1.85,1.85a.48.48,0,0,1-.62,0L43.78,48a.47.47,0,0,1,0-.61.46.46,0,0,1,.62,0l.67.66A.48.48,0,0,1,45.07,48.69Zm1.8,1.8a.48.48,0,0,1-.62,0l-.67-.67a.44.44,0,0,1,.62-.62l.67.67A.39.39,0,0,1,46.87,50.49ZM48,49.41a.48.48,0,0,1-.62,0l-.67-.67a.47.47,0,0,1,0-.61.46.46,0,0,1,.62,0l.67.66A.48.48,0,0,1,48,49.41Zm-.21-2.36a.46.46,0,0,1,.62,0l.66.66a.46.46,0,0,1,0,.62.47.47,0,0,1-.61,0l-.67-.67A.47.47,0,0,1,47.79,47.05ZM46,45.25a.48.48,0,0,1,.62,0l.67.67a.47.47,0,0,1,0,.61.46.46,0,0,1-.62,0L46,45.87A.48.48,0,0,1,46,45.25ZM46.2,47a.47.47,0,0,1,0,.61.46.46,0,0,1-.62,0l-.67-.67a.39.39,0,0,1,0-.61.46.46,0,0,1,.62,0Zm-.82-2.93a.47.47,0,0,1,0,.61.46.46,0,0,1-.62,0L44.09,44a.44.44,0,0,1,.62-.62Z"/><path class="cls-2" d="M37.43,34.36l-6.22-6.22-4.46,4.47L33,38.83ZM34.55,36a.47.47,0,0,1-.61,0l-.67-.67a.43.43,0,0,1,.61-.61l.67.66A.46.46,0,0,1,34.55,36Zm-.15-2.31a.45.45,0,0,1,.61,0l.67.67a.43.43,0,0,1-.61.61l-.67-.67A.37.37,0,0,1,34.4,33.64Zm-1.85-1.85a.48.48,0,0,1,.62,0l.66.67a.43.43,0,0,1-.61.61l-.67-.66A.48.48,0,0,1,32.55,31.79Zm.15,2.31a.47.47,0,0,1-.61,0l-.67-.67a.47.47,0,0,1,0-.61.46.46,0,0,1,.62,0l.66.66A.46.46,0,0,1,32.7,34.1Zm-2-4.16a.48.48,0,0,1,.62,0l.66.67a.43.43,0,0,1-.61.61l-.67-.66A.48.48,0,0,1,30.7,29.94ZM29.62,31a.46.46,0,0,1,.62,0l.61.67a.43.43,0,0,1-.61.61l-.62-.66A.48.48,0,0,1,29.62,31Zm.16,2.36a.46.46,0,0,1-.62,0l-.67-.67a.47.47,0,0,1,0-.61.46.46,0,0,1,.62,0l.67.67A.47.47,0,0,1,29.78,33.38Zm1.84,1.85a.47.47,0,0,1-.61,0l-.67-.67a.47.47,0,0,1,0-.61A.46.46,0,0,1,31,34l.67.66A.47.47,0,0,1,31.62,35.23Zm.57,1.18a.47.47,0,0,1,0-.61.46.46,0,0,1,.62,0l.66.66a.46.46,0,0,1,0,.62.47.47,0,0,1-.61,0Z"/><path class="cls-2" d="M51.76,29.58h0a1.67,1.67,0,1,0-2.37-2.36,1.71,1.71,0,0,0-.46,1.39l-1.64,1.64-2.93-2.93a5.18,5.18,0,0,0-.92,5.75l-1.39,1.39-.26-.26a1.49,1.49,0,0,0-2.15,0l-6,6a1.49,1.49,0,0,0,0,2.16l-.05,0a2.15,2.15,0,0,0,0,3,2.13,2.13,0,0,0,3,0l0,0a1.59,1.59,0,0,0,2.15,0l5.91-5.91a1.49,1.49,0,0,0,0-2.16L44.46,37l1.39-1.39a5.2,5.2,0,0,0,5.75-.92l-2.92-2.93,1.64-1.64A2.59,2.59,0,0,0,51.76,29.58Z"/></svg>