<svg id="Слой_1" data-name="Слой 1" xmlns="http://www.w3.org/2000/svg" viewBox="0 0 79 79"><defs><style>.cls-1{fill:#153f53;}.cls-2{fill:#fff;fill-rule:evenodd;}</style></defs><title>Иконка_01</title><circle class="cls-1" cx="39.5" cy="39.5" r="35.16"/><path class="cls-2" d="M43.44,31.83l-.8.28.12.09.21.17a.36.36,0,0,0,.51,0,.35.35,0,0,0,0-.5Z"/><path class="cls-2" d="M35.88,41.36a8.11,8.11,0,0,1,0-11.14L36.1,30a3,3,0,0,1,2.33-.61,9.33,9.33,0,0,1,4.33,1.87l-.83.29a8,8,0,0,0-3.6-1.49,2.19,2.19,0,0,0-1.83.55,2.62,2.62,0,0,0-.42,2.58,7.71,7.71,0,0,0,.36,1.05h0l7-2.45h0l2.5-.88a1.15,1.15,0,0,1,.26-1.21,1.15,1.15,0,1,1,.41,1.88l-3.34,9.52a7.73,7.73,0,0,0,1.1.39A2.66,2.66,0,0,0,47,41.11a2.26,2.26,0,0,0,.55-1.86A8.28,8.28,0,0,0,46,35.61l.29-.84a9.43,9.43,0,0,1,1.9,4.41,3,3,0,0,1-.61,2.3.1.1,0,0,1,0,.05l-.14.14a8.13,8.13,0,0,1-6.43,2.19v2.49H43.1a1.08,1.08,0,0,1,1.08,1.08v1.44h1.44a.36.36,0,0,1,0,.72H31.19a.36.36,0,0,1,0-.72h1.45V47.43a1.08,1.08,0,0,1,1.08-1.08h2.16v-5Zm.73.68v5a.39.39,0,0,0,.09.26.3.3,0,0,0,.21.1h3a.26.26,0,0,0,.2-.1.35.35,0,0,0,.1-.26V43.75A8,8,0,0,1,36.61,42Zm9-5.58-1.48,4.26.37.11a2,2,0,0,0,1.9-.23,1.55,1.55,0,0,0,.34-1.29,6.91,6.91,0,0,0-1.13-2.85Zm-8.22-1.77a13.92,13.92,0,0,0,2.37,3.1,13.75,13.75,0,0,0,3,2.34l-.24.69A14.29,14.29,0,0,1,39.3,38.3a14.06,14.06,0,0,1-2.54-3.37Zm3.63-2.8a6.66,6.66,0,0,0-2.8-1.07,1.51,1.51,0,0,0-1.26.33,1.94,1.94,0,0,0-.23,1.9l.09.32,4.2-1.48Zm6.23-1.64a.42.42,0,0,1,0,.6.42.42,0,0,1-.59,0,.43.43,0,0,1,0-.6A.42.42,0,0,1,47.3,30.25Z"/></svg>