<svg id="Слой_1" data-name="Слой 1" xmlns="http://www.w3.org/2000/svg" viewBox="0 0 79 79"><defs><style>.cls-1{fill:#153f53;}.cls-2{fill:#fff;fill-rule:evenodd;}</style></defs><title>Иконка_01</title><circle class="cls-1" cx="39.5" cy="39.5" r="35.16"/><path class="cls-2" d="M36.37,48.37h0a1.76,1.76,0,0,0,.77-.17l.8-.38.8.38a1.69,1.69,0,0,0,.76.17h0a1.69,1.69,0,0,0,.76-.17l.8-.38.81.38a1.69,1.69,0,0,0,.76.17h0a1.69,1.69,0,0,0,.76-.17l.8-.38.8.38a1.7,1.7,0,0,0,.77.17h0a1.69,1.69,0,0,0,.76-.17l.8-.38.8.38a1.78,1.78,0,0,0,1.53,0l1-.46a.4.4,0,0,0,.18-.52.39.39,0,0,0-.52-.19l-1,.47a1,1,0,0,1-.85,0l-1-.47a.4.4,0,0,0-.34,0l-1,.47a1,1,0,0,1-.85,0l-1-.47A.38.38,0,0,0,44,47l-1,.47a1.07,1.07,0,0,1-.86,0l-1-.47a.38.38,0,0,0-.33,0l-1,.47a1,1,0,0,1-.85,0l-1-.47a.4.4,0,0,0-.34,0l-1,.47a1,1,0,0,1-.85,0L35,47a.39.39,0,0,0-.35,0l-.94.47a1,1,0,0,1-.89,0L31.86,47a.39.39,0,0,0-.35,0l-1,.47a1,1,0,0,1-.85,0l-1-.47a.39.39,0,0,0-.33.71l1,.46a1.78,1.78,0,0,0,1.53,0l.8-.38.77.39a1.78,1.78,0,0,0,1.59,0l.77-.39.8.38a1.69,1.69,0,0,0,.76.17ZM39.11,47l-1-.48a.38.38,0,0,0-.33,0l-1,.47A1,1,0,0,1,36,47l-1-.47a.39.39,0,0,0-.35,0l-.94.47a1,1,0,0,1-.89,0l-.53-.27-1-6.05a.4.4,0,0,1,.24-.43l7.58-3V47Zm.78,0V37.27l7.58,3a.42.42,0,0,1,.24.43l-1,6-.55.27a1,1,0,0,1-.85,0l-1-.47a.4.4,0,0,0-.34,0l-1,.47a1,1,0,0,1-.85,0l-1-.47a.38.38,0,0,0-.33,0l-1,.48Zm3.52-5.37A1.34,1.34,0,1,0,44.74,43,1.34,1.34,0,0,0,43.41,41.67Zm0,.78a.56.56,0,0,1,0,1.11.56.56,0,0,1,0-1.11ZM33.63,39l5.58-2.23a.83.83,0,0,1,.58,0L45.36,39V35.35a1.69,1.69,0,0,0-1.69-1.69H35.33a1.7,1.7,0,0,0-1.7,1.69Zm3.52-3.61h4.7a.4.4,0,0,0,0-.79h-4.7a.4.4,0,0,0,0,.79Zm4.3-3.52H37.54v1.36h3.91Zm-3.91-.79h3.91v-.84a.79.79,0,0,0-.23-.56.8.8,0,0,0-.56-.24H38.34a.82.82,0,0,0-.8.8v.84Z"/></svg>