<svg id="Слой_1" data-name="Слой 1" xmlns="http://www.w3.org/2000/svg" viewBox="0 0 79 79"><defs><style>.cls-1{fill:#153f53;}.cls-2{fill:#fff;}</style></defs><title>Иконка_01</title><circle class="cls-1" cx="35.16" cy="39.5" r="35.16"/><path class="cls-2" d="M47.16,43a34.42,34.42,0,0,0,2.5-7.39.2.2,0,0,0,0-.18.21.21,0,0,0-.17-.08h-9a.24.24,0,0,0-.2.12h0l-1.1,2.11H22.61a.22.22,0,0,0-.22.21A11.08,11.08,0,0,0,23.54,43ZM26.8,40a1,1,0,0,1,.71,1.7,1,1,0,0,1-1.41,0,1,1,0,0,1-.29-.7,1,1,0,0,1,.29-.71,1,1,0,0,1,.7-.29ZM30,40a1,1,0,0,1,.7.29A1,1,0,0,1,31,41a1,1,0,0,1-.3.7A1,1,0,0,1,30,42a1,1,0,0,1-1-1,1,1,0,0,1,1-1Zm3.16,0a1,1,0,0,1,.7.29,1,1,0,0,1-1.41,1.41,1,1,0,0,1-.29-.7,1,1,0,0,1,.29-.71,1,1,0,0,1,.71-.29Zm3.15,0a1,1,0,0,1,.71,1.7,1,1,0,0,1-1.41,0,1,1,0,0,1-.29-.7,1,1,0,0,1,.29-.71,1,1,0,0,1,.7-.29Zm3.16,0a1,1,0,0,1,.7.29,1,1,0,0,1,0,1.41,1,1,0,0,1-.7.29,1,1,0,0,1-.71-.29,1,1,0,0,1,.71-1.7Z"/><path class="cls-2" d="M23.76,43.38c.17.32.34.61.52.89H46.52c.15-.3.3-.59.44-.89Z"/><path class="cls-2" d="M24.56,44.7a11.47,11.47,0,0,0,1.7,2,.2.2,0,0,0,.14.06H45a.21.21,0,0,0,.19-.11h0c.39-.65.75-1.29,1.09-1.93Z"/><path class="cls-2" d="M24.07,34.46a.26.26,0,0,1,.07-.16.2.2,0,0,1,.15-.06H27.8V37.1H24.07V34.46Z"/><path class="cls-2" d="M36.77,33.6a.21.21,0,0,1,.21.21V37.1H33.26V33.6Z"/><path class="cls-2" d="M28.3,31.82a.2.2,0,0,1,.15-.06h4.16a.21.21,0,0,1,.21.21V37.1H28.23V32A.18.18,0,0,1,28.3,31.82Z"/><path class="cls-2" d="M39.43,41.55a.56.56,0,0,1-.56-.56.55.55,0,0,1,.34-.52.57.57,0,0,1,.62.12.55.55,0,0,1,.12.61.57.57,0,0,1-.52.35Z"/><path class="cls-2" d="M36.27,41.55a.56.56,0,0,1-.21-1.08.56.56,0,1,1,.21,1.08Z"/><path class="cls-2" d="M33.12,41.55a.56.56,0,0,1-.56-.56.55.55,0,0,1,.34-.52.57.57,0,0,1,.62.12.55.55,0,0,1,.12.61.57.57,0,0,1-.52.35Z"/><path class="cls-2" d="M30,41.55a.56.56,0,0,1-.21-1.08A.56.56,0,1,1,30,41.55Z"/><path class="cls-2" d="M26.81,41.55a.57.57,0,0,1-.57-.56.56.56,0,0,1,.35-.52.56.56,0,0,1,.74.73.57.57,0,0,1-.52.35Z"/></svg>