<svg id="Слой_1" data-name="Слой 1" xmlns="http://www.w3.org/2000/svg" viewBox="0 0 79 79"><defs><style>.cls-1{fill:#153f53;}.cls-2{fill:#fff;}</style></defs><title>Иконка_01</title><circle class="cls-1" cx="39.5" cy="39.5" r="35.16"/><path class="cls-2" d="M41.71,46.14a2.21,2.21,0,1,1-2.21-2.21,2.21,2.21,0,0,1,2.21,2.21"/><path class="cls-2" d="M35.78,43.75a4.45,4.45,0,0,1,3.72-2,4.4,4.4,0,0,1,3.72,2,1,1,0,0,0,.87.48,1,1,0,0,0,.78-.38l.12-.16a1,1,0,0,0,.07-1.17,6.63,6.63,0,0,0-11.12,0,1.05,1.05,0,0,0-.15.6,1,1,0,0,0,.22.57l.13.16a1,1,0,0,0,.78.37,1,1,0,0,0,.86-.47Z"/><path class="cls-2" d="M39.5,37.3a8.81,8.81,0,0,1,6.66,3,1,1,0,0,0,.77.36,1,1,0,0,0,.78-.36l.12-.15h0a1.06,1.06,0,0,0,.22-.65,1,1,0,0,0-.25-.65,11.06,11.06,0,0,0-16.6,0,1,1,0,0,0-.24.65,1,1,0,0,0,.22.65l.12.15h0a1,1,0,0,0,1.55,0,8.8,8.8,0,0,1,6.65-3Z"/><path class="cls-2" d="M49,36.88a1,1,0,0,0,.71.3,1,1,0,0,0,.81-.4l.11-.13h0a1.07,1.07,0,0,0,.22-.69,1,1,0,0,0-.29-.66,15.48,15.48,0,0,0-22.1,0,1.08,1.08,0,0,0-.29.66,1,1,0,0,0,.23.69l.1.13h0a1.07,1.07,0,0,0,.81.39,1,1,0,0,0,.71-.3,13.27,13.27,0,0,1,19,0Z"/></svg>